<?xml version="1.0" encoding="UTF-8" standalone="no"?>
<svg id="svg2" xmlns:rdf="http://www.w3.org/1999/02/22-rdf-syntax-ns#" xmlns="http://www.w3.org/2000/svg" viewBox="0 0 744.09 1052.4" height="100%" width="100%" version="1.1" xmlns:cc="http://creativecommons.org/ns#" xmlns:dc="http://purl.org/dc/elements/1.1/">
 <defs id="defs4"></defs>
 <metadata id="metadata7">
  <rdf:RDF>
   <cc:Work rdf:about="">
    <dc:format>image/svg+xml</dc:format>
    <dc:type rdf:resource="http://purl.org/dc/dcmitype/StillImage"/>
    <dc:title/>
   </cc:Work>
  </rdf:RDF>
 </metadata>
 <g id="layer1">
  <g id="g3874" stroke="#000" transform="translate(50.699782,-91.507652)">
   <g id="layer1-0" stroke-miterlimit="4" transform="matrix(1.9732704,0,0,2.4645111,-426.98571,5.7161008)">
    <path id="anchorage" style="stroke-dasharray:none;" stroke-width="0.45346242" fill="#0F0" d="m48.792,100.96-23.242-1.1298-11.783-1.1298-11.46,2.0983-3.2281,2.7439-5.6492,0.32281-1.614,2.7439,4.5194,2.2597-0.48422,0.96843-5.8106,1.1298,0,1.7754,3.8737,2.7439,7.9089,0,0,1.2912-5.0036,0.48421-3.5509,2.7439,2.0983,3.3895,2.9053,2.9053,5.0036,0.48422,1.2912,1.4526,7.1018,0.48421-2.9053,3.0667-10.976,3.8737-9.5229,3.2281-2.4211,0.16141-0.16141,3.3895,14.526-4.0351,14.526-5.0036,5.165-3.2281,3.0667-3.5509,4.3579-2.4211,10.33,0.32281,11.46,0.80702,9.2001,4.5194,5.0036,4.3579,3.5509,0.48422,0.32281,4.8422,2.7439,1.6141,5.165-1.7755-0.64562-4.8422-9.8457-8.5545-4.6808,0-3.5509,0-6.1334-2.9053z"/>
    <path id="yellowknife" style="stroke-dasharray:none;" stroke-width="0.45346242" fill="#170a51" d="m49.379,101.01,29.032-1.031,11.641-13.011,28.076-5.25,30.587-3.8804,11.641-4.337,23.283-1.5978,42.685,1.5978v2.2826l-25.565,6.3913-5.7065,3.6522-5.4783,3.1957-3.1957,3.6522-23.283,0.68478-6.1631,5.9348,6.1631,5.7065,4.1087-0.22826,1.1413,2.5109,5.25-4.1087,7.9892-0.22827v8.4457h-9.587l-9.3587,6.8478-4.5652,0.45653-4.1087,5.0218-97.555,1.7026-5.1302-2.8543-1.9016-21.557z"/>
    <path id="vancouver" style="stroke-dasharray:none;" stroke-width="0.45346242" fill="#7aa6cd" d="m66.381,125.96,10.009,8.2415,0.32288,5.5471,2.4216,4.5962,0.64577,3.4868,6.7805,3.4868,2.5831-1.2679,16.79,0,0.16145-24.566z"/>
    <path id="calgary" style="stroke-dasharray:none;" stroke-width="0.45346242" fill="#f5deb3" d="m108.01,125.64,32.312-0.15746,0.15837,24.878-32.787-0.15746z"/>
    <path id="winnipeg" style="stroke-dasharray:none;" stroke-width="0.45346242" fill="#735600" d="m141.76,125.33,12.915,0-0.16144,2.0621,3.8746,3.3311,5.8118,0.79312,9.8479,3.9656,6.9419,0.15862,0,5.2346-9.0406,9.3588-6.4576-0.47587-5.3276,2.6966-7.7491-2.538-10.655-0.15862z"/>
    <path id="toronto" style="stroke-dasharray:none;" stroke-width="0.45346242" fill="#FFF" d="m182.43,141.55-9.6843,10.007,2.4211,1.2105,0.48422,2.7439,6.2948,0.32281,3.5509,2.5825-0.16141,1.7755-2.986,0.32281-0.64561,3.8737,2.7439-0.88772,3.793-2.8246,5.3264-0.16141,3.3895-1.7755-8.8773-16.948-2.5825,2.5825z"/>
    <path id="montreal" style="stroke-dasharray:none;" stroke-width="0.45346242" fill="#f1c232" d="m188.41,140.02,10.169,19.369,4.8422,0.1614,3.8737-3.5509,0.16141-2.2597,1.614-1.9369-1.1298-2.2597,8.0703-3.2281-3.7123-19.207-4.358-0.80703,0.32282-3.8737-5.4878-0.32281-1.9369-3.5509-12.267-0.1614,0,7.586-0.64563,2.0983,4.0351,2.9053-0.16141,2.9053-5.6492,2.7439z"/>
    <path id="st_johns" style="stroke-dasharray:none;" stroke-width="0.45346242" fill="#735600" d="m213.37,126.7,3.3905-0.13913,2.7608-2.5644,8.5002,8.2877-2.9084,0.46511,10.3,4.5871,0.46935,2.2628,3.7133-0.13701-0.0393,5.9719-2.4348,2.0823,4.3462,1.8041,2.0982,0.0138-0.50753,3.5477-2.2702,1.5992-2.2607,0.14655-0.3122-1.6161-6.6206,0.44072-0.78262-3.7175,4.3748-2.5538-2.7269-2.6005-4.8612,2.8734-5.6458,0.37595-4.4791-2.9605-4.1-18.17z"/>
    <path id="iqaluit" opacity="0.98999999" style="stroke-dasharray:none;" d="m211.76,113.79,20.605,2.0802-7.8773-13.656-8.0907-7.1246-9.6646-3.3423-5.6089-2.968-6.6776,7.4703-1.6314,4.8404,11.582,7.0115,7.3633,5.6887z" stroke-width="0.45346242" fill="#f1c232"/>
    <path id="cleveland" style="stroke-dasharray:none;" stroke-width="0.45346242" fill="#05edff" d="m170.57,151.48-3.9105-0.43132-5.1683,3.6594,3.3588,0.0905,0.95864-1.4624,1.7754,0.24211,1.372,1.6141,3.4547,0.65541-3.0512,2.0885-1.1298,2.8246,0.0807,4.6808,1.2105,0.80703,1.5334-1.3719,0-5.4878,3.2281-1.3719,3.0667,0,1.6142,1.8233,0.64964,2.7059,0.21161,4.2496,3.4506-0.87879-2.819-1.6615,1.0543-5.3678-1.9595-1.7764-3.9854-1.0703-2.1709-2.3819-2.81-2.18z"/>
    <path id="san_jose" style="stroke-dasharray:none;" stroke-width="0.45346242" fill="#38761d" d="m85.571,163.76,1.0757,5.0238,2.9674,5.4783,9.6526-0.22818-1.6092-10.518-12.086,0.24447z"/>
    <path id="los_angeles" style="stroke-dasharray:none;" stroke-width="0.45346242" fill="#674ea7" d="m89.611,175.17,5.7065,8.2174,3.4239,0.45653,3.8804,2.7391,6.0733-0.0277-1.6459-3.332-7.491-8.38-9.94,0.32z"/>
    <path id="saint_paul" style="stroke-dasharray:none;" stroke-width="0.45346242" fill="#1c4587" d="m104.88,162.16,54.127-0.90471,0.0231-8.3283-6.1504-2.2597-54.085,0.32281,6.0852,11.17z"/>
    <path id="phoenix" style="stroke-dasharray:none;" stroke-width="0.45346242" fill="#1c4587" d="m109.64,186.5,4.8422,2.9053,8.2317-0.1614,0.64562-2.2597,5.9317-0.22618,1.4124-11.718-22.112,0.0648-0.16145,7.5553,1.2106,3.8398-0.00032,0.00016,0-0.00003z"/>
    <path id="denver" style="stroke-dasharray:none;" stroke-width="0.45346242" fill="#fce5cd" d="m99.101,163.42,1.4931,10.522,7.2437,9.1089-0.55246-8.501,23.997-0.29277,1.9152-11.968-34.097,1.1311,0.0007,0.0001z"/>
    <path id="chicago" style="stroke-dasharray:none;" stroke-width="0.45346242" fill="#ffa500" d="m160.16,156.16,8.7159,0-1.9369,4.1965,0.64562,6.9404-4.6808,7.1018-6.5362-1.9347-0.84745-9.9455,4.6401-0.35465v-6.005z"/>
    <path id="houston" style="stroke-dasharray:none;" stroke-width="0.45346242" fill="#ffa500" d="m153.71,182.98-15.089,0.0688-0.0108-5.3868-7.8602,0.18075-0.28248,9.4561-6.6176,0.32282,3.7123,1.7754,2.9053,2.0983,0.32281,1.9369,3.2281,1.6141,0.96844-1.6141,3.7123-0.1614,4.6808,7.4246,3.5509,0.32281,0-4.3579,5.6492-2.4211,0.80702-1.4526,2.4211,0.16141,1.1299-5.7777-3.228-4.1903z"/>
    <path id="st_louis" style="stroke-dasharray:none;" stroke-width="0.45346242" fill="#1c4587" d="m156.73,173.39-1.9772,8.2029,3.147,5.2248-0.64562,5.2276,2.4211-0.22618,5.4877,0.32487,0.80702-5.0036,0.00001-6.2948-3.0667-5.165-6.1733-2.2906-0.00005,0z"/>
    <path id="indianapolis" style="stroke-dasharray:none;" stroke-width="0.45346242" fill="#90F" d="m169.2,167.78,2.9053-2.5825,0.16141-5.165,4.5193-1.4526,0.48422,1.9369-0.96843,1.2912,2.2597,0.1614-1.1298,4.8422-0.32281,1.7755,3.5509-0.16141-5.4878,12.428-9.5229-2.4211-1.7755-2.9053z"/>
    <path id="jacksonville" style="stroke-dasharray:none;" stroke-width="0.45346242" fill="#3d85c6" d="m166.5,190.7,18.119,1.1277,0.8876,7.1029,0,4.5194-3.5509-0.16141-3.7123-3.5509-0.32281-5.165-2.0983-1.9369-1.2912,1.2912-2.7439-0.80703-5.4878-0.80702,0.20037-1.613z"/>
    <path id="washington_dc" style="stroke-dasharray:none;" stroke-width="0.45346242" fill="#1c4587" d="m183.46,172.81,5.871,1.4999,6.7387,2.0171-0.64573,4.8905-3.9946,1.6767-14.144-5.166,2.7846-5.3701,3.3897,0.45195z"/>
    <path id="philadelphia" style="stroke-dasharray:none;" stroke-width="0.45346242" fill="#00bfff" d="m188.6,166.6-3.7269-0.32462-3.3048,1.169-0.93839,4.2908,16,3.8079,2.8249-4.5666-10.855-4.3764z"/>
    <path id="boston" style="stroke-dasharray:none;" stroke-width="0.45346242" fill="#ff6900" d="m206.79,167.49,1.6337-1.3375-1.614-1.7755,7.586-4.8422-2.0983-0.80703,0-3.8737-4.0351,0.1614-4.5194,5.0036-3.3892,0,0.76684,2.8416,3.5508,5.8732,2.1186-1.244z"/>
    <path id="tijuana" style="stroke-dasharray:none;" stroke-width="0.45346242" fill="#41695b" d="m102.38,187.31,2.2597,5.4878,5.165,3.7123-3.0667,1.2912,2.7439,2.7439,1.9369,0.16141,2.0983,4.3579,4.8422,3.8737,2.9053-0.32281,0.80703-4.3579-9.2001-12.267-0.16141-3.0667-3.8737-1.6141z"/>
    <path id="chihuahua" style="stroke-dasharray:none;" stroke-width="0.45346242" fill="#41695b" d="m114.64,190.37,0.48422,1.9369,7.3843,11.542,6.5131,3.034,13.138-6.8297-3.7929-5.4867-2.5825-0.1614-1.4526,1.1298-3.5509-1.7755-0.96843-1.7754-5.4878-3.3895-1.2912,0.96843-8.3932,0.80699z"/>
    <path id="ecpatec" style="stroke-dasharray:none;" stroke-width="0.45346242" fill="#41695b" d="m122.64,204.34,0.40357,3.1469,4.8422,4.1965,0.16141,3.8737,1.4526,2.7439,16.302,6.4562,5.8106,0.16141,1.614-0.64562,5.165,1.614-0.64563-3.0667-4.0351-1.4526-5.165,0.48422-9.8457-3.2281-6.1334-3.7123-0.16141-5.165-9.7651-5.4065z"/>
    <path id="merida" style="stroke-dasharray:none;" stroke-width="0.45346242" fill="#1c4587" d="m157.74,217.11-3.5516,4.2007,5.165,1.0157,0.64562,1.7755,3.0667-0.32281-0.80703-1.9369-1.614-1.2912,5.0036-0.96843,2.7439-2.5825,0.32281-1.9369,1.4526-1.2912,0.1614-2.4211-7.4246,0.32281-1.614,1.9369-2.0177,2.5342-1.5327,0.96518z"/>
    <path id="guatemala_city" style="stroke-dasharray:none;" stroke-width="0.45346242" fill="#7ba865" d="m158.22,227.17,2.0983,2.2597,5.165,1.6141,2.7439-0.16141,2.0983,3.0667,2.4211,1.1298,4.8422,0,0.48421-6.779,0.64563-2.5825-2.5825-1.7755-9.2001-0.1614,0.80703-4.0351-3.7123,1.4526,0.80702,3.5509-4.8422,0.96843z"/>
    <path id="havana" style="stroke-dasharray:none;" stroke-width="0.45346242" fill="#ffd700" d="m175.01,212.16,7.7474-0.64562,6.2948,1.2912,1.614,2.9053,7.7475,0,0-2.2597-14.204-6.779-6.779,0.16141-3.0667,2.7439z"/>
    <path id="new_orleans" style="stroke-dasharray:none;" stroke-width="0.45346242" fill="#ffd700" d="m166.9,196.48-0.6041-3.3587-6.2548-0.29411-4.8821,1.3591,11.741,2.2937z"/>
    <path id="kingston" style="stroke-dasharray:none;" stroke-width="0.45346242" fill="#735600" d="m178.28,218.46,4.0753-1.4856,5.1649-0.583,0.36323,7.878-7.3433-2.6186-2.2601-3.1909z"/>
    <path id="panama_city" style="stroke-dasharray:none;" stroke-width="0.45346242" fill="#7ba865" d="m173.72,239.92,2.5825,1.2912,6.779,3.3895,4.3579-2.9053,2.0983,2.5825,2.2597-2.0983,0.16141-1.6141-5.165-2.9053-2.7439,1.7755-3.8737,0.1614-2.5825-3.8737-6.9404,0.48421,1.4526,2.0983z"/>
    <path id="nassau" style="stroke-dasharray:none;" stroke-width="0.45346242" fill="#ff6900" d="m183.89,204.25,0,0.80702,15.818,8.5545,5.6492-0.16141-4.8422-6.4562-6.9404-1.2912-0.80703-5.972-6.2948-1.2912,0,5.972z"/>
    <path id="port_au_prince" style="stroke-dasharray:none;" stroke-width="0.45346242" fill="#ffd700" d="m189.21,216.68,0,3.3895,15.172,0.64562,0-5.972-4.0351,0.48421-0.48422,1.2912z"/>
    <path id="santo_domingo" style="stroke-dasharray:none;" stroke-width="0.45346242" fill="#735600" d="m205.84,214.58-0.16141,5.8106,7.2632-0.16141-1.2912-5.972z"/>
    <path id="san_juan" style="stroke-dasharray:none;" stroke-width="0.45346242" fill="#735600" d="m213.59,215.71,0.64562,4.3579,10.007,5.6492-3.8737,7.9089,8.7159,5.4878,0.80703-15.172-3.7123-3.7123z"/>
    <path id="bogata" style="stroke-dasharray:none;" stroke-width="0.45346242" fill="#7ba865" d="m193.25,241.05-3.3895,3.8737,0.32281,7.2632-3.3895,4.3579,4.1965,1.2912,4.0351,1.7754,6.1334,5.6492,4.5194,0.32281,0.80703,1.4526,2.4211,0-0.16141-5.6492,2.627-3.4058,2.0538-1.7592-0.80702-9.8457-4.8422-0.1614-0.64562-2.0983-4.1965-0.64562,0.16141-2.9053-3.2281-2.2597,4.3579-5.8106-1.4526-2.0983-6.6176,3.8737-2.9,6.81z"/>
    <path id="caracas" style="stroke-dasharray:none;" stroke-width="0.45346242" fill="#ff6900" d="m205.19,231.05,13.235,4.5193,0.80702-0.96843,9.2001,6.1334,0.48422,4.1965-2.4211,0.96843,0,1.4526,1.7755,1.4526-0.64563,1.614-7.2632,0.80703,0.48421,3.3895,0.48422,1.4526-3.8737,2.0983-2.9053-1.4526-0.80703-10.976-5.3264,0-0.80703-2.2597-3.7123-0.64562,0-2.5825-2.5825-2.0983z"/>
    <path id="quito" style="stroke-dasharray:none;" stroke-width="0.45346242" fill="#735600" d="m185.82,256.87c0.64562,0.16141,9.8457,3.8737,9.8457,3.8737l0.1614,3.2281-3.0667,2.4211-2.0983-0.1614-1.614,2.9053-1.4526,2.0983-4.5193-2.9053,2.7439-1.4526-0.16141-2.2597-1.614,1.4526-0.32281-4.6808z"/>
    <path id="lima" style="stroke-dasharray:none;" stroke-width="0.45346242" fill="#800000" d="m183.4,268.65-1.614,1.9369,1.1298,3.2281,2.2597,1.2912,7.9088,13.719,8.8773-6.9404-2.9053-4.6808,1.7754-3.2281,0-3.2281,6.1334-1.4526-0.32281-2.2597-6.2948-1.4526-3.7123-2.9053-2.5825,4.0351-2.7439,0.80703-3.5509,5.3264z"/>
    <path id="cuzco" style="stroke-dasharray:none;" stroke-width="0.45346242" fill="#1c4587" d="m202.61,282.7-10.007,7.586,0.64562,2.5825,7.1018,4.6808,6.2948,3.8737,1.9369-2.0983,1.2912-1.4526-0.16141-12.751-3.2281,0.16141-0.48422-3.3895z"/>
    <path id="la_paz" style="stroke-dasharray:none;" stroke-width="0.45346242" fill="#735600" d="m211.33,284.96-0.80702,18.077,2.9053,7.9089,2.7439-1.7755,4.6808,0.96843,3.3895-0.64562,3.5509,3.5509,6.779,3.8737-0.48422,4.1965,3.0667-0.16141,4.8422-0.96843,0.16141-5.6492-2.5825-3.0667-4.8422-1.2912,0-10.976-5.3264-3.3895-0.32281-5.3264-11.46-4.6808-0.16141-3.8737-3.3895,0.16141z"/>
    <path id="santiago" style="stroke-dasharray:none;" stroke-width="0.45346242" fill="#f5deb3" d="m209.23,299.48-2.9053,3.3895,0.96843,7.9089-0.96843,7.7474-2.2597,10.33,0.1614,6.2948-4.8422,9.6843-0.32281,9.0387,2.4211,0.96843-1.9369,9.2001-2.2597-1.1298-0.80703,9.8457,3.5509,8.0703,10.007,4.1965-0.48422-5.8106-7.2632-4.8422-2.9053-2.4211,4.3579-7.1018,0.48421-9.8457,1.6141-8.7159-0.64562-3.7123,3.0667-5.6492-1.9369-7.586,2.0983-5.165,3.2281-4.3579-0.64563-4.5194,2.0983-3.0667z"/>
    <path id="neuquen" style="stroke-dasharray:none;" stroke-width="0.45346242" fill="#e69138" d="m210.52,384.54,8.2317-0.80702-6.779-7.2632-0.64562-2.9053,6.2948-6.6176-0.64562-1.614-3.2281,0,0-3.3895,4.1965-1.2912,4.0351-5.165-2.9053-2.2597,5.8106-1.1298,0.1614-4.8422,8.0703-0.1614,2.9053-4.5194-26.309-5.0036-3.3895,5.165,1.1298,4.358-2.4211,8.3931-0.48422,10.491-3.8737,6.1334,9.3615,6.1334z"/>
    <path id="buenos_aires" style="stroke-dasharray:none;" stroke-width="0.45346242" fill="#ff1a00" d="m232.95,327.57-0.48422-2.2597,0-3.8737,0.96843-4.0351-9.6843-6.779-3.2281,0.64562-4.5193-0.96843-4.3579,5.3264,0.80702,4.6808-5.165,8.2317,1.7755,7.586,26.793,5.6492-2.4211-4.3579,0.48422-7.7474z"/>
    <path id="montevideo" style="stroke-dasharray:none;" stroke-width="0.45346242" fill="#f5deb3" d="m234.73,337.25,7.586,1.2912,2.9053-3.8737-2.2597-14.042-9.2001,2.0983z"/>
    <path id="paramaribo" style="stroke-dasharray:none;" stroke-width="0.45346242" fill="#735600" d="m229.4,240.73,0.48422,4.3579-2.4211,1.4526,0.48421,1.2912,1.4526,1.2912-0.96843,1.7755,2.5825,6.4562,7.586-0.80703,0.64562-2.4211,2.9053,0.1614,0.96843,1.2912,3.0667,0.16141,2.7439-4.8422-5.0036-4.1965-7.586-0.1614z"/>
    <path id="manaus" style="stroke-dasharray:none;" d="m221.17,252.03,6.1334-0.64562,3.1473,6.9075,8.7564-1.0167,1.493,9.7655,6.2948,3.5509,3.45,11.427-16.745,3.9878-3.0425,1.8742-1.8327,1.2744-8.7314-3.8652-2.1749-5.049-4.1878-0.21195-3.6882,4.7827-3.0402-0.39825-0.44614-3.6444-3.6736,0.76164-2.5645-4.5167,1.4022-3.5972-0.0386-2.246,6.6505-1.3214-0.56245-1.9522,2.1814-1.2726-0.29451-5.3481,3.2357-4.1321,4.4245,1.9232,4.8422-2.6462-0.97883-4.3885-0.01-0.002,0.0001-0.00018-0.00027-0.0004,0.00003,0z" fill-rule="nonzero" stroke-width="0.45346241999999998" fill="#dda0dd"/>
    <path id="brasilia" style="stroke-dasharray:none;" stroke-width="0.45346242" fill="#735600" d="m233.42,286.5-3.3289,3.1469,0.60529,5.1496,5.6492,4.5193-0.32281,9.8457,4.8422,1.1298,2.9053,4.3579,11.137-8.0703-4.2974-23.809-17.19,3.7304,0.00042,0z"/>
    <path id="belem" style="stroke-dasharray:none;" stroke-width="0.45346242" fill="#F00" d="m249.58,251.71-2.7439,5.0036-3.5509,0-3.0667-1.614,1.1298,10.814,7.2632,4.3579,1.7754,6.779,10.653-5.165,11.46-6.1334-6.9404-1.1298-6.9404-3.7123-5.0036,3.5509,2.2597-4.1965-4.6808,0-3.0667,3.2281,0.64562-2.9053,3.3895-2.9053,0-2.7439z"/>
    <path id="fortaleza" style="stroke-dasharray:none;" stroke-width="0.45346242" fill="#dda0dd" d="m273.79,265.75,1.7755,0,6.4562,4.6808,3.2281,0.96844,0.32281,9.8457-4.963,5.9863-12.82-18.36,5.99-3.13z"/>
    <path id="rio_de_janeiro" style="stroke-dasharray:none;" stroke-width="0.45346242" fill="#1c4587" d="m248.93,311.75,7.1018,5.4878,0,6.779-10.169,9.8457-1.7754-13.558-0.64562-4.6808z"/>
    <path id="sao_paulo" style="stroke-dasharray:none;" stroke-width="0.45346242" fill="#735600" d="m250.06,311.43,5.8106-3.7123,16.302,0.96843-2.0983,3.2281-6.2948,0.16141-7.1018,4.1965z"/>
    <path id="reykjavik" style="stroke-dasharray:none;" stroke-width="0.45346242" fill="#0AA" d="m228.85,75.883-26.022,6.8478,8.2174,6.8478,19.63-0.45652,13.239,8.2174,0.45652,11.87,10.5,13.239,12.326,4.5652,6.8478-13.239,10.957-0.91305,6.3913-5.9348,14.609-1.3696,5.4783,9.1305,5.4783,6.3913,15.065-4.1087,2.2826-6.3913-6.8478-2.7391-10.5,2.2826-5.4783-6.3913,5.0218-3.6522,0-4.5652,10.044-4.1087-5.9348-8.2174,19.174-6.8478-23.283-0.91305-13.239-4.5652z"/>
    <path id="longyearbyen" style="stroke-dasharray:none;" d="m396.5,87.136-9.1846,7.7202,12.954-3.1432,15.635-1.1835,12.553,3.1462-5.0114-6.2006-10.227-2.194-16.72,1.8548z" fill-opacity="0.94117647" stroke-width="0.45346242" fill="#a3ccff"/>
    <path id="torshavn" style="stroke-dasharray:none;" stroke-width="0.45346242" fill="#3d85c6" d="m362.7,119.67-13.397-2.2235-0.2772,5.3509,13.726,7.2526,5.3356-1.582,0.20692-4.7997-5.5935-3.9984z"/>
    <path id="visby" style="stroke-dasharray:none;" stroke-width="0.45346242" fill="#735600" d="m410.74,127.71-1.0531-3.0799-1.7754-2.0982-2.8608,0.17766-0.44402,5.4937,3.985,1.149,2.1484-1.6422z"/>
    <path id="douglas" style="stroke-dasharray:none;" stroke-width="0.45346242" fill="#fdff93" d="m345.76,145.51,4.7972-0.60922-2.9636,1.6247-1.6685,3.0107,11.958-3.0579,3.7142,1.4483-4.6727,1.1327-4.2732,0.0103-5.7339,2.0821,5.6393,2.267-2.6171,2.7468,0.28447,2.9245-8.7032,3.3839-7.6869-5.0201,11.926-11.944z"/>
    <path id="ajaccio" style="stroke-dasharray:none;" stroke-width="0.45346242" fill="#735600" d="m388.97,171.22-0.7504-3.6035-3.46-2.2803-3.0284-0.97879-3.8515,0.82032-0.70809,1.589,2.4031,2.4049,5.7079,1.7902,3.6873,0.25811z"/>
    <path id="gibralter" style="stroke-dasharray:none;" stroke-width="0.45346242" fill="#F00" d="m351.58,178.26,1.029,0.97879,2.4211,1.1313,5.865-2.406,3.444-0.66773,10.007-1.4409-1.5601-3.3778-13.797,4.977-7.4095,0.8053z"/>
    <path id="zagreb" style="stroke-dasharray:none;" stroke-width="0.45346242" fill="#735600" d="m394.37,160.34-1.729-1.3822-1.2812,1.2273,2.6328,2.4322,3.0293,1.9486,3.0446,1.5934,2.5449-0.27324-1.6856-1.7496-2.5451-1.697-4.0107-2.0996,0,0.00013z"/>
    <path id="valetta" style="stroke-dasharray:none;" stroke-width="0.45346242" fill="#735600" d="m399.96,179.4-2.6938,3.2606,7.4389,2.7498,1.7612-3.9894-6.5064-2.0209z"/>
    <path id="heraklion" style="stroke-dasharray:none;" stroke-width="0.45346242" fill="#735600" d="m421.13,178.03-0.91849-3.9239-3.255-0.0887-1.269,5.5247,3.3128-0.1378,2.1296-1.3744z"/>
    <path id="nicosia" style="stroke-dasharray:none;" stroke-width="0.45346242" fill="#735600" d="m437.53,182.05,2.7136,0.0966-0.0544-2.088-2.4009-0.12953-4.6768,0.15993,2.8206,2.1209,1.598-0.15993,0-0.00003z"/>
    <path id="sevestapol" style="stroke-dasharray:none;" stroke-width="0.45346242" fill="#735600" d="m433.57,157.43,1.269,1.617,2.7742,2.7483,6.0407-2.5781-1.2145-2.5781,3.0142-1.6214,1.8682,0.63826-1.269,2.5898-1.4526,2.2597,3.5506,1.6357,3.8054,4.0267-2.3364,0.49154-5.05-0.95664-4.9733-1.9457-3.7668-0.6412-2.2294,0.97731-3.0747,1.2824-3.4662-0.81288,0.12307-2.4284,2.7822-3.3939,3.6052-1.3104z"/>
    <path id="baku" style="stroke-dasharray:none;" stroke-width="0.45346242" fill="#735600" d="m476.22,155.79,1.6646,1.4917-3.5106,0.83171-2.3908,1.9852,2.2697,3.1068,3.1069,2.5578,0.52484,1.8886,0.66588,2.0582,2.3303,3.1243-0.33292,1.5379-2.7033,0.71862-2.068-1.0322-1.8864,0.17787-0.84745-2.2586,2.3403-3.4224-3.4801-3.5653-1.7151-3.6887,0.20188-1.5421,1.6153-2.0194,1.6829-0.85912,2.532-1.0909z"/>
    <path id="djibouti_city" style="stroke-dasharray:none;" stroke-width="0.45346242" fill="#735600" d="m436.18,196,2.5683,1.4806,0.92205-2.7616,4.1985,10.231,6.45,17.702-3.6425,2.3623-0.91656-1.7998,3.4303-2.4042-4.1474-12.01-8.8627-12.801z"/>
    <path id="manama" style="stroke-dasharray:none;" stroke-width="0.45346242" fill="#735600" d="m502.7,212.67-3.6721,5.1429,0.17375,3.074,7.1042,2.085,4.0938-2.5353,2.6914-2.6511,2.8064-1.1243-3.4056-5.473-6.4482-1.9869-3.3436,3.4687z"/>
    <path id="moroni" style="stroke-dasharray:none;" stroke-width="0.45346242" fill="#735600" d="m484.63,269.52-5.3684,3.9328-7.7152,3.7271-6.511-1.1491,0.2857-5.2461,4.7357-5.5825,6.1629-3.0327,6.0203,1.9925,2.3899,5.358z"/>
    <path id="port_blair" style="stroke-dasharray:none;" stroke-width="0.45346242" fill="#735600" d="m561.42,225.63,0.34787,4.7658,3.0044,4.4754,2.0612,5.4099,4.3445,0.99631,3.9604-3.6188-2.375-3.2468-1.579-3.5286-1.4976-2.8626-0.49936-1.387-1.6544-2.6096-1.8684-1.7491-4.045,0.7161-0.19974,2.6389,0-0.00004z"/>
    <path id="singapore" style="stroke-dasharray:none;" stroke-width="0.45346242" fill="#40e0d0" d="m595.91,251.67-2.2195-3.0412-0.00013,7.106-0.5648,2.0654,4.3173-0.94493-1.5328-5.1853z"/>
    <path id="sansha" style="stroke-dasharray:none;" stroke-width="0.45346242" fill="#735600" d="m618.03,227.16-9.038,0.98332-0.00072,11.702,9.2002-3.9319-0.1615-8.7529z"/>
    <path id="makassar" style="stroke-dasharray:none;" stroke-width="0.45346242" fill="#735600" d="m648.57,266.88-1.7341-11.778-6.5776-1.6162-3.2273,11.499,11.539,1.8956z"/>
    <path id="dalian" style="stroke-dasharray:none;" stroke-width="0.45346242" fill="#735600" d="m641.05,186.13,2.4019,4.8503-2.8854,3.5582-2.9659-4.9265-3.5512-5.7314,3.9949-1.7527,3.0057,4.0021z"/>
    <path id="yuzhno" d="m660.51,176.99,9.5274-7.4659-1.3035-9.9337-14.96,11.625,0.94546,5.2092,5.7909,0.56554z" style="stroke-dasharray:none;" stroke-width="0.45346242" fill="#735600"/>
    <path id="port_vila" style="stroke-dasharray:none;" stroke-width="0.45346242" fill="#735600" d="m694.17,292.48,0.76665,6.5837,2.5016,5.0375,5.5283,3.9375,8.3528,7.0042,3.3209,6.4142,9.5836-10.243,0.69267-4.9491-5.3252-3.1801-7.2228-4.0373-5.1246-5.3943-6.7385-5.6205-6.3353,4.4474z"/>
    <path id="unalaska" style="stroke-dasharray:none;" d="m-5.4284,82.337,12.018,9.807-6.504,3.857-8.4238,5.801-2.7575,10.95,7.5783,16.435,3.669,2.914-13.541,3.092,0.3326-53.76,7.6281,0.904z" fill-opacity="0.94117647" stroke-width="0.45346242" fill="#90ee9f"/>
    <path id="alert" style="stroke-dasharray:none;" stroke-width="0.45346242" fill="#71eeb8" d="m25.069,67.586-22.816,8.8657,84.148,2.9152,54.861-3.4802,20.019-4.5694,26.935-0.91305,40.979,1.822,6.0433,1.8302,68.022-5.9348,14.609,5.9348,145.63,0,52.044-3.6522,265.94,2.1592-55.48-13.578-700.93,8.5999z"/>
    <path id="ponta_delgada" style="stroke-dasharray:none;" stroke-width="0.45346242" fill="#735600" d="m241.18,169.47-29.604,11.458-1.7088,10.806,9.4808,4.5193,51.046-17.08,28.783-8.1283,17.994-0.67214-0.805-11.816-48.593,0.23023-26.593,10.683z"/>
    <path id="praia" style="stroke-dasharray:none;" stroke-width="0.45346242" fill="#735600" d="m287.06,187.01-7.5927,20.723,17.81,10.563,17.465-3.8318,5.7604-4.3844,9.37-17.094-3.0024-8.0039-23.385-8.9761-16.425,11.004z"/>
    <path id="jamestown" d="m224.49,382.8,40.035,0.84019,63.82-56.124,40.31-43.534,3.9831-14.681-10.421-3.5259-15.346,13.327-93.003,88.317-17.07,6.4137-12.309,8.9666z" style="stroke-dasharray:none;" stroke-width="0.45346242" fill="#a3ccff"/>
    <path id="tarawa" style="stroke-dasharray:none;" stroke-width="0.45346242" fill="#1c4587" d="m163.86,307.25-109.82,20.172,6.9119,45.676,76.923-20.163,24.861-7.69,9.0383-17.64-7.9138-20.355z"/>
    <path id="male" style="stroke-dasharray:none;" stroke-width="0.45346242" fill="#0AA" d="m550.98,320.93,12.222-17.911-2.4993-18.318-9.3131-12.835-1.1804-7.4817-11.135-15.754-6.1558-6.2802-5.8754-7.9752-4.708,10.885,4.9117,45.659,23.733,30.013z"/>
    <path id="suva" style="stroke-dasharray:none;" stroke-width="0.45346242" fill="#735600" d="m736.53,264.7-8.6014,4.8893-0.95949,15.045,7.3944,18.264,10.497,6.1246,16.062,7.2845,10.984-13.75,1.2775-34.55-36.655-3.3082,0.00059,0.0008z"/>
    <path id="saipan" d="m761.35,244.24-4.3088-18.38-59.03-27.136-33.619,3.7044-4.2402,10.502,16.892,33.565,54.362,9.5058,29.944-11.761z" style="stroke-dasharray:none;" stroke-width="0.45346242" fill="#0FF"/>
    <path id="puerto_baquerizo" style="stroke-dasharray:none;" stroke-width="0.45346242" fill="#0AA" d="m142.74,287.93,32.591-13.574,2.3423-19.79-90.716-16.268-23.308,23.851,24.29,40.704,54.802-14.924z"/>
    <path id="honolulu" style="stroke-dasharray:none;" stroke-width="0.45346242" fill="#71eeb8" d="m18.125,218.46,4.5193-2.5825-6.779-6.4562-7.7475-0.96843-1.6141,1.614,5.8106,3.5509z"/>
    <path id="socorro" style="stroke-dasharray:none;" stroke-width="0.45346242" fill="#735600" d="m125.74,230.61-17.066-20.442-22.808-18.453-32.877,13.437,33.717,24.82,39.034,0.63773z"/>
    <path id="petropavlovsk" d="m765.12,160.91-9.1084-24.304-45.06,14.188-5.1472,18.797,2.1561,10.608,46.933,17.857,10.227-37.146,0,0.0004z" style="stroke-dasharray:none;" stroke-width="0.45346242" fill="#4aa82c"/>
    <path id="dublin" style="stroke-dasharray:none;" stroke-width="0.45346242" fill="#a58855" d="m340.77,137.44-1.9369,5.972,1.1298,1.6141,8.5136-1.1771,0.14248-2.6657-7.8451-3.7433-0.004,0z"/>
    <path id="edinburgh" style="stroke-dasharray:none;" stroke-width="0.45346242" fill="#38761d" d="m346.74,127.91,7.9089-0.48422,3.8737,5.0036-6.2948,5.165-1.1298-2.9053-3.8737-1.7755z"/>
    <path id="cardiff" style="stroke-dasharray:none;" stroke-width="0.45346242" fill="#1c4587" d="m355.62,135.66,3.3895,5.0036-0.48421,5.0036-8.8773,2.2597,2.5825-3.3895-0.60515-2.0983,1.0894-4.6808,2.91-2.099z"/>
    <path id="london" style="stroke-dasharray:none;" stroke-width="0.45346242" fill="#38761d" d="m359.82,141.47,3.8737-1.9369,3.3895,0.96843-2.4211,5.165-5.6492-0.1614z"/>
    <path id="manchester" style="stroke-dasharray:none;" stroke-width="0.45346242" fill="#735600" d="m358.2,133.24-2.2597,2.4211,3.7123,5.165,4.0351-2.0983z"/>
    <path id="oslo" style="stroke-dasharray:none;" stroke-width="0.45346242" fill="#735600" d="m374.18,118.71,14.849-3.5509,10.007-10.653,25.663-4.8422,7.7474,1.9369-5.3264,3.0667-2.0983-1.6141-4.8422-0.32281-1.9369,2.7439-7.7474-0.48422-4.358,1.2912-6.779,2.4211-7.2632,7.4246-2.9053,1.9369,0.16141,4.3579,0.64562,2.4211-9.2001,6.4562-5.8106-2.4211z"/>
    <path id="stockholm" style="stroke-dasharray:none;" stroke-width="0.45346242" fill="#FFF" d="m386.61,128.56,4.6808,7.2632,2.2597-0.1614,0.80703-2.2597,4.1965-0.80703,0.64562-5.0036,4.8422-2.4211-3.8737-1.4526,0.80703-5.0036,6.9404-2.0983,3.5509-4.5193,4.1965-1.6141-1.1298-3.8737-3.8334-1.0487-10.532,3.4697-10.33,9.3615,0.16141,4.0351,0.96843,2.5825-4.38,3.552z"/>
    <path id="copenhagen" style="stroke-dasharray:none;" stroke-width="0.45346242" fill="#a58855" d="m385.64,129.04-5.6492,3.0667,0.80703,6.6176,4.1965-1.6141,3.5509,0.96843,4.8422,0-0.96843-1.9369-2.0983-0.32281z"/>
    <path id="helsinki" style="stroke-dasharray:none;" d="m414.54,105.8,4.8422,0,1.6141-2.2597,4.8422,0.48422,0.96843,2.0983,2.7439,2.0983-1.7754,1.7755,1.2912,4.6808,1.614,2.5825,1.9369,1.9369-6.6176,3.7123-9.2001,1.9369-4.6808-1.4526-1.6746-4.0834,8.2922-5.1167-0.32281-2.7439-2.0983,0-0.48421-3.5509-1.28-2.098z" fill-opacity="0.94117647" stroke-width="0.45346242" fill="#90ee9f"/>
    <path id="amsterdam" style="stroke-dasharray:none;" stroke-width="0.45346242" fill="#c0c0c0" d="m379.03,139.21-5.165,1.1298-1.7754,3.7123,4.0351,1.7755,2.9053-3.8737z"/>
    <path id="brussels" style="stroke-dasharray:none;" stroke-width="0.45346242" fill="#c0c0c0" d="m367.08,144.86,4.6808-0.32281,4.8422,2.0983,0.48422,2.9053-7.4246-2.2597z"/>
    <path id="picardy" style="stroke-dasharray:none;" stroke-width="0.45346242" fill="#05edff" d="m366.44,146.15,1.7755,0,1.9369,2.0983,2.9053,0.48422-2.5825,1.7755-9.2001,0.80703-0.96844-1.9369,5.6492-1.2912z"/>
    <path id="nantes" style="stroke-dasharray:none;" stroke-width="0.45346242" fill="#735600" d="m360.63,151.96-0.32281-2.0983-8.0703,0.96843,0.80703,1.7755,4.3579,1.9369,2.0983,2.4211,2.5825,0.1614,0.80703-5.4878z"/>
    <path id="bordeaux" style="stroke-dasharray:none;" stroke-width="0.45346242" fill="#c0c0c0" d="m362.72,155.35-0.48421,2.2597-3.0667-0.1614,0,4.6808,1.614,1.614,2.0983,0,2.0983-3.2281-0.48422-4.8422z"/>
    <path id="paris" style="stroke-dasharray:none;" stroke-width="0.45346242" fill="#1c4587" d="m363.53,151.8,0,3.0667,1.7755,0.48422,0.48421,2.9053,4.5194,0,0.1614-7.2632z"/>
    <path id="marseilles" style="stroke-dasharray:none;" stroke-width="0.45346242" fill="#004d4d" d="m366.6,159.06-3.0667,4.8422,5.0036,0.16141,2.2597-2.2597,3.2281-0.16141,1.614,1.1298,3.4703-1.0487-0.40357-4.4391-2.4211-1.9369-1.9369,2.2597-7.7474,1.4527z"/>
    <path id="strasbough" style="stroke-dasharray:none;" stroke-width="0.45346242" fill="#674ea7" d="m371.12,150.99,0,6.2948,2.2597-0.32281,2.7439-2.4211,3.0667-1.9369-0.32281-2.5825-4.8422-0.64562z"/>
    <path id="bilbao" style="stroke-dasharray:none;" stroke-width="0.45346242" fill="#b8d73c" d="m341.9,163.26,1.2912,3.5509,5.972-0.32281,11.783-0.1614,5.6492-2.0983-6.1334,0-2.5825-2.0983z"/>
    <path id="lisbon" style="stroke-dasharray:none;" stroke-width="0.45346242" fill="#b8d73c" d="m342.39,167.78,0.32281,2.9053-1.2912,2.2597,1.1298,0.32281,0.1614,3.0667,4.1965,0.32281-0.48422-6.4562,2.4211-3.2281z"/>
    <path id="madrid" style="stroke-dasharray:none;" stroke-width="0.45346242" fill="#b8d73c" d="m350.13,167.29,10.814-0.80702-4.0351,8.5545-9.5229-0.64563-0.16141-3.2281z"/>
    <path id="cordoba" style="stroke-dasharray:none;" stroke-width="0.45346242" fill="#674ea7" d="m347.71,174.88,10.491,0.96843-0.16141,0.96843-7.586,0.64562-0.96843,0.96844-1.7754-1.7755z"/>
    <path id="barcelona" style="stroke-dasharray:none;" stroke-width="0.45346242" fill="#F90" d="m361.11,166.81,5.3264-1.7755,2.9053-0.64562-0.32281,1.4526-7.4246,4.3579,1.2912,2.5825-4.0351,3.7123-0.96843-1.7755z"/>
    <path id="hamburg" style="stroke-dasharray:none;" stroke-width="0.45346242" fill="#004d4d" d="m379.67,139.53,0.16141,3.3895,7.4246-0.32281,1.1298-4.1965-2.9053-0.80703z"/>
    <path id="cologne" style="stroke-dasharray:none;" stroke-width="0.45346242" fill="#674ea7" d="m379.19,143.25-2.0983,2.4211,0.48422,3.3895,1.9369,0.32281,0.1614,1.7755,3.8737-2.0983z"/>
    <path id="munich" style="stroke-dasharray:none;" stroke-width="0.45346242" fill="#1c4587" d="m379.67,151.64,0.64562,1.4526,9.3216-0.29094,2.3-1.9687-2.7439-3.3895-4.8422,1.9369-4.69,2.26z"/>
    <path id="frankfurt" style="stroke-dasharray:none;" stroke-width="0.45346242" fill="#a58855" d="m380.8,143.89,3.3895,5.165,4.3579-2.2597-1.2912-3.5509z"/>
    <path id="berlin" style="stroke-dasharray:none;" stroke-width="0.45346242" fill="#40e0d0" d="m389.19,138.73,5.165,0.1614,0,3.3895-0.00001,2.7439-1.9369,0.96843-2.9053,0.64562-1.4526-3.2281z"/>
    <path id="zurich" style="stroke-dasharray:none;" stroke-width="0.45346242" fill="#85200c" d="m379.03,153.25,8.1835-0.12511,0.28433,2.3848-3.4644,1.4526-3.2281-0.48422-1.2912,1.2912-2.5825-3.0667,2.0983-1.4525,0.00003-0.00006z"/>
    <path id="milan" style="stroke-dasharray:none;" stroke-width="0.45346242" fill="#85200c" d="m379.19,158.26,0.1614,3.2281,2.9053-1.1298,1.4627-0.61376,0.79699-2.2915-3.3895-0.48422-1.9369,1.2912z"/>
    <path id="florence" style="stroke-dasharray:none;" stroke-width="0.45346242" fill="#F90" d="m383.45,160.9,2.522,1.8721,1.2307-1.5482-0.0544-4.5808-1.826,0.43738-0.98461,2.738-0.464,0.85529-0.42369,0.22618,0.00001,0.00002z"/>
    <path id="venice" style="stroke-dasharray:none;" stroke-width="0.45346242" fill="#F90" d="m387.9,161.64,0.10082-2.1466,0.0989-3.3353,6.095-0.65148-0.48422,2.2597-2.2294,0.16245-1.3417,0.64562-0.46405,1.9358,1.2912,1.4526,1.7755,1.4526,2.6128,2.0418-0.78681,0.62198-6.67-4.43,0.002-0.009-0.00012-0.00015z"/>
    <path id="rome" style="stroke-dasharray:none;" stroke-width="0.45346242" fill="#1c4587" d="m387.56,161.83-1.5938,1.2676,4.6957,3.3271,3.8588,2.3221,0.80702-1.7755-4.0402-2.6742-3.7275-2.4672-0.00002,0z"/>
    <path id="naples" style="stroke-dasharray:none;" stroke-width="0.45346242" fill="#af125a" d="m395.82,167.02-0.97841,1.8886,2.7439,1.9369-0.64563,2.7439-6.6176,1.1298,0.1614,1.1298,5.6492,1.9369,0.1614-2.9053,2.7439-0.16141,1.4526-2.5825-1.2912-1.7755,1.1298-1.2912,2.2597,1.4526,1.2912-0.80703-2.1588-1.8967-6.0729-2.1384-0.80703,0.48422,0.97847,0.85533z"/>
    <path id="g_dansk" style="stroke-dasharray:none;" stroke-width="0.45346242" fill="#9c3108" d="m395.01,139.21,5.165-2.2597,4.3579,0.32281,3.2281,0.80703,3.3895,0.32281,0.32281,2.0983-16.463,0.96843z"/>
    <path id="wronclaw" style="stroke-dasharray:none;" stroke-width="0.45346242" fill="#ee82ee" d="m395.05,141.81,0.7667,3.0513,3.3895,1.6141,2.7439,0,2.0983-5.165-8.9984,0.49958z"/>
    <path id="warsaw" style="stroke-dasharray:none;" stroke-width="0.45346242" fill="#F00" d="m412.6,139.05,3.3895,1.4526-0.1614,1.4526-1.1298,2.0983,0.80703,1.9369-11.783-1.4526,1.1298-2.9053,7.4246-0.32281z"/>
    <path id="krakow" style="stroke-dasharray:none;" stroke-width="0.45346242" fill="#735600" d="m403.08,144.86-0.80702,2.5825,4.1965,2.0983,6.1334,0.1614,2.5825-2.9053z"/>
    <path id="prague" style="stroke-dasharray:none;" stroke-width="0.45346242" fill="#00bfff" d="m395.49,145.35-5.972,2.0983,2.9053,2.7439,1.6746,0.35468,1.7149-0.35468,6.9404,0.1614-0.32281-2.4211-3.8737-0.96843-3.07-1.614z"/>
    <path id="vienna" style="stroke-dasharray:none;" stroke-width="0.45346242" fill="#004d4d" d="m392.91,151.32-4.126,2.4107,0.0618,1.716,5.5169-0.4144,4.0351-0.1614,2.4211-2.5825,0-1.6141-5.3264,0-2.5825,0.6457z"/>
    <path id="bratislavia" style="stroke-dasharray:none;" stroke-width="0.45346242" fill="#735600" d="m401.46,151.16,1.614,1.6141,4.5194-0.96843,4.8422-0.32281,0.64562-1.2912-6.4562-0.1614-3.0667-1.2912-0.32281,1.6141z"/>
    <path id="vilnius" style="stroke-dasharray:none;" stroke-width="0.45346242" fill="#9c3108" d="m408.49,137.58,3.7526,1.1298,4.2371,0.82248,5.3264-4.1965-3.3895-2.1949-9.0387-0.0648-0.3229,3.7123-0.56497,0.7916z"/>
    <path id="riga" style="stroke-dasharray:none;" stroke-width="0.45346242" fill="#735600" d="m411.63,130.33,4.4386,1.501,0.72638-2.7922-1.9369-2.0983,10.653-0.96843-1.7754,4.0351,1.1298,3.7123-3.8737,0.32281-2.4211-1.9369-1.7755,0.80703-7.1018-0.32281,1.94-2.26z"/>
    <path id="minsk" style="stroke-dasharray:none;" stroke-width="0.45346242" fill="#735600" d="m422.44,135.02,8.2317-1.3242,4.5799,7.2807-2.7844,1.5164-8.7361,2.05-7.4246-1.4526,0.16141-2.5825,5.98-5.487-0.008-0.0008z"/>
    <path id="chisinau" style="stroke-dasharray:none;" stroke-width="0.45346242" fill="#00bfff" d="m425.99,145.18,0.96843,6.779,2.7439,3.3895-2.2597,3.5509-3.3895-1.4526,0.48421-3.5509-3.0667-2.7439-8.3931,0.80703,0.64562-2.4211,2.5825-2.0983,0-3.7123z"/>
    <path id="budapest" style="stroke-dasharray:none;" stroke-width="0.45346242" fill="#d2b48c" d="m399.52,155.19,1.9369-2.9053,1.4526,0.80703,9.3615-1.2912-0.1614,1.2912-3.2281,3.2281-4.0351,0.32281-2.5622,0.75871-2.76-2.212z"/>
    <path id="ljubljana" style="stroke-dasharray:none;" stroke-width="0.45346242" fill="#9c3108" d="m398.88,155.67-4.1965-0.32281-0.48421,2.4211,2.5825,2.7439,5.0036,2.5825-1.9369-3.7123,2.6228-1.356-3.58-2.352z"/>
    <path id="sarajevo" style="stroke-dasharray:none;" stroke-width="0.45346242" fill="#735600" d="m403.4,157.61,1.9369,0.64562,0.32281,3.8737,1.7755,1.9369-1.4526,1.4526-3.0667-2.2597-2.3405-3.7288,2.82-1.924z"/>
    <path id="tirana" style="stroke-dasharray:none;" stroke-width="0.45346242" fill="#df3c33" d="m405.82,166.65-0.1614,3.8737,3.2281,3.0667,1.9369-1.7755-0.64563-4.0351,0.80703-1.7755-2.7439-2.2597z"/>
    <path id="belgrade" style="stroke-dasharray:none;" stroke-width="0.45346242" fill="#df3c33" d="m405.66,156.97,3.5509,0,5.0036,4.1965-1.4526,3.7123-2.7439,0-3.5509-2.7439z"/>
    <path id="bucharest" style="stroke-dasharray:none;" stroke-width="0.45346242" fill="#735600" d="m413.08,152.77,7.586-0.96843,2.9053,1.7755-0.48422,3.7123,3.2281,1.7755-1.1298,2.7439-5.165-0.48422-2.2597,1.4526-2.2597-0.48422-5.4878-5.6492,3.0667-3.2281z"/>
    <path id="sofia" style="stroke-dasharray:none;" stroke-width="0.45346242" fill="#df3c33" d="m414.54,162.45-1.6141,3.3895,2.7439,1.4526,3.4499,1.1309,5.3064-2.6154,0.28235-3.1962-4.358-0.48421-2.2597,1.4526-3.55-1.12z"/>
    <path id="athens" style="stroke-dasharray:none;" stroke-width="0.45346242" fill="#1c4587" d="m411.47,166.48,1.1298-0.16141,4.1965,1.7755-3.3895,1.7755,2.2597,5.3264-2.7439,2.2597-3.2281-1.4526-0.32281-1.9369,2.4211-2.2597-1.1298-3.5509z"/>
    <path id="odessa" style="stroke-dasharray:none;" stroke-width="0.45346242" fill="#e6e6fa" d="m428.25,151.96,7.7474-1.9369,14.526,2.7439-3.8737,0.96843-6.779,2.7439,2.0983,1.9369-4.0351,1.6141-1.9369-2.9053-2.5825-2.9053-2.7439,1.9369z"/>
    <path id="kiev" style="stroke-dasharray:none;" stroke-width="0.45346242" fill="#e6e6fa" d="m426.58,144.33,8.2922-2.2114,2.7439-0.1614,3.2281,3.2281,6.4562,2.2597,4.5194,0.96843-1.4526,3.3895-14.042-2.2597-8.2317,1.7755-1.5135-6.9887z"/>
    <path id="fes" style="stroke-dasharray:none;" stroke-width="0.45346242" fill="#39a78e" d="m349.33,180.2,3.0667,1.6141,5.6492,0.1614,1.1298,3.8737,0.32281,2.7439-4.6808-0.80703-0.96844,3.3895-4.1965,1.614-6.1334,2.4211-0.16141,2.4211-10.491,0.64562,1.2912-1.614,3.2281-0.32281,3.8737-4.0351,0.32281-4.8422,7.2632-5.0036z"/>
    <path id="arkhangelsk" style="stroke-dasharray:none;" stroke-width="0.45346242" fill="#b6d7a8" d="m493.06,105.32,11.579-0.51404-0.52557,9.3269-4.076,5.3523-65.486,0.19327-5.4878-8.3931,2.5825-2.5825-2.9053-2.5825,4.5193-4.1965,21.628,5.4878,27.88-0.9334,10.291-1.1581,0.0005-0.00017-0.00004,0z"/>
    <path id="saint_petersburg" style="stroke-dasharray:none;" stroke-width="0.45346242" fill="#0F0" d="m427.12,123.88-1.614,4.8422,9.6843-0.32281,7.4652-7.5542-9.73-0.516-5.81,3.551z"/>
    <path id="ryazan" style="stroke-dasharray:none;" stroke-width="0.45346242" fill="#FF0" d="m424.7,129.79,2.0984,3.1315,4.8422,0,4.5597,7.9407,6.4159,4.0033,4.5194,0.96843,5.165-6.1334-12.912-13.881-3.2684,3.518-11.42,0.45252z"/>
    <path id="moscow" style="stroke-dasharray:none;" stroke-width="0.45346242" fill="#1c4587" d="m443.91,121.3-3.2281,4.1965,13.235,13.881,12.912-4.5193,6.4562-13.881z"/>
    <path id="astrakhan" style="stroke-dasharray:none;" stroke-width="0.45346242" fill="#FF0" d="m452.47,150.48-5.6491,8.9069,9.3615,3.5509,6.779,1.2912,4.8422,2.9053,2.2597-0.64562-2.2597-3.8737-2.2597-2.9053,3.188-2.6791,0.12078-2.6133,0.12137-3.2897-16.504-0.64755z"/>
    <path id="kazan" style="stroke-dasharray:none;" stroke-width="0.45346242" fill="#0F0" d="m474.58,120.65-5.4878,13.235,7.1018,9.6843,6.4562,0.32281,3.2281,2.5825,4.8422-1.6141,6.779,1.2912-1.614-2.5825,2.9053-5.4878,10.653-0.32281,6.45-3.227-15.26-13.897-26.06,0.017z"/>
    <path id="novosibirsk" style="stroke-dasharray:none;" stroke-width="0.45346242" fill="#84de02" d="m554.75,128.56-13.961-1.065,0.12098,17.788,4.6808,2.4859,0.96843-1.9369,10.33,2.9053,8.0703-2.2597,6.779-0.64562,4.8422,1.5911,2.8661-2.3542,2.2988-1.8194,7.4246,0.64562,2.9053,1.9369,7.2634-6.0039-11.58-7.943-12.1-1.29-10.17-0.904-10.74-1.131z"/>
    <path id="krasnoyarsk" style="stroke-dasharray:none;" stroke-width="0.45346242" fill="#84de02" d="m552.33,92.402-14.529,1.6367,4.0758,17.596-0.56305,7.9471,0,7.3302,47.757,4.0149,10.545,8.102,7.855-9.5738,0.13996-6.9414-10.695-8.0598,7.9904-26.868-20.863-0.93133-8.6338,1.1638-17.228,2.8087-5.8513,1.7738-0.001,0.00033-0.00003,0z"/>
    <path id="yakutsk" style="stroke-dasharray:none;" stroke-width="0.45346242" fill="#e69138" d="m594.99,146.47,6.779,0.64562,1.614,2.5825,9.3615-1.2912,2.5825-2.2597,4.1965,2.2597,7.4246-1.9369,2.5825-4.5193,12.267-1.9369,11.621-20.337,20.66-20.337-17.755-0.96843-2.9053,3.5509-6.4562-4.1965,0.36328-3.6805-10.143-2.1026-4.3438,3.3301c-3.9126,0.1647-13.192-1.3741-17.105-1.8074l-0.73088-5.6256-7.8686,0.09869-7.95,24.993,9.2181,8.5153,1.8369,7.3736-15.215,17.649h-0.02l-0.014,0.00082z"/>
    <path id="vladivostok" style="stroke-dasharray:none;" stroke-width="0.45346242" fill="#F0F" d="m643.41,141.96,2.2597,6.1334,3.5509,0.32281,4.8422,3.8737,7.1018-1.2912-3.5509,7.4246-2.5825,0-0.32281,3.5509,4.8422,0.64562,12.59-11.621,0.32281-4.5193,3.5509-4.1965-1.2912-2.2597-2.5825-1.2912-8.9671-1.4087,11.915-10.037,28.183-1.1441,6.1322-4.2424,6.9911,0.12421,7.1018-3.5968,1.9855,2.935-17.048,10.784,1.3533,12.965c9.8494-3.745,11.632-10.851,14.469-17.518l15.271-3.2874,18.427-6.0131,6.0942-6.2279,8.7255,3.7298-0.0162-10.101-12.224-2.1093-33.192-0.68363-9.0387,0.32281-4.8422-2.5825-13.558-0.32281-12.267-3.2281-12.912,3.2281-20.014,20.66-11.3,20.982z"/>
    <path id="algeirs" style="stroke-dasharray:none;" stroke-width="0.45346242" fill="#40e0d0" d="m358.5,181.56,6.3913-3.6522,15.978-0.91305,0,4.5652-1.1413,2.9674,4.5652,5.0218,0,4.5652-23.739-5.9348z"/>
    <path id="tunis" style="stroke-dasharray:none;" stroke-width="0.45346242" fill="#39a78e" d="m381.1,177,2.7391-0.45652,2.7391,1.3696-0.45653,4.1087-1.3696,2.2826,2.5109,1.5978,0.45652,1.3696-2.5109,3.1957-4.5652-5.9348,1.1413-3.8804z"/>
    <path id="bamako" style="stroke-dasharray:none;" stroke-width="0.45346242" fill="#1c4587" d="m337.5,224.93,13.239,0.22826-1.5978-13.011-0.22826-8.4457,0-2.5109-5.0218-2.5109,0.68478-2.7391,9.8152-4.1087,17.576,25.109-0.45652,7.5326-10.272,2.0544-8.2174,4.337-2.9674,6.3913-4.5652-0.22826-2.7391-4.5652-4.7935,0.68479-2.7391-3.8804,0.22826-1.8261z"/>
    <path id="nouakchott" style="stroke-dasharray:none;" stroke-width="0.45346242" fill="#735600" d="m324.72,212.61,2.7391,5.0218-0.91304,4.7935,3.4239-0.22827,5.25,4.1087,1.5978-2.2826,13.467,0.45652-2.7391-11.413,0.45653-10.957-5.25-3.8804-10.044,0.91304z"/>
    <path id="ouargla" style="stroke-dasharray:none;" stroke-width="0.45346242" fill="#fdff93" d="m355.76,188.41,28.989,6.1631,33.119,7.3023-0.13137,7.8777-1.3138,3.5401-16.548-4.762-8.2882,6.9401-0.41231,5.2-7.6543,1.4826-10.468-0.49401,0.51074-4.9441-18.717-25.109,0.91387-3.1963-0.00002-0.0005,0.00039,0.00001-0.00016,0z"/>
    <path id="tripoli" style="stroke-dasharray:none;" stroke-width="0.45346242" fill="#39a78e" d="m388.63,185.67,5.4783,0.68478,8.6739,4.7935,3.6522,1.3696-0.45653,5.7065-20.772-4.5652,1.1413-3.6522z"/>
    <path id="benghazi" style="stroke-dasharray:none;" stroke-width="0.45346242" fill="#d2b48c" d="m407.35,191.15,0.22826-4.1087,5.9348-0.91305,4.1087,2.5109,0.45652,12.326-11.641-2.5109z"/>
    <path id="alexandria" style="stroke-dasharray:none;" stroke-width="0.45346242" fill="#000" d="m418.53,188.87,5.7065,1.5978,5.4783-0.22826,0.91304,5.4783-11.87-1.5978z"/>
    <path id="suez" style="stroke-dasharray:none;" stroke-width="0.45346242" fill="#e0ffff" d="m439.08,188.64,1.5978,4.7935-2.5109-1.5978,0,4.337-5.4783-3.8804,9.1305,15.294-4.337,3.4239-2.0544-0.91304-3.8804-14.38-1.5978-5.7065,2.5109-1.1413,4.5652,1.1413z"/>
    <path id="cairo" style="stroke-dasharray:none;" stroke-width="0.45346242" fill="#1c4587" d="m423.55,195.94,0.68478,9.3587,8.4457-0.68478-1.3696-7.9892z"/>
    <path id="aswan" style="stroke-dasharray:none;" stroke-width="0.45346242" fill="#e0ffff" d="m418.76,195.49,3.4239,0,1.5978,10.957,9.587-0.45652,2.2826,4.1087-17.12,0.22826z"/>
    <path id="monrovia" style="stroke-dasharray:none;" stroke-width="0.45346242" fill="#85200c" d="m325.86,223.11-1.3696,3.1957,0,4.7935,7.7609,7.0761,2.7391,4.1087,10.728,8.4457,3.1957-2.0544,6.8478-1.3696,1.3696-8.4457-4.7935-1.5978-6.6196,0.68479-3.8804-4.1087-4.5652,0-3.1957-4.337,0.22826-2.9674-5.0218-3.4239z"/>
    <path id="accra" style="stroke-dasharray:none;" stroke-width="0.45346242" fill="#735600" d="m356.44,248.22c0-0.91304,2.2826-10.272,2.2826-10.272l-7.0761-2.0544,2.5109-4.337,9.1305-4.5652,7.5326-1.5978,4.337,4.337-3.8804,3.4239-0.45653,4.7935-2.7391,3.1957v4.337l-8.6739,3.6522z"/>
    <path id="lagos" style="stroke-dasharray:none;" stroke-width="0.45346242" fill="#00F" d="m369.46,244.34,0-3.4239,2.0544-2.2826,0.22826-4.1087,18.489,5.7065-1.8261,5.4783-3.1957-1.1413-2.9674,3.8804,0,1.3696-6.3913,0.22827-2.5109-4.337z"/>
    <path id="kano" style="stroke-dasharray:none;" stroke-width="0.45346242" fill="#735600" d="m375.77,229.83-3.3483,4.0019,17.804,5.7065,2.2826-2.0544-0.88224-16.345-7.3742,1.6934-10.877-0.49531-1.2088,3.2144,3.6043,4.2786z"/>
    <path id="douala" style="stroke-dasharray:none;" stroke-width="0.45346242" fill="#735600" d="m383.61,250.27,1.5978-4.5652,4.5652,0.68478,2.2826-7.5326,5.4783,4.7935,7.7609-2.0544,11.379,1.0746,2.5109,1.8511,3.0015,3.6939-7.9892,1.5978-3.1957,1.3696-5.4783-2.9674-2.0544,3.6522,0.22826,2.7391-3.4239,7.9892-1.8261,5.7065-4.5652,2.0544-5.4783-0.22826-6.1631-7.3044,2.7391-7.7609-1.37-4.78z"/>
    <path id="kinsasha" style="stroke-dasharray:none;" stroke-width="0.45346242" fill="#71eeb8" d="m389.31,271.73,9.8152-2.5109,5.7065-14.152,0-2.7391,0.91304-2.7391,4.8049,2.7412,10.891-3.1914,8.8252,2.4942,1.0442,4.5756-2.5109,3.1957,0.45652,3.6522,1.3696,3.8804-1.8261,5.4783,2.9674,6.1631-4.1087,0.68479-1.5978,6.6196,2.0544,3.1957-1.8261,1.1413-3.8804-3.1957-5.9348-1.8261-4.7935-0.22826-1.1413-3.8804,0-5.25-4.7935,0.22826,0,2.5109-5.0218-0.68478-1.5978-3.6522-8.9022-0.22826-0.92-2.28z"/>
    <path id="windhoek" style="stroke-dasharray:none;" stroke-width="0.45346242" fill="#e69138" d="m390.46,275.61,7.9892-0.22826,2.2826,3.4239,5.4783,1.3696,0.91305-2.9674,2.2826-0.45652,1.8261,9.587,4.7935-0.22826,0,3.4239-4.5652,0,0.45652,7.5326,2.2826,2.2826-0.45653,1.5978-3.8804,0.22826-0.22826,7.7609-2.5109,0.22826-0.0328,13.593-2.0001,2.0418-3.511-1.2523-4.3584-1.7089-1.2825-5.8259-0.91305-5.25-5.4783-9.1305,0-7.9892,4.337-7.5326,0-3.1957-3.1957-3.1957-0.22-4.08z"/>
    <path id="cape_town" style="stroke-dasharray:none;" stroke-width="0.45346242" fill="#170a51" d="m397.76,322.86,7.5326,2.5109,2.5109-2.7391-0.22827-6.1631,4.5652,3.4239,3.4712,2.2258,8.8882,7.9204,3.0102,2.2951-4.4126,3.9935-11.185,0-1.3696,1.3696-7.9892-1.8261,0-6.3913-4.8-6.62z"/>
    <path id="johanesburg" style="stroke-dasharray:none;" stroke-width="0.45346242" fill="#000" d="m413.54,317.72-1.1267,1.2976,3.8584,2.5197,19.388-0.26367-0.29385-2.9904-3.13-7.5284-6.8478-0.91305-5.25,6.6196-0.22827,1.3696-6.3699-0.11104,0.00012,0.00006z"/>
    <path id="harare" style="stroke-dasharray:none;" stroke-width="0.45346242" fill="#1c4587" d="m408.03,309.85,2.2826,0,0.22826-7.7609,4.7935-1.3696,0.45653-1.5978-2.7391-2.5109-0.45652-5.4783,3.8804-0.68478,0.68479-4.1087,4.337,0.91305,4.7935,4.1087,2.7391-2.2826-2.0544-3.4239,1.3696-5.4783,4.1087-0.68478,3.4239,1.5978,3.6522,0.68478,0.68479,4.337-0.45653,5.25,2.7391,1.8261-1.3696,4.1087-3.1957-3.1957-2.2826-2.5109-5.0218,2.0544,0.22826,2.0544,4.337,1.8261,0.91305,7.7609-2.9674,5.0218-7.5326-1.3696-5.4783,6.8478-0.68479,1.5978-6.3913,0-1.5978,0.91305-3.6522-2.2826z"/>
    <path id="quelimane" style="stroke-dasharray:none;" stroke-width="0.45346242" fill="#735600" d="m441.36,286.79,4.337-0.68478,4.1087-0.91305,1.1413-3.1957,1.3696,13.239-11.641,8.9022,1.1413,10.957-6.3913,2.5109-1.8261-5.9348,3.1957-6.1631-0.68478-7.7609-3.6522-2.5109-1.1413-1.5978,4.1087-0.91305,6.1631,5.7065,1.8261-5.25-3.1957-2.7391z"/>
    <path id="antananarivo" style="stroke-dasharray:none;" d="m472.63,286.56,2.2826,8.4457-8.4457,22.37-5.9348-0.68478-2.0544-6.8478,4.1087-5.25-2.0544-3.4239,0-3.6522,7.3044-4.5652z" fill-opacity="0.94117647" stroke-width="0.45346242" fill="#90ee9f"/>
    <path id="nairobi" style="stroke-dasharray:none;" stroke-width="0.45346242" fill="#735600" d="m431.31,252.1,6.3913-1.1413,3.4239-2.9674,5.7065,3.8804,7.5326-1.1413-0.45653,12.783-5.4783,8.4457-16.891-6.163-1.3696-5.9348,2.2826-3.8804-1.13-3.89z"/>
    <path id="khartoum" style="stroke-dasharray:none;" stroke-width="0.45346242" fill="#735600" d="m442.27,208.95,2.9674,3.4239,0.22826,5.25,2.5109,3.1957-3.4239,2.0544,0,4.7935-4.7935,8.2174-3.033-2.5025-1.304-2.0627-2.5109,1.1413,0.68478,2.7391-2.5109,1.8261-2.2826-0.91305-1.3696-25.109,8.2174-0.22826,2.5109,0.68478,4.09-2.51z"/>
    <path id="al-fashir" style="stroke-dasharray:none;" stroke-width="0.45346242" fill="#ff1a00" d="m417.85,211.24,8.9022-0.22826,1.5978,25.337-0.91305,1.8261-5.7065,0.45652-2.9674-2.7391-2.2826,3.1957-3.8804-7.5326,2.5109-7.0761z"/>
    <path id="juba" style="stroke-dasharray:none;" stroke-width="0.45346242" fill="#735600" d="m434.28,232.25,5.0218,4.3266,0,3.6522-2.7391,1.8261,3.6522,4.337-2.9674,4.1087-6.8478,0.45652-7.0761-2.2826-6.3913-8.6739,2.0544-2.5109,3.1957,2.7391,5.4783-0.45652,2.0544-2.7391,2.7391,1.5978,1.3696-1.8261,0.4562-4.5549z"/>
    <path id="mogadishu" style="stroke-dasharray:none;" stroke-width="0.45346242" fill="#735600" d="m450.52,224.27,8.8738,12.301,17.348-2.0544-1.5978,5.25-6.6196,11.413-13.696,12.326,0.22826-13.467,7.3044-1.1413,6.1631-6.6196-10.728-5.0218-2.7391-2.9674-5.25-6.6196-4.5652,0.45652,3.2244-2.2579,2.0537-1.5974z"/>
    <path id="addis_ababa" style="stroke-dasharray:none;" stroke-width="0.45346242" fill="#735600" d="m444.78,229.27,4.5652-0.45652,9.3587,10.044,8.6739,3.6522-5.4783,6.1631-5.9348,0.68478-8.6739,1.8261-5.25-4.337-4.5652-4.7935,2.5109-1.3696,1.1413-4.7935z"/>
    <path id="istanbul" style="stroke-dasharray:none;" stroke-width="0.45346242" fill="#1c4587" d="m419.9,168.55,5.0218-2.2826,3.4239,1.8261,4.7935-1.1413-0.087,3.2165-10.869,1.8052-2.27-3.44z"/>
    <path id="izmir" style="stroke-dasharray:none;" stroke-width="0.45346242" fill="#e6e6fa" d="m421.97,172.45,4.4498-0.45861,2.0971,2.1935,8.0882,2.307,1.7241,1.8721-2.1413,0.35383-1.6748,0.34343-2.5109-1.8261-9.1305-0.68478-0.90193-4.1004,0.00033-0.00001z"/>
    <path id="samsun" style="stroke-dasharray:none;" stroke-width="0.45346242" fill="#735600" d="m433.37,166.95,2.0544-1.3696,5.4783,0.22826,5.25,2.7391,6.8478,0,1.1413-1.3696,5.0218-0.22826,0,3.8804-25.337-0.78537-0.45-3.09z"/>
    <path id="konya" style="stroke-dasharray:none;" stroke-width="0.45346242" fill="#0b5394" d="m448.21,171.08,6.1793,0.21993,0.20684,5.0176-11.042,1.3654-5.0921,0.45679-0.48322-1.9186,2.0202-0.9131,4.9631-2.5317,3.2481-1.6964z"/>
    <path id="yerevan" style="stroke-dasharray:none;" stroke-width="0.45346242" fill="#800000" d="m460.08,166.73-0.70621,4.5589-4.5981,0.12765,0.73901,4.672,5.4783,0.22827,1.8261-3.4239,2.7391-0.68479-1.5978-3.6522-3.88-1.84z"/>
    <path id="tbilisi" style="stroke-dasharray:none;" stroke-width="0.45346242" fill="#735600" d="m451.63,161.93,11.413,3.1957,4.7935,2.9674,3.1742-1.0303,2.0758,1.7151-2.2826,3.1957,0,2.0544-4.337-2.2826-1.3696-3.1957-5.0218-2.5109-5.9348,0-2.5107-4.1088z"/>
    <path id="aleppo" style="stroke-dasharray:none;" stroke-width="0.45346242" fill="#735600" d="m442.73,179.05,4.5652-1.5978,6.2286-0.44818,1.304,3.6438-9.1305,0.68479-0.22826,2.2826-3.6522-1.1413,0.91-3.41z"/>
    <path id="beirut" style="stroke-dasharray:none;" stroke-width="0.45346242" fill="#e0ffff" d="m440.67,186.13,3.1957,1.5978,1.5978-3.4239-3.4239-1.1413z"/>
    <path id="jerusalem" style="stroke-dasharray:none;" stroke-width="0.45346242" fill="#ee82ee" d="m440.45,187.04-0.91305,1.1413,1.8261,4.5652,2.5109-4.5652z"/>
    <path id="amman" style="stroke-dasharray:none;" stroke-width="0.45346242" fill="#674ea7" d="m445.01,186.59,4.337-1.8261,1.1413,3.6522-4.5652,0.91305,1.1413,2.0544-2.7391,2.7391-3.1957,0.22826,0-1.3696,1.5978-1.3696z"/>
    <path id="damascus" style="stroke-dasharray:none;" stroke-width="0.45346242" fill="#735600" d="m446.61,181.79-1.1413,4.337,4.7935-2.0544,2.9674-1.3696,0-1.5978z"/>
    <path id="mosul" style="stroke-dasharray:none;" stroke-width="0.45346242" fill="#735600" d="m454.6,177.68,1.5978-1.1413,5.9348,0.68478,2.7391,3.6522-2.0544,1.3696,0.91305,2.7391-2.5109,2.2826-7.3044,0.91304-2.9674-0.22826-0.68479-2.9674,5.4783-3.8804z"/>
    <path id="baghdad" style="stroke-dasharray:none;" stroke-width="0.45346242" fill="#735600" d="m454.83,189.32,6.8478-1.1413,2.9674-2.7391,2.9788,2.0564,0.22826,3.6438-1.6092,0.91927-3.1957,2.2826-8.22-5.02z"/>
    <path id="kuwait_city" style="stroke-dasharray:none;" stroke-width="0.45346242" fill="#735600" d="m467.89,191.96-4.5489,2.8522,2.8968,2.9611,3.0233,1.489,1.1611-1.4869-2.13-2.0564,0.0162-2.2915-0.41853-1.4675z"/>
    <path id="dubai" style="stroke-dasharray:none;" stroke-width="0.45346242" fill="#1c4587" d="m478.78,205.53,5.2614,0.23035,2.2826-3.1957,1.1413,3.6522-2.9674,2.7391-5.0218,0-0.69607-3.426z"/>
    <path id="al_medinah" style="stroke-dasharray:none;" stroke-width="0.45346242" fill="#735600" d="m441.81,195.03,3.685-0.45235,1.8803-2.6177,8.3473,12.188-6.6738,2.8585-7.2388-9.9221,0-2.0543z"/>
    <path id="mecca" style="stroke-dasharray:none;" stroke-width="0.45346242" fill="#735600" d="m452.31,205.99-2.5109,1.3696,0,4.7935,4.337,5.7065,3.6522,3.4239,6.8478-0.22826,0.22827-6.8478-9.3587-9.587z"/>
    <path id="riyadh" style="stroke-dasharray:none;" stroke-width="0.45346242" fill="#735600" d="m453.91,199.6-6.7857-9.2388,5.9195-0.9754,9.3321,5.9264,6.7966,6.1118,3.5524,2.0212-8.6521,9.3857-7.6524-8.4373-2.5106-4.7935,0-0.0001,0.0002-0.00003z"/>
    <path id="hofuf" style="stroke-dasharray:none;" stroke-width="0.45346242" fill="#735600" d="m466.01,212.84-0.68478,8.2174,2.5109,0,2.5109-2.9674,8.2174-0.68479,2.0544-1.5978,3.8804-0.68478,0.68479-5.25-5.9348,0-2.4138-7.0282-3.9257,0.80667-6.9,9.18z"/>
    <path id="sana_a" style="stroke-dasharray:none;" stroke-width="0.45346242" fill="#735600" d="m457.79,222.19,0.22826,5.25,3.1957,3.6522,15.978-6.1631,2.2826-3.1957-1.3696-3.4239-7.3044,0.45652-4.1087,3.6522z"/>
    <path id="muscat" style="stroke-dasharray:none;" stroke-width="0.45346242" fill="#05edff" d="m479.25,218.54,2.0544-2.2826,4.1087-0.68479,0.45652-6.1631,3.1957-3.6522,5.9348,3.4239-4.5652,5.4783,0,3.1957-5.25,2.7391-4.7935,0.91305z"/>
    <path id="tabriz" style="stroke-dasharray:none;" stroke-width="0.45346242" fill="#735600" d="m462.42,175.86,0.82602-2.6219,3.1742-0.90887,3.6535,1.9559,1.2462,1.8019,2.2179,0.25575,2.1226,6.0697-3.5778,1.3174-4.9347,2.1737-3.4239-2.9674,1.6092-2.1695-2.4838-3.8853-0.42931-1.0214z"/>
    <path id="isfahan" style="stroke-dasharray:none;" stroke-width="0.45346242" fill="#1c4587" d="m468.02,186.36,6.6939-3.1853,10.466,5.2417,3.0532,9.35-4.5647,1.2817-10.584-7.4381-3.8804-0.45653-1.1837-4.7935z"/>
    <path id="mashhad" style="stroke-dasharray:none;" stroke-width="0.45346242" fill="#0b5394" d="m497.05,178.37,0.91305,2.2826-2.2826,2.5109,0.22826,4.337,2.2826,2.5109-1.1413,3.1957,5.25,6.6196-3.1957,2.2826-8.7596-0.44835-2.0457-7.2982-2.7733-7.3085,8.1518-12.039,3.3725,3.355,0,0.00018z"/>
    <path id="astana" style="stroke-dasharray:none;" stroke-width="0.45346242" fill="#b6d7a8" d="m470.12,154.86,0-3.8804-2.2826-1.8261,0.22826-2.0544,4.5652,1.1413,3.1957-3.4239,6.8478,1.1413,2.7391,1.1413,5.25-1.3696,8.6739,2.0544-2.2826-4.1087,3.1957-5.0218,7.9892,0.22826,8.4457-2.5109,7.7609,4.1087,7.3044-1.1413,7.7609,5.9348-2.4995,9.1284-9.1421,0.23034-2.2826,1.5978-27.62-1.1413-5.25,2.2826-5.7065,0.68478-0.91305,8.6739-8.9022-3.8804-3.1957-2.9674,3.1957-1.5978,3.1957,0-0.22826-4.7935-6.1631,0.45652-3.91,0.908z"/>
    <path id="almaty" style="stroke-dasharray:none;" stroke-width="0.45346242" fill="#735600" d="m491.8,158.51,6.3913-2.5109,26.935,1.3696,2.7391-2.0544,9.8152,0.22826,2.5109-9.587,5.7065,3.8804,1.5978-2.7391,7.5326,1.8261-2.0544,3.4239-0.22826,1.8261-6.6196-0.22826-0.45652,4.5652-5.7065,0.22826,1.3696,4.337-1.5978,2.0544-5.4783-1.8261-8.2174,0.45652-5.9348,0.68479-5.4783,3.4239-5.4783-2.0544-1.3696-4.1087-8.9022,0.45652-2.5109-2.7391,0,1.8261-4.7935-0.68479z"/>
    <path id="bishkek" style="stroke-dasharray:none;" stroke-width="0.45346242" fill="#F0F" d="m515.09,168.78,6.3913-3.6522,13.011-1.1413,5.25,2.0544,6.3913,13.239,0.45653,5.9348,10.5,7.9892,15.065,0.22826,4.5652,0,5.0218,6.6196-2.5109,4.5652-4.327-1.8136-7.2602-2.1466-5.989,0.53622-4.5652-0.45653-16.663-5.0218-4.337-8.6739-7.3044,0.45652-2.5109-5.7065-5.25-4.1087-7.3044-1.8261-1.8261-4.1087,3.19-2.97z"/>
    <path id="samarkand" style="stroke-dasharray:none;" stroke-width="0.45346242" fill="#fdff93" d="m487.92,158.06,3.1957,0.68478-0.22826,2.7391,5.25,1.3696,0.68478-2.0544,3.1957,2.9674,6.8478-0.91304,1.3696,3.4239,5.9348,2.5109-3.4239,2.5109,1.8261,5.0218-5.25,0.22826-4.337,2.5172-3.4239,1.135-1.8261-2.7391-3.1957-2.9674-3.6522-0.22826-4.1087-0.69309-3.4239,3.204-0.68479-4.5652-2.0544-3.4239,3.8804-1.1413,2.9674-1.8261,0.44-7.767,0.0166,0.006z"/>
    <path id="kabul" style="stroke-dasharray:none;" stroke-width="0.45346242" fill="#b6d7a8" d="m499.34,181.79,7.0761-3.6522,6.6196-0.91305,8.6739,1.8261-1.5978,3.6522-2.5109,1.1413-1.5978,4.7935-3.1957,0.22826-3.4239,1.3696,0.22826,2.9674-5.9348,0.91304-4.7935-1.3696,1.1413-2.7391-3.1957-3.8804z"/>
<!--  <path id="path4243" fill="none" d="m514.27,134.29,11.185-0.22826-0.22827-3.8804,5.7065-0.91305,2.0544-5.4783,2.9674-2.2826,0.91305-2.0544,3.8804,2.7391,0.45652,2.7391,2.2826,3.1957-6.8478,8.6739-3.6522,0.22826-1.5978,2.7391,2.9674,4.7935-4.337,0.22826-1.5978,1.3696-5.0218-4.7935-9.3587,0.91305,2.9674-2.7391z"/>-->
    <path id="karachi" style="stroke-dasharray:none;" stroke-width="0.45346242" fill="#735600" d="m516.23,190.47,2.2826-5.9348,2.7391-1.3696,1.1413-3.8804,3.8804,3.6522,0,2.9674,2.0544,2.9674-2.2826,3.6522-3.1957,3.8804-3.772-0.56336-2.84-5.38z"/>
    <path id="quetta" style="stroke-dasharray:none;" stroke-width="0.45346242" fill="#735600" d="m499.34,194.35,6.3913,1.1413,5.4783-0.91305-0.91305-3.8804,4.5652-1.1413,1.8702,3.918-6.892,8.4081-9.8152,0.45653,3.4239-2.9674-4.11-5.03z"/>
    <path id="ahmedabad" style="stroke-dasharray:none;" stroke-width="0.45346242" fill="#999" d="m528.43,207.83-0.79632,5.6271-2.8747-0.39049,0.30833-3.201-3.1358-0.45235-1.8261,3.4239-5.7065-5.25,6.3913-1.8261,0-3.6522,7.6397,5.7212z"/>
    <path id="delhi" style="stroke-dasharray:none;" stroke-width="0.45346242" fill="#1c4587" d="m525.01,194.45,4.4555-5.8113,6.1631-0.91305,4.0545,7.9975,4.3097,2.0416-5.5078,2.3856-6.9779-4.117-6.4971-1.5832z"/>
    <path id="bangalore" style="stroke-dasharray:none;" stroke-width="0.45346242" fill="#4b0082" d="m534.67,221.96-1.5537,9.1305-3.1957,2.5109-5.25-10.728,9.9994-0.9134z"/>
    <path id="bhopal" style="stroke-dasharray:none;" stroke-width="0.45346242" fill="#735600" d="m528.21,213.05,1.0631-7.763,6.872-3.5599,7.7395,8.59-2.2125,1.0366-0.78806,2.0108-8.0135-0.20136-4.6605-0.11309z"/>
    <path id="kolkata" style="stroke-dasharray:none;" stroke-width="0.45346242" fill="#4b0082" d="m542.62,217.11,8.6826,1.1705-10.338,8.2216-6.3717-1.8136,3.6432-7.3416,4.3839-0.23692z"/>
    <path id="chennai" style="stroke-dasharray:none;" stroke-width="0.45346242" fill="#ffdab9" d="m534.77,225.37,7.3699,2.2722-1.7176,8.9269-5.25,5.25-3.8804-3.4239-1.1413-4.337,3.4239-2.5109,1.1955-6.1773z"/>
    <path id="colombo" style="stroke-dasharray:none;" stroke-width="0.45346242" fill="#735600" d="m535.63,243.19,5.9348,4.5652,4.337-2.5109-4.7935-7.9892z"/>
    <path id="patna" style="stroke-dasharray:none;" stroke-width="0.45346242" fill="#735600" d="m555.72,201.2,11.834,0.0312,4.8376,1.3824,5.011,2.16-5.5658,0.29637-4.4782,8.4457-3.1957-2.9674-0.44912-6.0984-8.5437-0.75355,0.54988-2.4963,0.00004-0.00005z"/>
    <path id="ulan_bator" style="stroke-dasharray:none;" stroke-width="0.45346242" fill="#ffdab9" d="m554.8,153.04,1.3696-2.5109,14.837-3.1957,6.3913,2.2826,4.7935-5.0218,6.6196,0.45652,2.2826,2.7391,10.044,0.45652,1.3696,1.8261,11.641-1.1413,1.3696-1.8261,4.7935,2.7391-1.3696,2.0544,5.9348,0.45652,2.9674,2.5109-5.0218,0.68478-6.8478,3.1957-6.1631,0.22826,1.5978,2.9674-5.0218,2.2826-8.6739,1.1413-1.1413,1.5978-4.5652-0.22827-3.4239-2.2826-12.326-0.22826-5.7065-5.4783-5.9348,0.22826-1.5978-2.0544,1.1413-2.0544z"/>
    <path id="urumqi" style="stroke-dasharray:none;" stroke-width="0.45346242" fill="#800000" d="m541.08,165.68,1.614-3.2281-1.9369-3.0667,6.4562,0-0.32281-5.0036,15.333,0.80703,0.32281,4.5193,7.2632,0.32281,6.2948,5.165,8.0703,0.32281,0,4.9685-15.415,8.4918-21.69-1.02-5.97-12.27z"/>
    <path id="lhasa" style="stroke-dasharray:none;" stroke-width="0.45346242" fill="#66a3ff" d="m547.21,179.07,21.422,0.64749,12.916,5.231,5.6895,9.6162-5.4878,4.0351-4.5193-6.1005-19.853-0.51712-10.007-7.4246-0.161-5.4876,0.0005,0z"/>
    <path id="hohhot" style="stroke-dasharray:none;" stroke-width="0.45346242" fill="#735600" d="m628.24,164.22-7.9089,5.165-18.724,0.48422-16.543,0.13271,0.16124-4.5225,6.2545,1.871,5.3264-0.19226,15.454-4.2294-1.7755-3.8737,7.9089,0.32281,5.3264-3.5509,5.8755-0.3884-3.6151-4.0267-4.7797,0.0243-0.0249-2.744,6.0353-1.6712,2.6781-3.0351,4.484,11.033-6.14,9.21z"/>
    <path id="dali" style="stroke-dasharray:none;" stroke-width="0.45346242" fill="#735600" d="m580.46,204.81,2.0982-5.7129,3.914-2.6133,6.173,4.6212,10.895,5.2564-5.0033,2.0972-2.7439-1.1298-1.9369,1.6141-4.3579,0.32281-3.3895,2.0983-2.0983-0.64563-1.614-2.4211-1.9364-3.4873z"/>
    <path id="xi_an" style="stroke-dasharray:none;" stroke-width="0.45346242" fill="#00F" d="m584.33,185.85,3.7123,8.0703,17.802-5.5451-3.7207-6.5582-17.794,4.033,0.0003,0z"/>
    <path id="shenyang" style="stroke-dasharray:none;" stroke-width="0.45346242" fill="#735600" d="m624.8,167.39,0.92805,2.2597,4.5598-2.7789,4.2776,1.065-2.9458,3.8748,0.96843,1.1298,1.9369-2.0983,4.5194-0.48422,5.165-4.0351-13.477-3.3568-5.9321,4.424z"/>
    <path id="jinan" style="stroke-dasharray:none;" stroke-width="0.45346242" fill="#735600" d="m626.06,170.68-2.3808-2.7439-3.0261,2.419-2.0983,2.7439,0.80703,3.8737,3.2281,4.1965,3.5509,1.6141,0.64562-2.2597,4.1965-2.9053,2.9053-0.16141,0-1.7754-4.5194,0.48421-2.4211,1.2912-4.6808-4.6808,3.793-2.0961z"/>
    <path id="beijing" style="stroke-dasharray:none;" stroke-width="0.45346242" fill="#1c4587" d="m605.36,170.74,13.841-0.54898-1.614,2.9053,1.2912,4.0351-11.339,1.647-1.6143-7.8122-0.56487-0.22622z"/>
    <path id="nanjing" style="stroke-dasharray:none;" stroke-width="0.45346242" fill="#1c4587" d="m624.85,183.59-3.0667,5.6492,1.4123,7.3918-5.366-1.0406-0.96814-9.878,5.2448-4.2215,2.7438,2.0987,0,0.0004z"/>
    <path id="shanghai" style="stroke-dasharray:none;" stroke-width="0.45346242" fill="#0FF" d="m625.49,184.4,1.9369-2.0983,3.5509,5.3264,1.2912,5.972-8.7159,0.96843-0.64562-5.165z"/>
    <path id="hangzhou" style="stroke-dasharray:none;" stroke-width="0.45346242" fill="#66a3ff" d="m621.3,198.77-2.4673-2.4191,5.07,0.95007-0.18157-1.9204,8.0703-1.1298,0.16141,2.2597-5.165,4.0351-5.4878-1.7755z"/>
    <path id="guangzhou" style="stroke-dasharray:none;" stroke-width="0.45346242" fill="#ff1a00" d="m605.15,211.19-0.16141,3.7123-1.614,1.1298,0.16141,2.0983,2.2597,0.64562,3.0667-1.6141-1.9369-2.5825,0.96843-2.9053,2.5825-0.48422,0.64562-7.4246-11.944,5.165,0.64563,1.9369z"/>
    <path id="shantou" style="stroke-dasharray:none;" stroke-width="0.45346242" fill="#fce5cd" d="m620.65,199.41,5.165,1.7754-3.3895,5.3264-6.6176-4.1965z"/>
    <path id="hong_kong" style="stroke-dasharray:none;" stroke-width="0.45346242" fill="#ead1dc" d="m612.1,203.77,2.9053-0.80703,6.779,4.0351-1.1298,1.4526-4.5194,1.2912-1.7754-1.2912-1.6141,2.0983-1.7754,0z"/>
    <path id="pyongyang" style="stroke-dasharray:none;" stroke-width="0.45346242" fill="#3d85c6" d="m640.02,170.2,4.5194-3.3895,2.4211,0.80702,0.32281-2.0983,2.5825-0.32281,1.2912-1.9369,1.1298,1.6141-2.2597,1.614,0.32281,1.7755-4.6808,2.0983-0.64562,1.9369,1.1298,1.4526-1.7755,0.64563-2.0983-0.32281-1.7754,0.1614z"/>
    <path id="seoul" style="stroke-dasharray:none;" stroke-width="0.45346242" fill="#ead1dc" d="m644.05,175.04,1.4526-0.64563,1.9369,7.1018-4.3579,0.48421z"/>
    <path id="busan" style="stroke-dasharray:none;" stroke-width="0.45346242" fill="#735600" d="m646.15,174.23,3.9949,2.2762-0.52463,5.0201-1.7351-0.0483-1.73-7.25z"/>
    <path id="asahikawa" style="stroke-dasharray:none;" stroke-width="0.45346242" fill="#ffdab9" d="m676.01,140.99,3.0667-2.2597,3.2281,10.653-3.5509,8.2317,5.0036,3.0667,13.558-5.165,1.1298,3.2281-13.074,3.8737-6.1334,3.5509-4.6808-1.7755,0.64562,1.7755-1.7754,0.80702-0.96844-2.2597,1.2912-1.614,2.7439-0.96843,0.80702-4.1965,0.32281-14.365z"/>
    <path id="sapporo" style="stroke-dasharray:none;" stroke-width="0.45346242" fill="#f1c232" d="m672.78,168.42,2.9053-1.614,1.614,3.3895-0.1614,2.7439-2.0983,3.2281-0.32281,3.0667-3.0667-5.3264z"/>
    <path id="kyoto" style="stroke-dasharray:none;" stroke-width="0.45346242" fill="#1c4587" d="m670.85,174.23-2.5825,2.5825-2.9053-0.96843-0.48421,3.3895-5.0036,0.16141,0,1.9369,4.8422-0.32281,7.1018-5.0036z"/>
    <path id="tokyo" style="stroke-dasharray:none;" stroke-width="0.45346242" fill="#0FF" d="m672.46,176.49,2.0983,3.3895-0.1614,1.2912-1.7755,0.96844-2.4211-1.1298-4.0351,1.1298-1.1298,1.7754-1.614-2.4211,2.7439-0.80703z"/>
    <path id="okinawa" style="stroke-dasharray:none;" d="m643.2,202.17,4.3583,1.0146,4.8611-4.3999,2.5422-5.2133-6.8399,4.3951-4.9217,4.2035z" fill-opacity="0.94117647" stroke-width="0.45346242" fill="#a3ccff"/>
    <path id="hiroshima" style="stroke-dasharray:none;" stroke-width="0.45346242" fill="#735600" d="m658.62,185.34,5.6089,0.19327,0.1614-1.2912-1.2912-2.2597-3.5509-0.0648-0.16141-2.1949-3.3895,0,2.6227,5.6173z"/>
    <path id="taipei" style="stroke-dasharray:none;" stroke-width="0.45346242" fill="#ead1dc" d="m630.33,203.12,2.7439,0.96843,0,4.8422-1.9369,1.4526-2.9053-0.96843z"/>
    <path id="yangon" style="stroke-dasharray:none;" stroke-width="0.45346242" fill="#735600" d="m572.23,205.54,6.8093-0.72685,5.7803,7.5058,0,2.5825-5.4878,2.2597-0.96843,1.7755,2.7439,3.8737-0.80703,3.7123,0.64562,2.7439-0.48421,2.9053-2.4211,0.80703-0.48422-11.944-2.4211,3.0667-3.3895-0.80703,0-5.165-3.8737-4.0351,4.35-8.56z"/>
    <path id="hanoi" style="stroke-dasharray:none;" stroke-width="0.45346242" fill="#66a3ff" d="m585.79,215.39-0.16141-3.2281,4.0351-1.9369,5.0036-0.32281,1.4526-1.7755,3.0667,1.9369,0,2.4211-2.2597,4.0351,0.16141,3.0667,3.8737,3.5509-0.32281,2.9053-3.7123,2.2597-0.96843-3.7123-2.5825-5.4878-5.165-0.32281-1.4526,1.2912z"/>
    <path id="saigon" style="stroke-dasharray:none;" stroke-width="0.45346242" fill="#1c4587" d="m595.95,227.82-5.8106,0-0.96843,4.0351,3.7123,3.8737,1.9369,1.614,0.80703,2.7439,3.2281-4.0351,4.8422-1.4526,0.32281-8.7159-2.0983-2.2597-0.80702,3.0667-3.2281,2.2597z"/>
    <path id="bangkok" style="stroke-dasharray:none;" stroke-width="0.45346242" fill="#FFF" d="m579.33,218.94,0.48422-1.614,4.6808-1.4526,2.4211,5.0036,2.0983-1.4526,4.0351,0.64562,3.2281,6.9404-6.6176,0.32281-1.1298,4.0351-4.1965-1.6141-1.614,8.0703,2.7439,4.5194,5.0036,5.0036-4.8422-0.32281-6.6176-6.4562,0.48421-6.1334,3.0667-3.0667,0.48422-2.0983-2.0983-2.7439,1.1298-4.5194z"/>
    <path id="kuala_lumpar" style="stroke-dasharray:none;" stroke-width="0.45346242" fill="#735600" d="m585.14,247.35,5.4878,0.64563,1.614,1.9369-0.16141,3.3895,1.2912,2.2597-2.0983,1.614-7.1018-5.8106z"/>
    <path id="medan" style="stroke-dasharray:none;" stroke-width="0.45346242" fill="#735600" d="m573.36,247.51,10.491,5.0036,7.2632,5.6492,2.4211,5.3264,4.8422,3.8737-1.4526,5.8106-1.2912,0.80703-6.779-3.8737-15.818-21.305z"/>
    <path id="manila" style="stroke-dasharray:none;" stroke-width="0.45346242" fill="#735600" d="m630.01,216.84,3.5509,1.7755-0.32281,7.7474,8.3931,5.8106-0.32281,4.5194-7.1018,3.2281-9.5229,3.8737-3.5509-0.48422,1.2912-3.3895,6.4562-9.8457-1.614-5.8106z"/>
    <path id="davao" style="stroke-dasharray:none;" stroke-width="0.45346242" fill="#d2b48c" d="m626.62,243.64,1.9369,3.0667,4.0351-1.1298,4.1965-3.2281,0.80702,3.7123,2.9053,0.80703-0.32281-3.0667,3.8737-0.64562-2.0983-6.4562z"/>
    <path id="bandar" style="stroke-dasharray:none;" stroke-width="0.45346242" fill="#735600" d="m625.17,256.88-1.7755,2.2597-0.64562,3.3895-2.9053,1.4526,0,4.5194-3.0667,0.32281-1.6141-2.7439-8.2317,0.64562-2.0984-6.4254-0.80697-4.5544,4.0609,0.0925,12.669-11.787,5.1701,1.0042,2.0441,2.149-5.9871,5.4793,3.1877,4.1965z"/>
    <path id="jakarta" style="stroke-dasharray:none;" stroke-width="0.45346242" fill="#af125a" d="m597.5,272.99,16.463,2.2597,3.3895,2.4211-15.334-0.16129-5.972-2.7439,1.4532-1.7756z"/>
    <path id="moresby" style="stroke-dasharray:none;" stroke-width="0.45346242" fill="#CCF" d="m656,260.1,3.8737,1.7755,1.9369,4.6808,5.972-2.0983,13.074,2.9053,9.5229,6.9404-0.96843,2.4211,7.4246,7.2632-7.9089-1.2912-5.972-5.165-3.0667,2.4211-5.0036,0.48422-3.0667-2.2597-3.5509,0.48421-0.80703-2.4211,1.614-1.7754-10.007-5.972-3.7123-3.5509-1.9369-2.4211z"/>
    <path id="adelaide" style="stroke-dasharray:none;" stroke-width="0.45346242" fill="#F0F" d="m649.62,304.68,22.839,3.6784-0.48421,19.53-9.0387,10.976-3.8737-5.4878-2.9053-0.80702-3.2281-0.64563-3.7123,0-2.4211,0.64562-2.4211,0.00001-4.0351,0.80702-1.614-1.614-1.9369-2.0983-0.56451-5.4272-2.9046-10.34-1.9368-4.1615-4.56-4.8124,2.9458-0.31345,1.2106-2.1048,18.641,2.1755z"/>
    <path id="perth" style="stroke-dasharray:none;" stroke-width="0.45346242" fill="#999" d="m613.22,317.26,5.1654,17.573-2.5825,2.0983,9.0387,2.0983,3.6317-2.1302,8.0702,0.32281,3.6317-2.8734-3.9948-3.5509-0.56451-6.8161-1.8407-6.9053-2.9978-7.4208-6.2445-5.0307-10.837,6.3072-0.47601,6.3279z"/>
    <path id="darwin" style="stroke-dasharray:none;" stroke-width="0.45346242" fill="#735600" d="m647.6,294.16,3.0667-0.64562,0.64562-7.586,5.165-1.4526,4.0351,3.2281,5.0036-0.48422-3.0667,6.1334,10.976,7.2632-0.96844,7.2632-22.798-3.775-17.648-2.2133,2.6928-5.2499,2.8335,2.675,4.1228-6.9201,3.597-0.41892,0.64938,3.1172,1.7-0.94z"/>
    <path id="brisbane" style="stroke-dasharray:none;" stroke-width="0.45346242" fill="#CCF" d="m676.66,288.51,1.4526-3.5509,4.3579,8.5545,2.9053,1.4526,1.4526,7.9089,5.4878,3.2281,8.7159,11.621,0.80703,3.2281-13.881-0.16141-6.9404,0.1614-8.0703,0.00001,1.1298-21.306,3.0667-3.3895z"/>
    <path id="melbourne" style="stroke-dasharray:none;" stroke-width="0.45346242" fill="#CCF" d="m673.11,328.37,10.814,9.3615,11.298,7.4246-3.7123,6.1334-0.48421,5.6492-3.8737,2.4211-8.3931-12.428-7.1018-2.2597-2.4211-4.5194-5.3264-0.64562z"/>
    <path id="sydney" style="stroke-dasharray:none;" stroke-width="0.45346242" fill="#1c4587" d="m673.11,322.08,0,5.3264,21.951,16.625,0.32281-4.3579,6.4562-7.7474,0.32281-10.491z"/>
    <path id="wellington" style="stroke-dasharray:none;" stroke-width="0.45346242" fill="#170a51" d="m745.42,338.87,3.8737-0.32281,3.2281,4.6808,7.1018,1.1298-0.16141,2.0983-9.5229,7.4246-4.8422,4.8422-2.0983,0.64562-0.96844,1.4526,0.16141,1.2912-4.1965,3.2281-6.1334-1.9369,0.64563-3.3895,9.5229-3.8737,0.48422-2.0983,1.9369-2.4211,2.7439-4.1965,2.4211-0.32282,0-4.3579z"/>
    <path id="hyderbad" style="stroke-dasharray:none;" stroke-width="0.45346242" fill="#0b5394" d="m542.16,211.99,11.833-7.6826,2.574,0.55808-0.98871,7.2375-0.565,3.2796-3.6723,2.488c-1.5044-1.1229-7.5286-0.59918-9.0327-1.4207l-0.14769-4.4597-0.0004,0.00004z"/>
    <path id="mcmurdo" style="stroke-dasharray:none;" stroke-width="0.45346242" fill="#000" d="m-13.022,450.6-1.3297,8.2584,784.12,0.18528-15.996-8.014-14.31-2.6783-13.435-2.869-10.586-5.9176,14.981-3.5185-7.1911-8.7961,13.782-1.4394,3.3957-3.3586-58.527-12.475-34.956,0.15993-22.771,0.15994-11.985-3.3586-8.3891,3.5185-7.9898-2.5589-11.785,2.7188-44.344,1.4394-6.3919,4.1582-9.1883,0.79967-4.9936,3.8384-4.5942-2.0791,2.7964-6.2374-25.967-0.95958-7.3908-3.8383-11.386,0.79968-5.9926,3.3586-16.179,2.399-2.7964,1.7592-9.5876-2.7188-14.382,4.478-30.361-0.63972-31.959,3.3586-23.57-0.47981-15.98,9.7557-16.978,1.7593-20.973,4.958,17.178,4.7981-66.316,5.5975-41.547-5.1178-14.981-3.8383,13.383-5.5975,14.581,1.2794,19.775-4.958,1.1985-8.1566-8.789-7.3568,20.174-11.835-40.748,13.594-3.7952,10.555-60.524-1.1195,8.9886,6.2373-78.499-4.6378-26.966,7.0371-22.97,1.7592,20.574,5.1178-1.3982,4.3181-17.577-1.4394,9.7873,8.9563-38.351-1.1195,0.01662-0.00033-0.000018-0.0004z"/>
   </g>
   <path id="volgograd" d="m457.42,366.04,11.865,8.0318,24.684,1.9915,3.4089-11.075,8.9755,4.3222,3.8487-9.3628-12.651-19.224-30.338,12.106-9.7938,13.21z" fill="#FF0"/>
   <path id="yekaterinburg" d="m563.73,299.6,5.8936,8.6489,20.703,26.097,8.2805,6.9271,9.7144,7.4794,13.457-2.8631,16.721,17.675-0.39778-39.81,1.2736-39.723-8.0656-44.675-33.577,12.306-25.542,13.312-0.6935,19.973-7.7673,14.653,0.00028-0.0003z" fill="#84de02"/>
   <path id="kaifeng" d="m762.49,452.96,7.3253,17.381,7.6595-0.66348,22.174-17.183-6.5059-9.1951-24.242,4.9226-6.4109,4.7372z" fill="#90F"/>
   <path id="wuhan" d="m764.17,472.75,5.0957,36.612,19.242-6.6982,8.7988-7.9423-5.554-5.9048-3.619-24.891-8.0817,6.878-15.881,1.9465-0.0004-0.00011z" fill="#1c4587"/>
   <path id="chengdu" d="m732.95,488.91,4.6099,5.9449,6.06,5.5831,20.89,12.032,3.9258-1.4499-5.9484-37.066-27.308,10.497-2.2295,4.4592z" fill="#4b0082"/>
   <path id="lanzhou" d="m729.05,426.76-31.759,20.97,26.263,15.084,37.361-10.953,9.7522-7.451-4.8336-17.556-36.784-0.0941,0.0004,0.0001z" fill="#4aa82c"/>
   <path id="changchun" d="m825.11,392.97,50.726-12.624-5.9983,15.169-6.2668-0.55406-0.25451,8.3516-4.83,0.52301-3.1643,7.5857-5.527-0.9389-1.354,6.6001-30.179-12.106,6.8481-12.007z" fill="#735600"/>
   <path id="harbin" d="m819.54,356.73,21.155-3.6794,3.3704,19.606,7.9634,1.0286,9.7943,7.7149-34.287,9.7086-4.8103-15.126-3.1854-19.253z" fill="#735600"/>
   <path id="fukuoka" d="m857,461.33,9.5554-9.395,3.822,11.928-5.8605,9.1736-3.4588,1.6036-3.1819-5.6819-0.87616-7.6286z" fill="#735600"/>
   <path id="surabaya" d="m792.02,690.79,17.492-3.2246,33.55,3.45-21.979,5.8476-14.731,2.8633-35.196-7.0738,20.863-1.8626z" fill="#735600"/>
   <path id="tehran" d="m509.72,443.94,18.045-0.0154,6.1968-8.0934,10.048,3.1999-14.903,27.891-15.523-10.054-3.8632-12.928z" fill="#ee82ee"/>
   <path id="halifax" d="m-15.51,385.68,8.5206-0.72216,2.3509,12.055,3.0627,2.7494,5.8122,8.5158,13.616-9.3062,12.921-3.2582-9.1996-9.0643-12.321,0.61943,0.32449-13.804-5.977-5.7734-15.903,5.505-3.2078,12.484z" fill="#735600"/>
   <path id="charlotte" d="m-97.211,448.71,16.602,5.0901,3.3228-7.1647,18.057,6.8403,9.3168,4.2489-15.686,18.904-32.647-1.5833,1.0354-26.335-0.0004-0.00041z" fill="#7aa6cd"/>
   <path id="oklahoma_city" d="m-122.13,404.73-41.089,0.2899-3.5828,37.308,15.436,0.83445,0.18887,10.823,27.332,0.30628,3.2219-20.019-1.5068-29.542z" fill="#ffa500"/>
   <path id="seattle" d="m-249.44,377.85-6.5229,2.7746,2.514,11.279-5.2928,15.174,36.884-1.6772-12.094-28.152-15.489,0.6025z" fill="#7aa6cd"/>
   <path id="salvador" d="m66.33,690.11,34.44-19.788,11.068,18.225,10.551,19.945,3.9815,6.7062-3.6618,5.2772-52.597-11.492-3.7814-18.873z" fill="#dda0dd"/>
   <path id="belo_horizonte" d="m72.739,725.5-1.5939-13.826,51.242,10.191-4.6056,25.935-7.5779,17.003-31.254-2.5266-4.3801-25.427-1.8304-11.348z" fill="#fce5cd"/>
   <path id="ankara" d="m427.39,425.68,27.243,1.6568-14.363,9.8572-4.4108,1.8949-4.2792-1.0382-12.674-3.8814-3.5387-5.316,12.023-3.1736,0.0003,0.0003-0.0006,0.00002z" fill="#735600"/>
   <path id="mexico_city" d="m-164.3,522.27,0.19914,12.975,11.864,8.0774,17.555,6.9116-3.7423-13.481-5.6324-16.002-5.7506-15.761-19.181,11.383,4.6881,5.8969-0.00004,0.0003z" fill="#1c4587"/>
   <path id="monterrey" d="m-133.92,521.44-1.0518-17.71-12.155-2.3669,7.5528,24.691,6.2901,24.521,9.4726-1.171,5.4551-5.399,2.4502-5.411-13.276-3.4975-3.0658-8.0825-1.6724-5.5741z" fill="#90F"/>
   <path id="belfast" d="m256.99,335.43-10.591,7.9178,14.851,9.1056,6.5688-6.5648-2.7929-7.0807-8.0358-3.3782,0.0004,0.0003z" fill="#735600"/>
   <path id="durban" d="m409.39,816.22,7.879,7.7114,15.306-20.19,0.23383-5.7334-24.103,1.373-12.311,0.14904,12.995,16.69z" fill="#735600"/>
   <path id="kampala" d="m420.9,677.91,3.4118-15.117,20.737,9.5633,12.913,5.8272,6.3455,19.241-4.9573,10.781-15.586,3.2275-1.9616-12.345-8.258-0.77562-6.4869-5.3571-6.1566-15.045z" fill="#735600"/>
   <path id="njimi" d="m349.78,594.08,7.8857,9.584,14.508-4.0522,24.243,2.2919-10.262-22.684,8.2926-46.693-31.831-10.599-14.775,16.06-0.99168,12.381,2.9317,43.711-0.0002-0.0005z" fill="#735600"/>
   <path id="lahore" d="m579.73,505.04,12.973-20.175,6.3086,5.8323-3.6219,7.3933,3.685,5.9269,0.96987,8.3407-11.283,3.3856-9.0312-10.704z" fill="#00F"/>
   <path id="mumbai" d="m634.73,540.86-5.5742,10.239-21.356,2.8436-0.3262-21.423,34.034,0.16274,1.1432,6.9608-7.9208,1.2163z" fill="#af125a"/>
   <path id="jaipur" d="m609.2,486.87,12.116,3.1634,12.767,9.1139-17.091,11.664-1.6346,4.8855-18.437-17.152,3.2633-7.6481,5.7182,0.7152,3.2978-4.742z" fill="#735600"/>
   <path id="dhaka" d="m672.47,510,12.116,1.4912-0.33272,14.131-12.852,3.3342,1.0682-18.956z" fill="#999"/>
   <path id="lucknow" d="m637.68,510.24-4.5913-7.7051,16.069-9.8883,19.731,8.3497-1.0214,6.7353-11.589,8.3001-9.1238,7.865-9.4751-13.657z" fill="#4aa82c"/>
   <path id="new_york" d="m-31.975,408.44-1.2227-8.6038-3.7341-2.1358-6.6663,4.856-10.86,0.55041-8.5733,8.5128,31.293,14.959,7.2466-4.8442-7.4837-13.294z" fill="#1c4587"/>
  </g>
 </g>
</svg>