<?xml version="1.0" encoding="UTF-8" standalone="no"?>
<svg id="svg2" xmlns:rdf="http://www.w3.org/1999/02/22-rdf-syntax-ns#" xmlns="http://www.w3.org/2000/svg" viewBox="0 0 744.09 1052.4" version="1.1" xmlns:cc="http://creativecommons.org/ns#" xmlns:dc="http://purl.org/dc/elements/1.1/">
 <defs id="defs4"></defs>
 <metadata id="metadata7">
  <rdf:RDF>
   <cc:Work rdf:about="">
    <dc:format>image/svg+xml</dc:format>
    <dc:type rdf:resource="http://purl.org/dc/dcmitype/StillImage"/>
    <dc:title/>
   </cc:Work>
  </rdf:RDF>
 </metadata>
 <g id="layer1">
  <g id="g3125" transform="translate(148.55351,-68.645212)">
   <g id="layer1-0" transform="matrix(1.9732704,0,0,2.4645111,-426.98571,5.7161008)">
    <path id="anchorage" fill="#000" d="m63.271,40.674-23.242-1.1298-11.783-1.1298-11.46,2.0983-3.2281,2.7439-5.6492,0.32281-1.614,2.7439,4.5194,2.2597-0.48422,0.96843-5.8106,1.1298,0,1.7754,3.8737,2.7439,7.9089,0,0,1.2912-5.0036,0.48421-3.5509,2.7439,2.0983,3.3895,2.9053,2.9053,5.0036,0.48422,1.2912,1.4526,7.1018,0.48421-2.9053,3.0667-10.976,3.8737-9.5229,3.2281-2.4211,0.16141-0.16141,3.3895,14.526-4.0351,14.526-5.0036,5.165-3.2281,3.0667-3.5509,4.3579-2.4211,10.33,0.32281,11.46,0.80702,9.2001,4.5194,5.0036,4.3579,3.5509,0.48422,0.32281,4.8422,2.7439,1.6141,5.165-1.7755-0.64562-4.8422-9.8457-8.5545-4.6808,0-3.5509,0-6.1334-2.9053z"/>
    <path id="yellowknife" fill="#000" d="m63.858,40.729,29.032-1.031,11.641-13.011,28.076-5.25,30.587-3.8804,11.641-4.337,23.283-1.5978,42.685,1.5978v2.2826l-25.565,6.3913-5.7065,3.6522-5.4783,3.1957-3.1957,3.6522-23.283,0.68478-6.1631,5.9348,6.1631,5.7065,4.1087-0.22826,1.1413,2.5109,5.25-4.1087,7.9892-0.22827v8.4457h-9.587l-9.3587,6.8478-4.5652,0.45653-4.1087,5.0218-97.555,1.7026-5.1302-2.8543-1.9016-21.557z"/>
    <path id="vancouver" fill="#000" d="m80.86,65.679,10.009,8.2415,0.32288,5.5471,2.4216,4.5962,0.64577,3.4868,6.7805,3.4868,2.5831-1.2679,16.79,0,0.16145-24.566z"/>
    <path id="calgary" fill="#000" d="m122.49,65.354,32.312-0.15746,0.15837,24.878-32.787-0.15746z"/>
    <path id="winnipeg" fill="#000" d="m156.24,65.042,12.915,0-0.16144,2.0621,3.8746,3.3311,5.8118,0.79312,9.8479,3.9656,6.9419,0.15862,0,5.2346-9.0406,9.3588-6.4576-0.47587-5.3276,2.6966-7.7491-2.538-10.655-0.15862z"/>
    <path id="toronto" fill="#000" d="m196.91,81.268-9.6843,10.007,2.4211,1.2105,0.48422,2.7439,6.2948,0.32281,3.5509,2.5825-0.16141,1.7755-2.986,0.32281-0.64561,3.8737,2.7439-0.88772,3.793-2.8246,5.3264-0.16141,3.3895-1.7755-8.8773-16.948-2.5825,2.5825z"/>
    <path id="montreal" fill="#000" d="m202.89,79.734,10.169,19.369,4.8422,0.1614,3.8737-3.5509,0.16141-2.2597,1.614-1.9369-1.1298-2.2597,8.0703-3.2281-3.7123-19.207-4.358-0.80703,0.32282-3.8737-5.4878-0.32281-1.9369-3.5509-12.267-0.1614,0,7.586-0.64563,2.0983,4.0351,2.9053-0.16141,2.9053-5.6492,2.7439z"/>
    <path id="halifax" fill="#000" d="m227.85,66.414,3.3905-0.13913,2.7608-2.5644,8.5002,8.2877-2.9084,0.46511,10.3,4.5871,0.46935,2.2628,3.7133-0.13701-0.0393,5.9719-2.4348,2.0823,4.3462,1.8041,2.0982,0.01379-0.50753,3.5477-2.2702,1.5992-2.2607,0.14655-0.3122-1.6161-6.6206,0.44072-0.78262-3.7175,4.3748-2.5538-2.7269-2.6005-4.8612,2.8734-5.6458,0.37595-4.4791-2.9605-4.1-18.17z"/>
    <path id="labrador" opacity="0.98999999" fill="#00F" d="m196.98,42.273,0.12108,9.7148-10.451,0.38758-8.1308,7.183-5.3264,0.48422-2.4211,3.7123,0.32281,2.7439,2.5416,3.0184,7.8894,1.7906,7.8276,3.3919,7.7272-1.4218-0.32281,5.8106,3.3895,2.7439,1.4526-1.1298-2.9053-4.6808,6.416-2.8087-0.16141-2.1301-3.8737-2.599,1.2912-2.9536-0.18156-7.8266,13.599-0.01646,2.1584,3.4697,5.8917,0.41944,0,3.7935,7.0011,0.40404,3.2078-2.7274,8.8708,8.605c0.89551,0.76088-2.305,0.84349-1.4095,1.3193l8.8791,3.4222,0.41247,2.3733,3.9871-0.03297-0.28261,6.7625-1.5348,1.5462,3.4514,1.3921,91.416,8.5699,6.2142-12.348-30.385-31.118-3.8334-7.0546-13.135,0.8718-5.992,6.5539-10.33,1.2912-8.8773,13.558-15.334-6.4562-9.1193-13.397,0.44404-11.107-4.5599-2.6123-3.2281-2.5825-5.7899-2.5507-19.39,0.45235-3.7324-3.9077-5.4677-3.1942-10.203,5.8454-3.6779,5.1306-23.202-0.04937-4.6607,4.3261,4.4588,5.1352,3.7766-0.42526,1.0834,2.9233,5.0959-3.9159,8.9914-0.09897z"/>
    <path id="great_lakes" fill="#00F" d="m185.05,91.194-4.8992-0.88367-6.157,4.1118,5.3362,0.0905,0.95864-1.4624,1.7754,0.24211,1.372,1.6141,3.4547,0.65541-3.0512,2.0885-1.1298,2.8246,0.0807,4.6808,1.2105,0.80703,1.5334-1.3719,0-5.4878,3.2281-1.3719,3.0667-0.000001,0.48422,2.5018,1.2146,2.0274-1.2008,4.702,6.9816-1.6704-3.5252-1.0961,1.3368-6.3856-0.97081-1.4371-6.104-0.61793-2.1709-2.3819z"/>
    <path id="san_francisco" fill="#000" d="m100.05,103.48,1.0757,5.0238,2.9674,5.4783,9.6526-0.22818-1.6092-10.518-12.086,0.24447z"/>
    <path id="los_angeles" fill="#000" d="m104.09,114.89,5.7065,8.2174,3.4239,0.45653,3.8804,2.7391,6.0733-0.0277-1.6459-3.332-7.491-8.38-9.94,0.32z"/>
    <path id="saint_paul" fill="#000" d="m119.36,101.88,54.127-0.90471,0.0231-8.3283-6.1504-2.2597-54.085,0.32281,6.0852,11.17z"/>
    <path id="phoenix" fill="#000" d="m124.12,126.22,4.8422,2.9053,8.2317-0.1614,0.64562-2.2597,5.9317-0.22618,1.4124-11.718-22.112,0.0648-0.16145,7.5553,1.2106,3.8398-0.00032,0.00016,0-0.00003z"/>
    <path id="denver" fill="#000" d="m113.58,103.14,1.4931,10.522,7.2437,9.1089-0.55246-8.501,23.997-0.29277,1.9152-11.968-34.097,1.1311,0.0007,0.0001z"/>
    <path id="chicago" fill="#000" d="m174.64,95.875,8.7159,0-1.9369,4.1965,0.64562,6.9404-4.6808,7.1018-6.5362-1.9347-0.84745-9.9455,4.6401-0.35465v-6.005z"/>
    <path id="houston" fill="#000" d="m168.19,122.7-15.089,0.0688-0.0108-5.3868-7.8602,0.18075-0.28248,9.4561-6.6176,0.32282,3.7123,1.7754,2.9053,2.0983,0.32281,1.9369,3.2281,1.6141,0.96844-1.6141,3.7123-0.1614,4.6808,7.4246,3.5509,0.32281,0-4.3579,5.6492-2.4211,0.80702-1.4526,2.4211,0.16141,1.1299-5.7777-3.228-4.1903z"/>
    <path id="new_orleans" fill="#000" d="m171.21,113.11-1.9772,8.2029,3.147,5.2248-0.64562,7.2632,2.4211,0,4.5193,1.1298,0.96844-3.0667,0.80702-5.0036,0.00001-6.2948-3.0667-5.165-6.1733-2.2906z"/>
    <path id="indianapolis" fill="#000" d="m183.68,107.5,2.9053-2.5825,0.16141-5.165,4.5193-1.4526,0.48422,1.9369-0.96843,1.2912,2.2597,0.1614-1.1298,4.8422-0.32281,1.7755,3.5509-0.16141-5.4878,12.428-9.5229-2.4211-1.7755-2.9053z"/>
    <path id="jacksonville" fill="#000" d="m180.98,130.42,18.119,1.1277,0.8876,7.1029,0,4.5194-3.5509-0.16141-3.7123-3.5509-0.32281-5.165-2.0983-1.9369-1.2912,1.2912-2.7439-0.80703-5.4878-0.80702,0.20037-1.613z"/>
    <path id="washington_dc" fill="#000" d="m197.94,112.53,5.871,1.4999,6.7387,2.0171-0.64573,4.8905-3.9946,1.6767-14.144-5.166,2.7846-5.3701,3.3897,0.45195z"/>
    <path id="philadelphia" fill="#000" d="m203.08,106.32-3.7269-0.32462-3.3048,1.169-0.93839,4.2908,16,3.8079,2.8249-4.5666-10.855-4.3764z"/>
    <path id="boston" fill="#000" d="m221.27,107.21,1.6337-1.3375-1.614-1.7755,7.586-4.8422-2.0983-0.80703,0-3.8737-4.0351,0.1614-4.5194,5.0036-3.3892,0,0.76684,2.8416,3.5508,5.8732,2.1186-1.244z"/>
    <path id="tijuana" fill="#000" d="m116.86,127.03,2.2597,5.4878,5.165,3.7123-3.0667,1.2912,2.7439,2.7439,1.9369,0.16141,2.0983,4.3579,4.8422,3.8737,2.9053-0.32281,0.80703-4.3579-9.2001-12.267-0.16141-3.0667-3.8737-1.6141z"/>
    <path id="chihuahua" fill="#000" d="m129.12,130.09,0.48422,1.9369,7.3843,11.542,6.5131,3.034,13.138-6.8297-3.7929-5.4867-2.5825-0.1614-1.4526,1.1298-3.5509-1.7755-0.96843-1.7754-5.4878-3.3895-1.2912,0.96843-8.3932,0.80699z"/>
    <path id="ecpatec" fill="#000" d="m137.12,144.06,0.40357,3.1469,4.8422,4.1965,0.16141,3.8737,1.4526,2.7439,16.302,6.4562,5.8106,0.16141,1.614-0.64562,5.165,1.614-0.64563-3.0667-4.0351-1.4526-5.165,0.48422-9.8457-3.2281-6.1334-3.7123-0.16141-5.165-9.7651-5.4065z"/>
    <path id="merida" fill="#000" d="m172.22,156.83-3.5516,4.2007,5.165,1.0157,0.64562,1.7755,3.0667-0.32281-0.80703-1.9369-1.614-1.2912,5.0036-0.96843,2.7439-2.5825,0.32281-1.9369,1.4526-1.2912,0.1614-2.4211-7.4246,0.32281-1.614,1.9369-2.0177,2.5342-1.5327,0.96518z"/>
    <path id="guatemala" fill="#000" d="m172.7,166.89,2.0983,2.2597,5.165,1.6141,2.7439-0.16141,2.0983,3.0667,2.4211,1.1298,4.8422,0,0.48421-6.779,0.64563-2.5825-2.5825-1.7755-9.2001-0.1614,0.80703-4.0351-3.7123,1.4526,0.80702,3.5509-4.8422,0.96843z"/>
    <path id="havana" fill="#000" d="m189.49,151.88,7.7474-0.64562,6.2948,1.2912,1.614,2.9053,7.7475,0,0-2.2597-14.204-6.779-6.779,0.16141-3.0667,2.7439z"/>
    <path id="gulf_of_mexico" fill="#00F" d="m163.34,137.36,0,12.267,2.5825,4.6808,7.2632,1.614,4.3579-5.972,9.3615-0.16141,4.5194-4.3579,5.4878-0.48421,0-1.4526-4.8422-3.2281-0.80703-5.6492-10.491-1.7755-1.4526,3.5509-9.6843-2.2597z"/>
    <path id="carribean_sea" fill="#00F" d="m186.26,152.69,1.614-0.64562,1.7755,1.614,6.6176-0.80703,6.2948,1.4526-0.48422,6.2948,5.8106,0.80703,4.8422,0.1614,15.818-0.48422,8.8773,5.0036-4.1965,7.2632-9.5229-2.0983-6.4562-2.0983-7.2632,4.0351-3.3895,5.4878-5.3264-2.4211-3.3895,1.7755-3.8737-2.5825,0-6.1334,1.4526-3.7123-3.5509-3.5509-7.7474,0.32281z"/>
    <path id="panama" fill="#000" d="m188.2,179.64,2.5825,1.2912,6.779,3.3895,4.3579-2.9053,2.0983,2.5825,2.2597-2.0983,0.16141-1.6141-5.165-2.9053-2.7439,1.7755-3.8737,0.1614-2.5825-3.8737-6.9404,0.48421,1.4526,2.0983z"/>
    <path id="nassau" fill="#00F" d="m198.37,143.97,0,0.80702,15.818,8.5545,5.6492-0.16141-4.8422-6.4562-6.9404-1.2912-0.80703-5.972-6.2948-1.2912,0,5.972z"/>
    <path id="port_au_prince" fill="#000" d="m203.69,156.4,0,3.3895,15.172,0.64562,0-5.972-4.0351,0.48421-0.48422,1.2912z"/>
    <path id="santo_domingo" fill="#000" d="m220.32,154.3-0.16141,5.8106,7.2632-0.16141-1.2912-5.972z"/>
    <path id="san_juan" fill="#00F" d="m228.07,155.43,0.64562,4.3579,10.007,5.6492-3.8737,7.9089,8.7159,5.4878,0.80703-15.172-3.7123-3.7123z"/>
    <path id="bogata" fill="#000" d="m207.73,180.77-3.3895,3.8737,0.32281,7.2632-3.3895,4.3579,4.1965,1.2912,4.0351,1.7754,6.1334,5.6492,4.5194,0.32281,0.80703,1.4526,2.4211,0-0.16141-5.6492-0.96843-5.165,5.6492,0-0.80702-9.8457-4.8422-0.1614-0.64562-2.0983-4.1965-0.64562,0.16141-2.9053-3.2281-2.2597,4.3579-5.8106-1.4526-2.0983-6.6176,3.8737z"/>
    <path id="caracas" fill="#000" d="m219.67,170.77,13.235,4.5193,0.80702-0.96843,9.2001,6.1334,0.48422,4.1965-2.4211,0.96843,0,1.4526,1.7755,1.4526-0.64563,1.614-7.2632,0.80703,0.48421,3.3895,0.48422,1.4526-3.8737,2.0983-2.9053-1.4526-0.80703-10.976-5.3264,0-0.80703-2.2597-3.7123-0.64562,0-2.5825-2.5825-2.0983z"/>
    <path id="quito" fill="#000" d="m200.3,196.59c0.64562,0.16141,9.8457,3.8737,9.8457,3.8737l0.1614,3.2281-3.0667,2.4211-2.0983-0.1614-1.614,2.9053-1.4526,2.0983-4.5193-2.9053,2.7439-1.4526-0.16141-2.2597-1.614,1.4526-0.32281-4.6808z"/>
    <path id="lima" fill="#000" d="m197.88,208.37-1.614,1.9369,1.1298,3.2281,2.2597,1.2912,7.9088,13.719,8.8773-6.9404-2.9053-4.6808,1.7754-3.2281,0-3.2281,6.1334-1.4526-0.32281-2.2597-6.2948-1.4526-3.7123-2.9053-2.5825,4.0351-2.7439,0.80703-3.5509,5.3264z"/>
    <path id="cuzco" fill="#000" d="m217.09,222.42-10.007,7.586,0.64562,2.5825,7.1018,4.6808,6.2948,3.8737,1.9369-2.0983,1.2912-1.4526-0.16141-12.751-3.2281,0.16141-0.48422-3.3895z"/>
    <path id="la_paz" fill="#000" d="m225.81,224.68-0.80702,18.077,2.9053,7.9089,2.7439-1.7755,4.6808,0.96843,3.3895-0.64562,3.5509,3.5509,6.779,3.8737-0.48422,4.1965,3.0667-0.16141,4.8422-0.96843,0.16141-5.6492-2.5825-3.0667-4.8422-1.2912,0-10.976-5.3264-3.3895-0.32281-5.3264-11.46-4.6808-0.16141-3.8737-3.3895,0.16141z"/>
    <path id="santiago" fill="#000" d="m223.71,239.2-2.9053,3.3895,0.96843,7.9089-0.96843,7.7474-2.2597,10.33,0.1614,6.2948-4.8422,9.6843-0.32281,9.0387,2.4211,0.96843-1.9369,9.2001-2.2597-1.1298-0.80703,9.8457,3.5509,8.0703,10.007,4.1965-0.48422-5.8106-7.2632-4.8422-2.9053-2.4211,4.3579-7.1018,0.48421-9.8457,1.6141-8.7159-0.64562-3.7123,3.0667-5.6492-1.9369-7.586,2.0983-5.165,3.2281-4.3579-0.64563-4.5194,2.0983-3.0667z"/>
    <path id="neuquen" fill="#000" d="m225,324.26,8.2317-0.80702-6.779-7.2632-0.64562-2.9053,6.2948-6.6176-0.64562-1.614-3.2281,0,0-3.3895,4.1965-1.2912,4.0351-5.165-2.9053-2.2597,5.8106-1.1298,0.1614-4.8422,8.0703-0.1614,2.9053-4.5194-26.309-5.0036-3.3895,5.165,1.1298,4.358-2.4211,8.3931-0.48422,10.491-3.8737,6.1334,9.3615,6.1334z"/>
    <path id="buenos_aires" fill="#000" d="m247.43,267.29-0.48422-2.2597,0-3.8737,0.96843-4.0351-9.6843-6.779-3.2281,0.64562-4.5193-0.96843-4.3579,5.3264,0.80702,4.6808-5.165,8.2317,1.7755,7.586,26.793,5.6492-2.4211-4.3579,0.48422-7.7474z"/>
    <path id="montevideo" fill="#000" d="m249.21,276.97,7.586,1.2912,2.9053-3.8737-2.2597-14.042-9.2001,2.0983z"/>
    <path id="paramaribo" fill="#000" d="m243.88,180.45,0.48422,4.3579-2.4211,1.4526,0.48421,1.2912,1.4526,1.2912-0.96843,1.7755,2.5825,6.4562,7.586-0.80703,0.64562-2.4211,2.9053,0.1614,0.96843,1.2912,3.0667,0.16141,2.7439-4.8422-5.0036-4.1965-7.586-0.1614z"/>
    <path id="andes" fill="#000" d="m247.43,225.64-2.3326-6.0811-13.485-19.098-3.2281-3.5509-4.5194,0.64563,0.64562,10.976-7.4246,3.5509-1.2912,4.6808,1.1298,3.3895,4.0351,0.64562,1.1298,2.4211,3.0667,0.1614,3.2281-3.2281,5.0036,0.32281,0,3.3895,10.814,4.8422,3.21-3.07z"/>
    <path id="manaus" fill="#000" d="m235.65,191.75,6.1334-0.64562,3.1473,6.9075,8.7564-1.0167,1.493,9.7655,6.2948,3.5509,3.45,11.427-16.745,3.9878-2.643-6.6022-10.774-15.543-2.9661-4.7939,4.8422-2.6462-0.97883-4.3885-0.01-0.002,0.0001-0.00018z"/>
    <path id="brasilia" fill="#000" d="m247.9,226.22-3.3289,3.1469,0.60529,5.1496,5.6492,4.5193-0.32281,9.8457,4.8422,1.1298,2.9053,4.3579,11.137-8.0703-4.2974-23.809-17.19,3.7304,0.00042,0z"/>
    <path id="belem" fill="#000" d="m264.06,191.43-2.7439,5.0036-3.5509,0-3.0667-1.614,1.1298,10.814,7.2632,4.3579,1.7754,6.779,10.653-5.165,11.46-6.1334-6.9404-1.1298-6.9404-3.7123-5.0036,3.5509,2.2597-4.1965-4.6808,0-3.0667,3.2281,0.64562-2.9053,3.3895-2.9053,0-2.7439z"/>
    <path id="fortaleza" fill="#000" d="m288.27,205.47,1.7755,0,6.4562,4.6808,3.2281,0.96844,0.32281,9.8457-4.963,5.9863-12.82-18.36,5.99-3.13z"/>
    <path id="rio_de_janeiro" fill="#000" d="m263.41,251.47,7.1018,5.4878,0,6.779-10.169,9.8457-1.7754-13.558-0.64562-4.6808z"/>
    <path id="sao_paulo" fill="#000" d="m264.54,251.15,5.8106-3.7123,16.302,0.96843-2.0983,3.2281-6.2948,0.16141-7.1018,4.1965z"/>
    <path id="reykjavik" fill="#000" d="m243.33,15.599-26.022,6.8478,8.2174,6.8478,19.63-0.45652,13.239,8.2174,0.45652,11.87,10.5,13.239,12.326,4.5652,6.8478-13.239,10.957-0.91305,6.3913-5.9348,14.609-1.3696,5.4783,9.1305,5.4783,6.3913,15.065-4.1087,2.2826-6.3913-6.8478-2.7391-10.5,2.2826-5.4783-6.3913,5.0218-3.6522,0-4.5652,10.044-4.1087-5.9348-8.2174,19.174-6.8478-23.283-0.91305-13.239-4.5652z"/>
    <path id="barents_sea" fill="#00F" d="m356.09,16.512-18.261,7.3044,6.8478,8.2174-11.413,4.1087-1.3696,4.5652-4.1087,2.7391,5.4783,5.4783,9.587-2.2826,6.3913,2.7391-1.7605,7.7525-15.224,4.1171,20.369,21.111,2.1766-5.8011,6.0962-2.8776-0.61793-6.4143,8.78-0.91305,6.2022-6.0179,13.239-3.1957,13.696-2.7391,10.957-10.5,26.022-5.0218,30.131,7.3044,21-0.91304,30.11-1.8344,10.193-4.2778-1.3479-13.296-0.15128-14.375-51.587,3.6522-121.46,1.372,0.0234-0.0021,0.00002-0.00001,0.00064,0.0001z"/>
    <path id="north_sea" fill="#00F" d="m387.37,58.262-11.4,2.7344-5.8707,5.5107,3.3389,6.6129,5.9348,5.9348,3.1957,0.45652-2.1766,5.1265,5.5614-0.96241,2.4163-4.3761,6.2022-0.67331-0.60843-7.2213-4.9205-1.9732-1.67-11.171z"/>
    <path id="baltic_sea" fill="#00F" d="m408.19,75.538-0.14518,2.2205,6.9242-1.5749,3.5509,0.1614,2.7439,0.80703,2.0983-2.0983,0-4.0351,2.7439-2.0983,3.8737,2.2597,0.48421-2.4211-1.9369-1.9369,11.298-1.1298,0.80702-2.4211-11.137,1.7755-3.8737-1.7755-1.4526-4.5193,8.2317-5.6492-0.48422-1.1298-1.8331-1.1309-3.8161,1.1309-3.8737,4.6808-6.4562,1.9369-0.32281,4.8422,3.8737,1.2912-5.0036,3.2281-0.96843,5.165-4.1965,0.64562-1.11,1.776z"/>
    <path id="english_channel" fill="#00F" d="m354.45,85.222,8.272-1.0805,0.96546-2.9371,1.7734-1.9287-0.22131,3.8977,0.83161,1.1449-3.0667,3.9703,9.3615-2.0983,5.8106-0.32281,2.2597-0.61267-0.16141,1.904-3.8737,1.4526-3.8737,1.1298-6.1334,0.32281,0.64562,3.0667,5.972,3.0667,0.48422,5.0036-17.492,0.98489-7.6869-5.0201,6.13-11.947,0.003,0.0031,0.00017,0.00005,0.00004,0.00003z"/>
    <path id="gulf_of_lions" fill="#00F" d="m378.33,112.5,7.9089-2.9053,9.8457,2.0983,8.8773,2.0983,6.2746-0.61375,0.0202-3.0986-5.165-2.7439-6.4562-4.5193-3.2281-2.0983-5.6492,2.2597-2.9053-1.1298-3.3895,0.64562-0.48422,3.3895-3.0667,1.4526-4.1965,2.9053,1.62,2.25z"/>
    <path id="alboran_sea" fill="#00F" d="m365.26,117.5-0.96843,2.0983,2.4211,1.2912,7.2632-0.80703,4.8422-3.0667,10.007-0.16141,8.5545-1.1298,4.5194,1.2912,2.7439-2.2597-17.916-4.8422-9.2001,3.3895-4.3579,3.5509z"/>
    <path id="adriatic_sea" fill="#00F" d="m409.65,98.78-3.1272-0.82248-1.2812,0.42768-0.75666,1.686,3.3895,2.9053,0.80703,1.2912,4.5193,1.9369,3.7123,1.2912,1.4526,2.2597,1.2912-0.1614-0.1614-4.6808-3.3895-1.9369-4.8422-1.9369-1.61-2.26z"/>
    <path id="ionian_sea" fill="#00F" d="m419.43,110.31-3.0264,0.073-1.7552-1.2666-0.80703,1.1298,1.7755,1.614-1.1298,1.2912-0.48421,1.7755-2.9053,0-0.1614,3.3895-5.8106-2.5825-3.0667,2.5825-1.2912,4.0351,1.614,2.7439,5.972,0,4.8422,3.3895,4.3579,0.96843,1.4526,1.7755,2.2597-0.96843-0.32281-4.0351,6.4562-1.2912,5.3264-4.1965-5.972-3.3895-2.5825-0.80703-1.4526-3.0667-3.2887-3.1644z"/>
    <path id="aegean_sea" fill="#00F" d="m446.75,117.7-9.5458-0.91305-2.7162-7.6023-3.0552-1.2082-3.2281,1.9369,2.4211,4.8422-2.2597,2.7439,3.7123,2.4211,24.534,0.80704-0.1614-2.7439-6.7676,1.3304z"/>
    <path id="eastern_mediterranean" fill="#00F" d="m431.27,122.67-3.2281,2.9053,4.0351,1.9369,6.2948,1.2912,3.5509,0.96843,4.1965-1.2912,6.2948,0.64562,3.7123-6.9404-1.4526-0.96844-2.4009-0.12953-2.2799,0-2.5825-0.16141-3.2684-0.29095-3.672,0.0977-6.4562-0.32282-2.7438,2.2596z"/>
    <path id="black_sea" fill="#00F" d="m447.25,95.068,3.0667,1.9369,1.7755,3.2281,4.8422-2.0983-1.614-2.0983,5.8106-2.4211,3.0667-0.1614-3.0667,3.3895-1.4526,2.2597,5.5481,2.4354,3.0064,4.6664-1.9369,1.2912-5.6492,0.32281-5.972-2.9053-5.165-0.16141-3.2281,1.9369-3.8737,0.32281-3.0667-1.4526,0.32281-3.2281,2.5825-3.8737,5-3.388z"/>
    <path id="caspian_sea" fill="#00F" d="m493.74,94.261,0.32281,2.9053-3.2281,0.32281-2.7439,2.0983,2.9053,3.3895,6.9204,2.8405-0.46414,1.8403-3.3895,0.1614-0.32281,1.7755,2.2597,1.9369,1.4326,5.3264-7.0818,0.32281-2.4211-1.9369-2.0983-0.1614,0-3.3895,2.9053-2.7439-3.8332-3.3391-2.1388-5.2154-1.7755-0.80703,3.5221-4.5639,5.3552-1.0853,3.8738,0.32271z"/>
    <path id="red_sea" fill="#00F" d="m450.97,138.49-2.9053-5.8106,5.165,4.5193,0.32281-4.6808,1.4729,2.9845,4.9228,7.2467,3.6115,4.9409-0.16141,4.8422,8.3931,9.0387,0,5.8106,1.9369,2.4211,2.9053,1.9369,15.656-6.4562,4.8422,6.9404-17.432,3.0667-6.2948-0.48421-2.5825-4.6808-5.1535-6.078-5.0819-7.8143-1.063-5.3149-8.56-12.44z"/>
    <path id="arabian_sea" fill="#00F" d="m486.15,131.87-3.0869-1.1309,0.0202,3.8748,2.5016,3.0811-0.7467,1.3858,3.0467,3.6044,3.9143-1.1309,1.2082,3.0275,4.2796,0.52337,4.0351-4.0351,0.48422,3.0667,3.2281,1.9369,2.0983,0.32281,3.3895,2.7439-5.3264,5.4878,0.32281,2.7439-6.6176,3.8737-4.6808,0.64562-2.0983,2.5825,5.4878,7.4246,19.934,5.7797,23.808-10.46-2.9053-4.5194-0.32281-5.972,0.16141-6.9404-1.7755,0.16141-1.9369,3.8737-5.0036-3.8737-5.6492-7.4246-16.463,0.32281-3.7123-1.4526-0.1614-2.7439-3.2281-0.32281-2.5825,1.9369-11.62-8.38-0.002-0.0132-0.00055-0.00041-0.00004,0z"/>
    <path id="mozambique_sea" fill="#00F" d="m499.71,216.12-13.558,10.33-4.5193,5.3264-7.7475,5.6492-0.1614,4.8422,1.614,1.9369-3.0667,5.0036,1.4526,6.9404,2.5825,2.0983,4.6808-0.32281,5.165-13.719,13.558,2.7439,45.834,65.845-13.696,38.804-25.109-0.91305-7.7609-3.6522-11.87,0.45652-5.4783,3.1957-16.891,2.7391-3.1957,1.8261-9.1305-2.7391-14.609,3.6522-29.217-0.45652-32.87,3.6522-23.739-0.45652-53.87-36.522-51.131-6.8478,170.28-39.261,7.7609,2.2826,2.7391-1.8261,10.5,0,12.326-12.783,0.45652-5.9348,6.3913-2.2826-0.91304-11.87,11.87-7.3044-0.45652-15.522-4.1087-10.044,15.522-15.978,7.7609-6.3913,10.215,0.55314,2.3901,26.949z"/>
    <path id="bay_of_bengal" fill="#00F" d="m556.96,166.25-1.2359,9.5316,4.4315,8.7293,27.848,2.2826,10.237,4.2749,0.8806-4.1412-6.3082-5.6349,0.32157-6.8452-1.4791-4.0884-0.45653-6.3913-5.9348,1.3696,0-7.3044-6.8478-6.8478-7.7609,1.3696-0.45652,3.1957z"/>
    <path id="gulf_of_thailand" fill="#00F" d="m599.94,170.44-1.4526-0.1614-0.96843,7.4246,1.614,1.4526,0.80703,3.7123,4.6808,3.3895,3.5107,2.6473-0.24215,3.2918,0.28235,3.261-2.2597,2.7439,3.2281,5.6492,4.1965,2.9053-1.1298,5.8106,5.6492,0.80703,2.9053-6.2948-0.80702-3.7123-1.9369-2.5825,0-7.1018-5.165-15.011-3.2281,2.4211-1.4526-3.8737-8.24-6.79z"/>
    <path id="south_china_sea" fill="#00F" d="m613.99,178.35,5.6492,15.979,2.4211,0.16141,12.59-10.491,0.96843-3.5509,6.779-9.5229-1.2912-6.779,2.2597-6.4562,0.96843-7.2632-3.5509-1.4526-4.9626-0.43345-1.4936,0.91767-3.3895,0.64562-2.4211-0.32281-0.80703,1.6141-5.0036,0.32281-0.80703,2.4211,1.9369,2.5825-2.9053,1.9369-3.7123-0.1614,0.32281-3.2281,1.614-1.2912,0.16141-2.5825-3.3895,0.1614-3.8737,4.1965-0.1614,2.0983,6.779,7.7474,0.32281,8.7159-4.8422,2.2597-0.17,1.75z"/>
    <path id="celebes_sea" fill="#00F" d="m621.73,207.24-2.7439,6.2948,10.007,0.96844,3.3895,2.2597,8.0703,0.48421,14.526,0.48422,12.751-1.7755,6.4562-3.3895-1.614-3.7123-5.3264-6.4562,2.5825-2.5825-11.621-16.302-2.9053,0.64562,0.64562,3.0667-4.6808-0.96843,0-3.5509-3.3895,2.5825-5.972,2.9053-4.6808,4.1965,2.9053,4.1965-1.9369,1.9369-0.32281,4.0351-2.7439,0.80702-0.32281,5.165-3.3895,1.1298-1.614-2.7439z"/>
    <path id="yellow_sea" fill="#00F" d="m644.17,107.82,3.3895-0.16141,0.1614,0.96844-2.0983,2.4211,0.96843,2.0983,3.5509-2.4211,4.0351,0,0,4.0351,3.5509,0.1614-0.64563,7.4246,6.8801-0.48421,1.6744,7.7474-9.2001,6.779-9.2001,6.4562-2.4211-1.1298-2.7439,6.9404-5.4878-0.80702,5.8106-7.7474,4.5193-4.1965,0.64563-4.3579-1.1298-0.96843-0.16141-4.0351-4.5193-5.6492,3.8737-3.2281,3.2281,0,0-2.7439-5.6492,0.16141-1.7754,1.1298-1.1298-2.2597-2.4211-1.4526,4.5194-2.9053,1.78-1.77z"/>
    <path id="sea_of_japan" fill="#00F" d="m664.65,121.95,0.02,1.8557,5.8106-4.8422,7.7474-0.1614,1.4526-3.8737,3.5509,0.80703,3.0667-3.8737,0.96844-5.6492-1.1298-2.0983,2.2597-2.2597,2.2597-0.32281,0.80702-5.6492,0.32281-11.944-1.9369-0.32281-1.2912,2.4211-0.32281,4.8422-13.558,12.59-7.379-1.3904,0.88233,2.7156-2.8648,1.0959-0.32281,2.9053-5.0036,1.614,0,1.2912,5.1247,4.3415-0.46399,5.9079z"/>
    <path id="coral_sea" fill="#00F" d="m617.05,218.22,10.814,31.313,10.289-5.569,4.9632-0.37112,2.3202-2.2432,4.0354-6.6033,1.9568,3.1192,3.4143-6.263,2.8806-1.5997,2.7439,0.1614,1.1298,3.0667,2.7439-0.32281,0.80703-7.586,5.6492-1.4526,4.5194,2.7439,5.6492-0.16141-2.7439,6.4562,9.5229,6.1334,2.7439-3.2281-0.16141-9.0387,2.2597-3.3895,3.8737,8.0703,3.7123,2.0983,1.6141,8.3931,5.3264,3.2281,3.5509,4.8422,6.9404,7.9089-0.48421,14.042-6.779,8.8773-0.1614,4.3579-3.7123,5.3264,0,6.4562,39.221,5.6492,0.80703-2.7439,9.2001-4.8422,3.0667-4.3579,2.0983-3.5509,2.7439-1.4526-0.32282-2.9053-5.0036-4.8422-12.267-26.148-6.6176-5.8106-7.2632-19.691-15.011,0-8.0703-1.7755-5.972-1.7755-5.3264-5.4878-4.5194,3.7123-4.6808-0.48422-1.4526-1.614-4.6808,0.48421-1.4526-3.2281,1.4526-1.7755-8.5545-5.3264,1.2912,3.5509-6.4562,3.8737-13.235,2.0983-15.737,3.7144-22.695-4.0318,0.0187-0.006-0.00004,0.00034z"/>
    <path id="bering_strait" fill="#00F" d="m1.1413,28.838,26.707,8.9022-11.023,2.0481-3.4453,3.0826-5.5439,0.0042-2.8143,3.767,4.5538,2.394-6.1517,1.715,0.38091,1.9579,4.4139,2.8397,7.2329,0.24684-4.2722,0.76635-3.9948,3.2003,4.9561,6.5024,5.1201,0.69734,1.5436,1.713,5.999,0.22826-2.2624,2.2348-19.756,7.164-2.33,0.179,0.6852-49.642z"/>
    <path id="arctic_ocean" fill="#00F" d="m0-1.2928,0.91305,29.674,29.217,9.5829,32.902,2.0481,29.151-1.135,11.522-13.009,58.816-9.8132,13.239-5.0218,26.935-0.91305,41.544,1.3696,5.4783,2.2826,68.022-5.9348,14.609,5.9348,145.63,0,52.044-3.6522,1.3897,28.719,9.3277-3.1707,38.588-8.2007,18.261-2.2826,32.413,0.91305,0.91305,6.3913,15.065,2.2826,5.9348-3.6522,10.5,1.3696,5.0218,6.3913,2.7391-4.1087,13.239,2.7391,14.152-1.3696,10.5-0.91304,10.5,2.7391,15.065,0.45652,1.3696,4.1087,20.087-0.91305,19.63,0.45652,7.3044,1.8261,7.3044,2.2826,7.7609,2.2826,0.45652-50.218-797.53,0.4552,0,0.001z"/>
    <path id="north_atlantic" fill="#00F" d="m259.86,89.096-1.0633,3.7718-2.2838,2.0734-3.4171,0.06719-1.7505-1.5082-6.6579,0.43796-0.32281-4.8422,2.2597-2.2597-9.6843,1.9369-0.64562,5.165,1.9369,0.32281,3.8737-0.96843,5.8106,4.8422-9.0387,1.9369-6.1334,3.8737-4.1965-3.5509-5.165,3.5509,1.1903,2.0006-9.9063,5.4241-3.0262,3.8572-1.2914,5.8106-11.137,9.0881,1.2509,6.1005,7.1018,2.5825,1.2912,4.5193,7.1018,3.5509,101.69-31.958,37.769-3.5509,1.3922-4.9388-1.2509-4.1328-7.7878-4.6324-87.87-8.555-0.02-0.007z"/>
    <path id="mid_atlantic" fill="#00F" d="m217.25,147.36,3.3895,5.3264,6.6176,0.1614,14.204,5.972,4.8422,5.3264-1.1298,14.688,6.2948,6.2948,7.2632,0.32281,8.5545,8.7159,0.32281,3.2281-2.7439,2.0983,6.1334,0.1614,3.2281,0.80703,6.1334,3.3895,9.3615,1.2912,7.4246,4.8422,3.2281,0.80703,47.776-28.246-1.2912-3.3895-8.3931-7.4246,0-6.779,2.7439-5.972-3.2281-7.2632,10.169-15.495,3.3895-0.80702,3.0667-3.5509,0.32281-4.5194,6.6176-5.3264,2.2597-3.7123-1.7755-1.4526-5.3264,0-1.1298-4.6808-37.607,3.5509z"/>
    <path id="south_atlantic" fill="#00F" d="m300.86,211.44,0.16141,9.8457-7.1018,8.2317-2.7439,10.976-6.4562,12.428-6.4562-0.48421-6.779,4.6808,0,7.2632-14.042,14.849-6.2948-0.16141,0.64562,4.8422-3.8737,3.8737-7.4246,0.1614-0.32281,3.7123-4.6808,1.4526,1.614,1.9369-4.6808,6.2948-3.5509,0.96843,0,2.2597,3.5509,0,0.80703,2.4211-6.2948,6.2948,0,1.9369,6.4562,7.7474,12.751-7.586,169.8-40.674,0-4.8422-5.0036-6.779-0.80703-4.1965-1.4526-4.0351,0-4.8422-6.779-10.007-0.16141-5.3264,5.0036-8.0703,0.16141-3.5509-2.7439-3.3895,0.32281-3.3895-2.0983-5.6492-6.779-8.7159,2.4211-6.779-0.32281-3.5509-2.5825-1.9369-4.8422,1.1298-5.3264-5.4878-11.298,4.3579-8.3931-0.96843-5.0036,2.4211-11.621-7.9089-47.81,28.27z"/>
    <path id="antarctic_sea" fill="#00F" d="m630,277.19-82.956,35.157-13.827,39.256-3.6522,6.3913,3.9548,1.6166,4.2626-2.9862,10.044-1.3696,5.9348-4.1087,44.283-1.8261,12.783-2.7391,7.3044,2.7391,9.1305-3.1957,10.044,3.1957,21.913-0.91304,3.6522,0.45652,33.783,0,20.087,4.1087,17.804,4.1087,21.457,4.5652-3.6522,4.5652-12.783,1.8261,6.3913,8.2174-14.609,3.6522,9.587,4.5652,23.283,4.5652,31.044-0.45652,1.8261-101.35-21.913-1.8261-12.326,10.044-10.392,11.644-7.5869-2.9695-38.63-5.9348-4.5652,1.3696-9.1305-12.326-6.8478-1.8261-2.2826-4.5652-6.3913-0.91305-5.4783-6.3913-6.8478-1.3696-9.1305,1.8261-4.1087,3.6522-8.1089-0.21784-2.8476,1.5874-10.45-1.84z"/>
    <path id="antarctic_ocean" fill="#00F" transform="matrix(0.50677291,0,0,0.40575998,216.38479,-2.319365)" d="m-11.531,586.5-146.47,59.747-106.82,1.0052-157.16-0.73892-2.4497,319.14,73.88,4.5-20.72-23.63,36.9,3.38,1.82-7.88-44.13-13.53,52.22-6.75,52.25-15.75,84.69,4.5,66.65,6.75-18-15.75,94.599,2.25,27,0,5.406-24.75,20.719-9,63.062-24.75,1.813,2.25-37.844,28.12,15.313,16.88-2.688,22.5-40.531,13.5-29.75-3.38-20.719,11.26,27.031,7.87,78.375,12.37,127.93-12.37-34.25-11.25,47.75-15.75,30.63-3.37,29.72-20.26-105.38-87.74-97.31-19.13-27.906,22.5-17.125,1.13-23.438-10.13-9.9062-23.63,5.406-23.62,0.907-15.75,0.9058-31.5,12.625-23.63-2.7188-20.24,5.4062-34.91,0.9063-25.88-18.562-14.59-0.031,0,0.0047,0-0.002,0.003z"/>
    <path id="indian_ocean" fill="#00F" d="m496.53,172.86-4.0959,1.2789-5.2064,13.347,11.217,0.20004,3.2103,28.593-12.912,11.298,1.614,6.4562-2.2597,8.3931,11.298,2.9053,46.485,66.176,83.931-35.024,1.9369-3.1622-4.8422-15.692-0.56497-7.6179-10.814-31.829-12.509-8.0374-10.169-13.719-6.9404-8.8773-24.856-1.614-5.165,2.2597-10.491-8.6851-4.2774-10.854-23.645,9.5323-20.943-5.3273-0.00023,0z"/>
    <path id="suva" fill="#00F" d="m696.63,207.24c0.32281,1.614,4.8422,3.7123,4.8422,3.7123l4.1965,2.7439-0.96843,2.2597,7.7474,7.7474,5.4878,1.2912h14.526l8.3931,20.983,7.1018,5.165,12.267,27.116,3.5509-0.32281,3.2281,4.5193,30.021,3.8737-0.96843-60.688z"/>
    <path id="south_pacific" fill="#00F" d="m659.5,182.39,11.944,17.109,3.2281,1.2912,1.614,4.8422,6.1334-1.9369,113.95,20.983,0.64562-72.632-112.02-30.344-4.5194,0.96843-1.2912,2.9053-4.8422-0.32281-2.542,1.5812-3.5512,3.7442-0.36309,5.9731-9.0387,6.9404-9.2003,4.2284-2.098,1.4208-2.2597,1.6141,0,5.165,3.5509,1.9369-0.64562,8.3931,9.0387,5.4878-0.32281,5.8106,2.59,4.84-0.0005,0.00096z"/>
    <path id="central_pacific" fill="#00F" d="m135.75,259.31,74.398-23.978-4.5194-3.8737,0.32281-3.2281-7.4246-12.267-3.5509-5.165,4.5194-4.1965-2.9053-3.5509,3.8737-8.0703,3.2281-3.2281-0.64562-7.1018-1.6141-1.9369-3.8737,2.5825-7.1018-3.2281-15.576,17.206-136.39-42.967-6.2142,3.1644-6.2949-5.2946-5.7703-3.2281-19.567,0.46,1.2125,107,133.89,0.89686,0.003,0.0002z"/>
    <path id="honolulu" fill="#000" d="m32.604,158.18,4.5193-2.5825-6.779-6.4562-7.7475-0.96843-1.6141,1.614,5.8106,3.5509z"/>
    <path id="east_pacific" fill="#00F" d="m188.2,181.42-4.1965-4.5194-1.6141-4.5193-8.0703-2.2597-5.4878-4.5193-8.3931,0.32281-17.109-6.4562-2.9053-4.5194,0-3.2281-3.2281-3.2281-4.5194,1.2912-6.1334-4.1965-1.614-3.8737-5.8106-4.5194,2.2597-1.2912-4.5193-3.8737-1.2912-4.5194-3.5509-2.9053-2.5825,0.32281-7.7474-12.59-2.9053-8.7159,2.5825-7.7474-1.9369-4.5193-6.4562-2.9053-2.2597-7.4246-2.5825-0.64562-4.1965,1.6141-3.2281-2.2597-0.64562-4.8422-3.5509-0.32281-13.235-8.7159-21.588-1.0815-3.7546,2.0973-2.632,3.2893-5.9613,3.8311-27.721,8.9729,0,67.79,18.077-0.64563,2.5825-2.9053,9.0387,1.2912,6.779,6.779,136.55,43.257,13.55-17.08z"/>
    <path id="west_pacific" fill="#00F" d="m796.7,58.429-18.4-5.165-4.1965,3.2281,3.2281,2.5825-8.0703,1.9369-14.526,5.165-12.267,0.32281-4.1965,1.9369,1.2912,4.1965-13.881,13.881-3.2281-1.9369-0.64562-5.165-1.2912-2.2597,1.6141-6.4562,5.4878-2.9053,11.298-5.165,0.32281-3.8737-6.779,4.1965-8.0703-0.32281-4.5194,4.1965-8.3931,0.32281-3.2281-0.32281-15.495-0.32281-13.881,9.3615,4.5194,2.2597,5.165-0.32281,1.614,1.6141,4.1965-1.9369,2.5825,11.621-3.5509,8.3931,4.8422,2.5825,13.558-5.165,1.614,3.5509-12.912,4.1965-4.5193,2.5825-2.5825,1.614-3.5509-1.9369,2.5825,4.8422-0.32281,2.9053-1.9369,4.8422-0.96843,4.1965,108.46,29.053z"/>
    <path id="dublin" fill="#000" d="m355.25,77.152-1.9369,5.972,1.1298,1.6141,8.5136-1.1771,0.14248-2.6657-7.8451-3.7433-0.004,0z"/>
    <path id="edinburgh" fill="#000" d="m361.22,67.629,7.9089-0.48422,3.8737,5.0036-6.2948,5.165-1.1298-2.9053-3.8737-1.7755z"/>
    <path id="cardiff" fill="#000" d="m370.1,75.376,3.3895,5.0036-0.48421,5.0036-8.8773,2.2597,2.5825-3.3895-1.4526-2.0983,1.9369-4.6808z"/>
    <path id="london" fill="#000" d="m374.3,81.187,3.8737-1.9369,3.3895,0.96843-2.4211,5.165-5.6492-0.1614z"/>
    <path id="manchester" fill="#000" d="m372.68,72.955-2.2597,2.4211,3.7123,5.165,4.0351-2.0983z"/>
    <path id="oslo" fill="#000" d="m388.66,58.429,14.849-3.5509,10.007-10.653,25.663-4.8422,7.7474,1.9369-5.3264,3.0667-2.0983-1.6141-4.8422-0.32281-1.9369,2.7439-7.7474-0.48422-4.358,1.2912-6.779,2.4211-7.2632,7.4246-2.9053,1.9369,0.16141,4.3579,0.64562,2.4211-9.2001,6.4562-5.8106-2.4211z"/>
    <path id="stockholm" fill="#000" d="m401.09,68.274,4.6808,7.2632,2.2597-0.1614,0.80703-2.2597,4.1965-0.80703,0.64562-5.0036,4.8422-2.4211-3.8737-1.4526,0.80703-5.0036,6.9404-2.0983,3.5509-4.5193,4.1965-1.6141-1.1298-3.8737-3.8334-1.0487-10.532,3.4697-10.33,9.3615,0.16141,4.0351,0.96843,2.5825-4.38,3.552z"/>
    <path id="copenhagen" fill="#000" d="m400.12,68.759-5.6492,3.0667,0.80703,6.6176,4.1965-1.6141,3.5509,0.96843,4.8422,0-0.96843-1.9369-2.0983-0.32281z"/>
    <path id="helsinki" fill="#000" d="m429.02,45.516,4.8422,0,1.6141-2.2597,4.8422,0.48422,0.96843,2.0983,2.7439,2.0983-1.7754,1.7755,1.2912,4.6808,1.614,2.5825,1.9369,1.9369-6.6176,3.7123-9.2001,1.9369-4.6808-1.4526-1.6746-4.0834,8.2922-5.1167-0.32281-2.7439-2.0983,0-0.48421-3.5509-1.28-2.098z"/>
    <path id="amsterdam" fill="#000" d="m393.51,78.927-5.165,1.1298-1.7754,3.7123,4.0351,1.7755,2.9053-3.8737z"/>
    <path id="brussels" fill="#000" d="m381.56,84.576,4.6808-0.32281,4.8422,2.0983,0.48422,2.9053-7.4246-2.2597z"/>
    <path id="picardy" fill="#000" d="m380.92,85.868,1.7755,0,1.9369,2.0983,2.9053,0.48422-2.5825,1.7755-9.2001,0.80703-0.96844-1.9369,5.6492-1.2912z"/>
    <path id="nantes" fill="#000" d="m375.11,91.678-0.32281-2.0983-8.0703,0.96843,0.80703,1.7755,4.3579,1.9369,2.0983,2.4211,2.5825,0.1614,0.80703-5.4878z"/>
    <path id="bordeaux" fill="#000" d="m377.2,95.068-0.48421,2.2597-3.0667-0.1614,0,4.6808,1.614,1.614,2.0983,0,2.0983-3.2281-0.48422-4.8422z"/>
    <path id="paris" fill="#000" d="m378.01,91.517,0,3.0667,1.7755,0.48422,0.48421,2.9053,4.5194,0,0.1614-7.2632z"/>
    <path id="marseilles" fill="#000" d="m381.08,98.78-3.0667,4.8422,5.0036,0.16141,2.2597-2.2597,3.2281-0.16141,1.614,1.1298,3.4703-1.0487-0.40357-4.4391-2.4211-1.9369-1.9369,2.2597-7.7474,1.4527z"/>
    <path id="strasbough" fill="#000" d="m385.6,90.71,0,6.2948,2.2597-0.32281,2.7439-2.4211,3.0667-1.9369-0.32281-2.5825-4.8422-0.64562z"/>
    <path id="bilbao" fill="#000" d="m356.38,102.98,1.2912,3.5509,5.972-0.32281,11.783-0.1614,5.6492-2.0983-6.1334,0-2.5825-2.0983z"/>
    <path id="lisbon" fill="#000" d="m356.87,107.5,0.32281,2.9053-1.2912,2.2597,1.1298,0.32281,0.1614,3.0667,4.1965,0.32281-0.48422-6.4562,2.4211-3.2281z"/>
    <path id="madrid" fill="#000" d="m364.61,107.01,10.814-0.80702-4.0351,8.5545-9.5229-0.64563-0.16141-3.2281z"/>
    <path id="cordoba" fill="#000" d="m362.19,114.6,10.491,0.96843-0.16141,0.96843-7.586,0.64562-0.96843,0.96844-1.7754-1.7755z"/>
    <path id="barcelona" fill="#000" d="m375.59,106.53,5.3264-1.7755,2.9053-0.64562-0.32281,1.4526-7.4246,4.3579,1.2912,2.5825-4.0351,3.7123-0.96843-1.7755z"/>
    <path id="hamburg" fill="#000" d="m394.15,79.25,0.16141,3.3895,7.4246-0.32281,1.1298-4.1965-2.9053-0.80703z"/>
    <path id="cologne" fill="#000" d="m393.67,82.962-2.0983,2.4211,0.48422,3.3895,1.9369,0.32281,0.1614,1.7755,3.8737-2.0983z"/>
    <path id="munich" fill="#000" d="m394.15,91.355,0.64562,1.4526,9.3216-0.29094,2.3-1.9687-2.7439-3.3895-4.8422,1.9369-4.69,2.26z"/>
    <path id="frankfurt" fill="#000" d="m395.28,83.608,3.3895,5.165,4.3579-2.2597-1.2912-3.5509z"/>
    <path id="berlin" fill="#000" d="m403.67,78.443,5.165,0.1614,0,3.3895-0.00001,2.7439-1.9369,0.96843-2.9053,0.64562-1.4526-3.2281z"/>
    <path id="zurich" fill="#000" d="m393.51,92.969,3.3896,0.35468,0.48407,1.905,1.1298,1.4526-3.2281-0.48422-1.2912,1.2912-2.5825-3.0667,2.0983-1.4525z"/>
    <path id="milan" fill="#000" d="m393.67,97.973,0.1614,3.2281,2.9053-1.1298,1.4627-0.61376,0.79699-2.2915-3.3895-0.48422-1.9369,1.2912z"/>
    <path id="alps" fill="#000" d="m397.54,93.292,0.48421,1.9369,1.7755,1.4526,3.2281-0.96843,5.165-1.1298-2.6834-2.0828-2.3202,0.64562-5.66,0.145z"/>
    <path id="florence" fill="#000" d="m397.93,100.62,2.522,1.8721,1.2307-1.5482,0.5448-4.101-2.8247,0.59731-0.58512,2.0983-0.464,0.85529-0.42369,0.22618z"/>
    <path id="venice" fill="#000" d="m402.38,101.36,0.10082-2.1466-0.10082-2.6956,6.2948-1.2912-0.48422,2.2597-2.2294,0.16245-1.3417,0.64562-0.46405,1.9358,1.2912,1.4526,1.7755,1.4526,2.6128,2.0418-0.78681,0.62198-6.67-4.43,0.002-0.009z"/>
    <path id="rome" fill="#000" d="m402.04,101.55-1.5938,1.2676,8.5545,5.6492,0.80702-1.7755-7.7677-5.1413z"/>
    <path id="naples" fill="#000" d="m410.3,106.74-0.97841,1.8886,2.7439,1.9369-0.64563,2.7439-6.6176,1.1298,0.1614,1.1298,5.6492,1.9369,0.1614-2.9053,2.7439-0.16141,1.4526-2.5825-1.2912-1.7755,1.1298-1.2912,2.2597,1.4526,1.2912-0.80703-2.1588-1.8967-6.0729-2.1384-0.80703,0.48422,0.97847,0.85533z"/>
    <path id="g_dansk" fill="#000" d="m409.49,78.927,5.165-2.2597,4.3579,0.32281,3.2281,0.80703,3.3895,0.32281,0.32281,2.0983-16.463,0.96843z"/>
    <path id="wronclaw" fill="#000" d="m409.53,81.525,0.7667,3.0513,3.3895,1.6141,2.7439,0,2.0983-5.165-8.9984,0.49958z"/>
    <path id="warsaw" fill="#000" d="m427.08,78.766,3.3895,1.4526-0.1614,1.4526-1.1298,2.0983,0.80703,1.9369-11.783-1.4526,1.1298-2.9053,7.4246-0.32281z"/>
    <path id="krakow" fill="#000" d="m417.56,84.576-0.80702,2.5825,4.1965,2.0983,6.1334,0.1614,2.5825-2.9053z"/>
    <path id="prague" fill="#000" d="m409.97,85.061-5.972,2.0983,2.9053,2.7439,1.6746,0.35468,1.7149-0.35468,6.9404,0.1614-0.32281-2.4211-3.8737-0.96843-3.07-1.614z"/>
    <path id="vienna" fill="#000" d="m407.39,91.033-1.1298,1.2912,2.5825,2.4211,4.0351-0.1614,2.4211-2.5825,0-1.6141-5.3264,0z"/>
    <path id="bratislavia" fill="#000" d="m415.94,90.871,1.614,1.6141,4.5194-0.96843,4.8422-0.32281,0.64562-1.2912-6.4562-0.1614-3.0667-1.2912-0.32281,1.6141z"/>
    <path id="vilnius" fill="#000" d="m422.97,77.298,3.7526,1.1298,4.2371,0.82248,5.3264-4.1965-3.3895-2.1949-9.0387-0.06478-0.3229,3.7123-0.56497,0.7916z"/>
    <path id="riga" fill="#000" d="m426.11,70.05,4.4386,1.501,0.72638-2.7922-1.9369-2.0983,10.653-0.96843-1.7754,4.0351,1.1298,3.7123-3.8737,0.32281-2.4211-1.9369-1.7755,0.80703-7.1018-0.32281,1.94-2.26z"/>
    <path id="minsk" fill="#000" d="m436.92,74.731,8.2317-1.3242,4.5799,7.2807-2.7844,1.5164-8.7361,2.05-7.4246-1.4526,0.16141-2.5825,5.98-5.487-0.008-0.0008z"/>
    <path id="moldova" fill="#000" d="m440.47,84.899,0.96843,6.779,2.7439,3.3895-2.2597,3.5509-3.3895-1.4526,0.48421-3.5509-3.0667-2.7439-8.3931,0.80703,0.64562-2.4211,2.5825-2.0983,0-3.7123z"/>
    <path id="budapest" fill="#000" d="m414,94.906,1.9369-2.9053,1.4526,0.80703,9.3615-1.2912-0.1614,1.2912-3.2281,3.2281-4.0351,0.32281-2.5622,0.75871-2.76-2.212z"/>
    <path id="zagreb" fill="#000" d="m413.36,95.39-4.1965-0.32281-0.48421,2.4211,2.5825,2.7439,5.0036,2.5825-1.9369-3.7123,2.6228-1.356-3.58-2.352z"/>
    <path id="sarajevo" fill="#000" d="m417.88,97.327,1.9369,0.64562,0.32281,3.8737,1.7755,1.9369-1.4526,1.4526-3.0667-2.2597-2.3405-3.7288,2.82-1.924z"/>
    <path id="tirana" fill="#000" d="m420.3,106.37-0.1614,3.8737,3.2281,3.0667,1.9369-1.7755-0.64563-4.0351,0.80703-1.7755-2.7439-2.2597z"/>
    <path id="belgrade" fill="#000" d="m420.14,96.682,3.5509,0,5.0036,4.1965-1.4526,3.7123-2.7439,0-3.5509-2.7439z"/>
    <path id="bucharest" fill="#000" d="m427.56,92.485,7.586-0.96843,2.9053,1.7755-0.48422,3.7123,3.2281,1.7755-1.1298,2.7439-5.165-0.48422-2.2597,1.4526-2.2597-0.48422-5.4878-5.6492,3.0667-3.2281z"/>
    <path id="sofia" fill="#000" d="m429.02,102.17-1.6141,3.3895,2.7439,1.4526,3.4499,1.1309,5.3064-2.6154,0.28235-3.1962-4.358-0.48421-2.2597,1.4526-3.55-1.12z"/>
    <path id="athens" fill="#000" d="m425.95,106.2,1.1298-0.16141,4.1965,1.7755-3.3895,1.7755,2.2597,5.3264-2.7439,2.2597-3.2281-1.4526-0.32281-1.9369,2.4211-2.2597-1.1298-3.5509z"/>
    <path id="sevestapol" fill="#000" d="m442.73,91.678,7.7474-1.9369,14.526,2.7439-3.8737,0.96843-6.779,2.7439,2.0983,1.9369-4.0351,1.6141-1.9369-2.9053-2.5825-2.9053-2.7439,1.9369z"/>
    <path id="kiev" fill="#000" d="m441.06,84.044,8.2922-2.2114,2.7439-0.1614,3.2281,3.2281,6.4562,2.2597,4.5194,0.96843-1.4526,3.3895-14.042-2.2597-8.2317,1.7755-1.5135-6.9887z"/>
    <path id="fes" fill="#000" d="m363.81,119.92,3.0667,1.6141,5.6492,0.1614,1.1298,3.8737,0.32281,2.7439-4.6808-0.80703-0.96844,3.3895-4.1965,1.614-6.1334,2.4211-0.16141,2.4211-10.491,0.64562,1.2912-1.614,3.2281-0.32281,3.8737-4.0351,0.32281-4.8422,7.2632-5.0036z"/>
    <path id="arkhangelsk" fill="#000" d="m507.54,45.039,11.579-0.51404-0.52557,9.3269-4.076,5.3523-65.486,0.19327-5.4878-8.3931,2.5825-2.5825-2.9053-2.5825,4.5193-4.1965,21.628,5.4878,27.88-0.9334,10.291-1.1581,0.0005-0.00017-0.00004,0z"/>
    <path id="saint_petersburg" fill="#000" d="m441.6,63.594-1.614,4.8422,9.6843-0.32281,7.4652-7.5542-9.73-0.516-5.81,3.551z"/>
    <path id="ryazan" fill="#000" d="m439.18,69.501,2.0984,3.1315,4.8422,0,4.5597,7.9407,6.4159,4.0033,4.5194,0.96843,5.165-6.1334-12.912-13.881-3.2684,3.518-11.42,0.45252z"/>
    <path id="moscow" fill="#000" d="m458.39,61.011-3.2281,4.1965,13.235,13.881,12.912-4.5193,6.4562-13.881z"/>
    <path id="astrakhan" fill="#000" d="m466.95,90.195-5.6491,8.9069,9.3615,3.5509,6.779,1.2912,4.8422,2.9053,2.2597-0.64562-2.2597-3.8737-2.2597-2.9053,3.188-2.6791,0.12078-2.6133,0.12137-3.2897-16.504-0.64755z"/>
    <path id="kazan" fill="#000" d="m489.06,60.366-5.4878,13.235,7.1018,9.6843,6.4562,0.32281,3.2281,2.5825,4.8422-1.6141,6.779,1.2912-1.614-2.5825,2.9053-5.4878,10.653-0.32281,6.45-3.227-15.26-13.897-26.06,0.017z"/>
    <path id="novosibirsk" fill="#000" d="m569.23,68.273-13.961-1.065,0.12098,17.788,4.6808,2.4859,0.96843-1.9369,10.33,2.9053,8.0703-2.2597,6.779-0.64562,4.8422,1.5911,2.8661-2.3542,2.2988-1.8194,7.4246,0.64562,2.9053,1.9369,7.2634-6.0039-11.58-7.943-12.1-1.29-10.17-0.904-10.74-1.131z"/>
    <path id="siberia" fill="#000" d="m566.81,32.118-14.529,1.6367,4.0758,17.596-0.56305,7.9471,0,7.3302,47.757,4.0149,10.545,8.102,7.855-9.5738,0.13996-6.9414-10.695-8.0598,7.9904-26.868-20.863-0.93133-8.6338,1.1638-17.228,2.8087-5.8513,1.7738-0.001,0.00033-0.00003,0z"/>
    <path id="yakutsk" fill="#000" d="m609.47,86.19,6.779,0.64562,1.614,2.5825,9.3615-1.2912,2.5825-2.2597,4.1965,2.2597,7.4246-1.9369,2.5825-4.5193,12.267-1.9369,11.621-20.337,20.66-20.337-17.755-0.96843-2.9053,3.5509-6.4562-4.1965,0.36328-3.6805-10.143-2.1026-4.3438,3.3301c-3.9126,0.1647-13.192-1.3741-17.105-1.8074l-0.73088-5.6256-7.8686,0.09869-7.95,24.993,9.2181,8.5153,1.8369,7.3736-15.215,17.649h-0.02l-0.014,0.00082z"/>
    <path id="vladivostok" fill="#000" d="m657.89,81.671,2.2597,6.1334,3.5509,0.32281,4.8422,3.8737,7.1018-1.2912-3.5509,7.4246-2.5825,0-0.32281,3.5509,4.8422,0.64562,12.59-11.621,0.32281-4.5193,3.5509-4.1965-1.2912-2.2597-2.5825-1.2912-8.9671-1.4087,11.915-10.037,28.183-1.1441,6.1322-4.2424,6.9911,0.12421,7.1018-3.5968,1.9855,2.935-17.048,10.784,1.3533,12.965c9.8494-3.745,11.632-10.851,14.469-17.518l15.271-3.2874,18.427-6.0131,6.0942-6.2279,18.861,5.4688-0.74016-7.2031-21.636-6.7466-33.192-0.68363-9.0387,0.32281-4.8422-2.5825-13.558-0.32281-12.267-3.2281-12.912,3.2281-20.014,20.66z"/>
    <path id="algeirs" fill="#000" d="m372.98,121.28,6.3913-3.6522,15.978-0.91305,0,4.5652-1.1413,2.9674,4.5652,5.0218,0,4.5652-23.739-5.9348z"/>
    <path id="tunis" fill="#000" d="m395.58,116.72,2.7391-0.45652,2.7391,1.3696-0.45653,4.1087-1.3696,2.2826,2.5109,1.5978,0.45652,1.3696-2.5109,3.1957-4.5652-5.9348,1.1413-3.8804z"/>
    <path id="timbuktu" fill="#000" d="m351.98,164.65,13.239,0.22826-1.5978-13.011-0.22826-8.4457,0-2.5109-5.0218-2.5109,0.68478-2.7391,9.8152-4.1087,17.576,25.109-0.45652,7.5326-10.272,2.0544-8.2174,4.337-2.9674,6.3913-4.5652-0.22826-2.7391-4.5652-4.7935,0.68479-2.7391-3.8804,0.22826-1.8261z"/>
    <path id="west_sahara" fill="#000" d="m339.2,152.33,2.7391,5.0218-0.91304,4.7935,3.4239-0.22827,5.25,4.1087,1.5978-2.2826,13.467,0.45652-2.7391-11.413,0.45653-10.957-5.25-3.8804-10.044,0.91304z"/>
    <path id="east_sahara" fill="#000" d="m370.24,128.13,28.989,6.1631,32.413,7.0761-0.73901,11.644-16.548-4.762-8.2882,6.9401-0.41231,5.2-7.6543,1.4826-10.468-0.49401,0.51074-4.9441-18.717-25.109,0.91387-3.1963-0.00002-0.0005,0.00039,0.00001z"/>
    <path id="tripoli" fill="#000" d="m403.11,125.39,5.4783,0.68478,8.6739,4.7935,3.6522,1.3696-0.45653,5.7065-20.772-4.5652,1.1413-3.6522z"/>
    <path id="benghazi" fill="#000" d="m421.83,130.87,0.22826-4.1087,5.9348-0.91305,4.1087,2.5109,0.45652,12.326-11.641-2.5109z"/>
    <path id="alexandria" fill="#000" d="m433.01,128.59,5.7065,1.5978,5.4783-0.22826,0.91304,5.4783-11.87-1.5978z"/>
    <path id="suez" fill="#000" d="m453.56,128.36,1.5978,4.7935-2.5109-1.5978,0,4.337-5.4783-3.8804,9.1305,15.294-4.337,3.4239-2.0544-0.91304-3.8804-14.38-1.5978-5.7065,2.5109-1.1413,4.5652,1.1413z"/>
    <path id="cairo" fill="#000" d="m438.03,135.66,0.68478,9.3587,8.4457-0.68478-1.3696-7.9892z"/>
    <path id="aswan" fill="#000" d="m433.24,135.21,3.4239,0,1.5978,10.957,9.587-0.45652,2.2826,4.1087-17.12,0.22826z"/>
    <path id="monrovia" fill="#000" d="m340.34,162.83-1.3696,3.1957,0,4.7935,7.7609,7.0761,2.7391,4.1087,10.728,8.4457,3.1957-2.0544,6.8478-1.3696,1.3696-8.4457-4.7935-1.5978-6.6196,0.68479-3.8804-4.1087-4.5652,0-3.1957-4.337,0.22826-2.9674-5.0218-3.4239z"/>
    <path id="accra" fill="#000" d="m370.92,187.94c0-0.91304,2.2826-10.272,2.2826-10.272l-7.0761-2.0544,2.5109-4.337,9.1305-4.5652,7.5326-1.5978,4.337,4.337-3.8804,3.4239-0.45653,4.7935-2.7391,3.1957v4.337l-8.6739,3.6522z"/>
    <path id="lagos" fill="#000" d="m383.94,184.06,0-3.4239,2.0544-2.2826,0.22826-4.1087,18.489,5.7065-1.8261,5.4783-3.1957-1.1413-2.9674,3.8804,0,1.3696-6.3913,0.22827-2.5109-4.337z"/>
    <path id="ngazargamu" fill="#000" d="m390.25,169.55-3.3483,4.0019,17.804,5.7065,2.2826-2.0544-0.88224-16.345-7.3742,1.6934-10.877-0.49531-1.2088,3.2144,3.6043,4.2786z"/>
    <path id="douala" fill="#000" d="m398.09,189.99,1.5978-4.5652,4.5652,0.68478,2.2826-7.5326,5.4783,4.7935,7.7609-2.0544,11.379,1.0746,2.5109,1.8511,3.0015,3.6939-7.9892,1.5978-3.1957,1.3696-5.4783-2.9674-2.0544,3.6522,0.22826,2.7391-3.4239,7.9892-1.8261,5.7065-4.5652,2.0544-5.4783-0.22826-6.1631-7.3044,2.7391-7.7609-1.37-4.78z"/>
    <path id="kinsasha" fill="#000" d="m403.79,211.45,9.8152-2.5109,5.7065-14.152,0-2.7391,0.91304-2.7391,4.8049,2.7412,10.891-3.1914,8.8252,2.4942,1.0442,4.5756-2.5109,3.1957,0.45652,3.6522,1.3696,3.8804-1.8261,5.4783,2.9674,6.1631-4.1087,0.68479-1.5978,6.6196,2.0544,3.1957-1.8261,1.1413-3.8804-3.1957-5.9348-1.8261-4.7935-0.22826-1.1413-3.8804,0-5.25-4.7935,0.22826,0,2.5109-5.0218-0.68478-1.5978-3.6522-8.9022-0.22826-0.92-2.28z"/>
    <path id="luanda" fill="#000" d="m404.94,215.33,7.9892-0.22826,2.2826,3.4239,5.4783,1.3696,0.91305-2.9674,2.2826-0.45652,1.8261,9.587,4.7935-0.22826,0,3.4239-4.5652,0,0.45652,7.5326,2.2826,2.2826-0.45653,1.5978-3.8804,0.22826-0.22826,7.7609-2.5109,0.22826-0.0328,13.593-2.0001,2.0418-3.511-1.2523-4.3584-1.7089-1.2825-5.8259-0.91305-5.25-5.4783-9.1305,0-7.9892,4.337-7.5326,0-3.1957-3.1957-3.1957-0.22-4.08z"/>
    <path id="cape_town" fill="#000" d="m412.24,262.58,7.5326,2.5109,2.5109-2.7391-0.22827-6.1631,4.5652,3.4239,3.4712,2.2258,8.8882,7.9204,3.0102,2.2951-4.4126,3.9935-11.185,0-1.3696,1.3696-7.9892-1.8261,0-6.3913-4.8-6.62z"/>
    <path id="johanesburg" fill="#000" d="m428.02,257.44-1.1267,1.2976,3.8584,2.5197,19.388-0.26367-0.29385-2.9904-3.13-7.5284-6.8478-0.91305-5.25,6.6196-0.22827,1.3696-6.3699-0.11104,0.00012,0.00006z"/>
    <path id="harare" fill="#000" d="m422.51,249.57,2.2826,0,0.22826-7.7609,4.7935-1.3696,0.45653-1.5978-2.7391-2.5109-0.45652-5.4783,3.8804-0.68478,0.68479-4.1087,4.337,0.91305,4.7935,4.1087,2.7391-2.2826-2.0544-3.4239,1.3696-5.4783,4.1087-0.68478,3.4239,1.5978,3.6522,0.68478,0.68479,4.337-0.45653,5.25,2.7391,1.8261-1.3696,4.1087-3.1957-3.1957-2.2826-2.5109-5.0218,2.0544,0.22826,2.0544,4.337,1.8261,0.91305,7.7609-2.9674,5.0218-7.5326-1.3696-5.4783,6.8478-0.68479,1.5978-6.3913,0-1.5978,0.91305-3.6522-2.2826z"/>
    <path id="quelimane" fill="#000" d="m455.84,226.51,4.337-0.68478,4.1087-0.91305,1.1413-3.1957,1.3696,13.239-11.641,8.9022,1.1413,10.957-6.3913,2.5109-1.8261-5.9348,3.1957-6.1631-0.68478-7.7609-3.6522-2.5109-1.1413-1.5978,4.1087-0.91305,6.1631,5.7065,1.8261-5.25-3.1957-2.7391z"/>
    <path id="antananarivo" fill="#000" d="m487.11,226.28,2.2826,8.4457-8.4457,22.37-5.9348-0.68478-2.0544-6.8478,4.1087-5.25-2.0544-3.4239,0-3.6522,7.3044-4.5652z"/>
    <path id="nairobi" fill="#000" d="m445.79,191.82,6.3913-1.1413,3.4239-2.9674,5.7065,3.8804,7.5326-1.1413-0.45653,12.783-5.4783,8.4457-16.891-6.163-1.3696-5.9348,2.2826-3.8804-1.13-3.89z"/>
    <path id="khartoum" fill="#000" d="m456.75,148.67,2.9674,3.4239,0.22826,5.25,2.5109,3.1957-3.4239,2.0544,0,4.7935-4.7935,8.2174-3.033-2.5025-1.304-2.0627-2.5109,1.1413,0.68478,2.7391-2.5109,1.8261-2.2826-0.91305-1.3696-25.109,8.2174-0.22826,2.5109,0.68478,4.09-2.51z"/>
    <path id="al-fashir" fill="#000" d="m432.33,150.96,8.9022-0.22826,1.5978,25.337-0.91305,1.8261-5.7065,0.45652-2.9674-2.7391-2.2826,3.1957-3.8804-7.5326,2.5109-7.0761z"/>
    <path id="juba" fill="#000" d="m448.76,171.97,5.0218,4.3266,0,3.6522-2.7391,1.8261,3.6522,4.337-2.9674,4.1087-6.8478,0.45652-7.0761-2.2826-6.3913-8.6739,2.0544-2.5109,3.1957,2.7391,5.4783-0.45652,2.0544-2.7391,2.7391,1.5978,1.3696-1.8261,0.4562-4.5549z"/>
    <path id="mogadishu" fill="#000" d="m463.6,161.91,10.272,14.38,17.348-2.0544-1.5978,5.25-6.6196,11.413-13.696,12.326,0.22826-13.467,7.3044-1.1413,6.1631-6.6196-10.728-5.0218-2.7391-2.9674-5.25-6.6196-4.5652,0.45652,0.22826-4.337z"/>
    <path id="addis_ababa" fill="#000" d="m459.26,168.99,4.5652-0.45652,9.3587,10.044,8.6739,3.6522-5.4783,6.1631-5.9348,0.68478-8.6739,1.8261-5.25-4.337-4.5652-4.7935,2.5109-1.3696,1.1413-4.7935z"/>
    <path id="constantinople" fill="#000" d="m434.38,108.27,5.0218-2.2826,3.4239,1.8261,4.7935-1.1413-0.087,3.2165-10.869,1.8052-2.27-3.44z"/>
    <path id="izmir" fill="#000" d="m436.45,112.17,4.4498-0.45861,2.0971,2.1935,8.0882,2.307,1.7241,1.8721-2.1413,0.35383-1.6748,0.34343-2.5109-1.8261-9.1305-0.68478-0.90193-4.1004,0.00033-0.00001z"/>
    <path id="sinope" fill="#000" d="m447.85,106.67,2.0544-1.3696,5.4783,0.22826,5.25,2.7391,6.8478,0,1.1413-1.3696,5.0218-0.22826,0,3.8804-25.337-0.78537-0.45-3.09z"/>
    <path id="konya" fill="#000" d="m462.69,110.8,6.1793,0.21993,0.20684,5.0176-11.042,1.3654-5.0921,0.45679-0.48322-1.9186,2.0202-0.9131,4.9631-2.5317,3.2481-1.6964z"/>
    <path id="yerevan" fill="#000" d="m474.56,106.45-0.70621,4.5589-4.5981,0.12765,0.73901,4.672,5.4783,0.22827,1.8261-3.4239,2.7391-0.68479-1.5978-3.6522-3.88-1.84z"/>
    <path id="baku" fill="#000" d="m466.11,101.65,11.413,3.1957,4.7935,2.9674,3.1742-1.0303,2.0758,1.7151-2.2826,3.1957,0,2.0544-4.337-2.2826-1.3696-3.1957-5.0218-2.5109-5.9348,0-2.5107-4.1088z"/>
    <path id="aleppo" fill="#000" d="m457.21,118.77,4.5652-1.5978,6.2286-0.44818,1.304,3.6438-9.1305,0.68479-0.22826,2.2826-3.6522-1.1413,0.91-3.41z"/>
    <path id="tyre" fill="#000" d="m455.15,125.85,3.1957,1.5978,1.5978-3.4239-3.4239-1.1413z"/>
    <path id="jerusalem" fill="#000" d="m454.93,126.76-0.91305,1.1413,1.8261,4.5652,2.5109-4.5652z"/>
    <path id="petra" fill="#000" d="m459.49,126.31,4.337-1.8261,1.1413,3.6522-4.5652,0.91305,1.1413,2.0544-2.7391,2.7391-3.1957,0.22826,0-1.3696,1.5978-1.3696z"/>
    <path id="damascus" fill="#000" d="m461.09,121.51-1.1413,4.337,4.7935-2.0544,2.9674-1.3696,0-1.5978z"/>
    <path id="mosul" fill="#000" d="m469.08,117.4,1.5978-1.1413,5.9348,0.68478,2.7391,3.6522-2.0544,1.3696,0.91305,2.7391-2.5109,2.2826-7.3044,0.91304-2.9674-0.22826-0.68479-2.9674,5.4783-3.8804z"/>
    <path id="baghdad" fill="#000" d="m469.31,129.04,6.8478-1.1413,2.9674-2.7391,2.9788,2.0564,0.22826,3.6438-1.6092,0.91927-3.1957,2.2826-8.22-5.02z"/>
    <path id="kuwait" fill="#000" d="m482.37,131.68-4.5489,2.8522,2.8968,2.9611,3.0233,1.489,1.1611-1.4869-2.13-2.0564,0.0162-2.2915-0.41853-1.4675z"/>
    <path id="dubai" fill="#000" d="m485.7,145.82,2.5567-2.6498,3.0729-1.1092,0.80463,2.9653,6.3913,0.45653,2.2826-3.1957,1.1413,3.6522-2.9674,2.7391-5.0218,0-8.2602-2.8584z"/>
    <path id="al_medinah" fill="#000" d="m456.29,134.75,3.685-0.45235,1.8803-2.6177,8.3473,12.188-6.6738,2.8585-7.2388-9.9221,0-2.0543z"/>
    <path id="arabian_desert" fill="#000" d="m463.83,133.38-2.304-4.1046,5.0218-1.0241,10.316,6.1357,3.562,3.8306,4.9152,1.6542,2.2284,3.0868-2.565,2.5129-17.642-7.0845-3.52-5.01-0.0127,0.003,0-0.00007z"/>
    <path id="mecca" fill="#000" d="m466.79,145.71-2.5109,1.3696,0,4.7935,4.337,5.7065,3.6522,3.4239,6.8478-0.22826,0.22827-6.8478-9.3587-9.587z"/>
    <path id="riyadh" fill="#000" d="m468.39,139.32c1.3696,1.3696,20.772,8.2216,20.772,8.2216l-10.609,5.0093-7.6524-8.4373-2.5106-4.7935z"/>
    <path id="khali_desert" fill="#000" d="m480.49,152.56-0.68478,8.2174,2.5109,0,2.5109-2.9674,8.2174-0.68479,2.0544-1.5978,3.8804-0.68478,0.68479-5.25-5.9348,0-4.1087-1.8261z"/>
    <path id="sana_a" fill="#000" d="m472.27,161.91,0.22826,5.25,3.1957,3.6522,15.978-6.1631,2.2826-3.1957-1.3696-3.4239-7.3044,0.45652-4.1087,3.6522z"/>
    <path id="muscat" fill="#000" d="m493.73,158.26,2.0544-2.2826,4.1087-0.68479,0.45652-6.1631,3.1957-3.6522,5.9348,3.4239-4.5652,5.4783,0,3.1957-5.25,2.7391-4.7935,0.91305z"/>
    <path id="tabriz" fill="#000" d="m476.9,115.58,0.82602-2.6219,3.1742-0.90887,3.6535,1.9559,1.2462,1.8019,2.2179,0.25575,2.1226,6.0697-3.5778,1.3174-4.9347,2.1737-3.4239-2.9674,1.6092-2.1695-2.4838-3.8853-0.42931-1.0214z"/>
    <path id="susa" fill="#000" d="m482.5,126.08,6.6939-3.1853,10.466,5.2417,3.0532,9.35-4.5647,1.2817-10.584-7.4381-3.8804-0.45653-1.1837-4.7935z"/>
    <path id="isfahan" fill="#000" d="m511.53,118.09,0.91305,2.2826-2.2826,2.5109,0.22826,4.337,2.2826,2.5109-1.1413,3.1957,5.25,6.6196-3.1957,2.2826-8.7596-0.44835-2.0457-7.2982-2.7733-7.3085,8.1518-12.039,3.3725,3.355,0,0.00018z"/>
    <path id="astana" fill="#000" d="m484.6,94.577,0-3.8804-2.2826-1.8261,0.22826-2.0544,4.5652,1.1413,3.1957-3.4239,6.8478,1.1413,2.7391,1.1413,5.25-1.3696,8.6739,2.0544-2.2826-4.1087,3.1957-5.0218,7.9892,0.22826,8.4457-2.5109,7.7609,4.1087,7.3044-1.1413,7.7609,5.9348-2.4995,9.1284-9.1421,0.23034-2.2826,1.5978-27.62-1.1413-5.25,2.2826-5.7065,0.68478-0.91305,8.6739-8.9022-3.8804-3.1957-2.9674,3.1957-1.5978,3.1957,0-0.22826-4.7935-6.1631,0.45652-3.91,0.908z"/>
    <path id="almaty" fill="#000" d="m506.28,98.229,6.3913-2.5109,26.935,1.3696,2.7391-2.0544,9.8152,0.22826,2.5109-9.587,5.7065,3.8804,1.5978-2.7391,7.5326,1.8261-2.0544,3.4239-0.22826,1.8261-6.6196-0.22826-0.45652,4.5652-5.7065,0.22826,1.3696,4.337-1.5978,2.0544-5.4783-1.8261-8.2174,0.45652-5.9348,0.68479-5.4783,3.4239-5.4783-2.0544-1.3696-4.1087-8.9022,0.45652-2.5109-2.7391,0,1.8261-4.7935-0.68479z"/>
    <path id="himalayas" fill="#000" d="m529.57,108.5,6.3913-3.6522,13.011-1.1413,5.25,2.0544,6.3913,13.239,0.45653,5.9348,10.5,7.9892,15.065,0.22826,4.5652,0,5.0218,6.6196-2.5109,4.5652-4.327-1.8136-7.2602-2.1466-5.989,0.53622-4.5652-0.45653-16.663-5.0218-4.337-8.6739-7.3044,0.45652-2.5109-5.7065-5.25-4.1087-7.3044-1.8261-1.8261-4.1087,3.19-2.97z"/>
    <path id="samarkand" fill="#000" d="m502.4,97.773,3.1957,0.68478-0.22826,2.7391,5.25,1.3696,0.68478-2.0544,3.1957,2.9674,6.8478-0.91304,1.3696,3.4239,5.9348,2.5109-3.4239,2.5109,1.8261,5.0218-5.25,0.22826-4.337,2.5172-3.4239,1.135-1.8261-2.7391-3.1957-2.9674-3.6522-0.22826-4.1087-0.69309-3.4239,3.204-0.68479-4.5652-2.0544-3.4239,3.8804-1.1413,2.9674-1.8261,0.44-7.767,0.0166,0.0059z"/>
    <path id="kabul" fill="#000" d="m513.82,121.51,7.0761-3.6522,6.6196-0.91305,8.6739,1.8261-1.5978,3.6522-2.5109,1.1413-1.5978,4.7935-3.1957,0.22826-3.4239,1.3696,0.22826,2.9674-5.9348,0.91304-4.7935-1.3696,1.1413-2.7391-3.1957-3.8804z"/>
<!--  <path id="path4243" fill="none" d="m514.27,134.29,11.185-0.22826-0.22827-3.8804,5.7065-0.91305,2.0544-5.4783,2.9674-2.2826,0.91305-2.0544,3.8804,2.7391,0.45652,2.7391,2.2826,3.1957-6.8478,8.6739-3.6522,0.22826-1.5978,2.7391,2.9674,4.7935-4.337,0.22826-1.5978,1.3696-5.0218-4.7935-9.3587,0.91305,2.9674-2.7391z"/>-->
    <path id="karachi" fill="#000" d="m530.71,130.19,2.2826-5.9348,2.7391-1.3696,1.1413-3.8804,3.8804,3.6522,0,2.9674,2.0544,2.9674-2.2826,3.6522-3.1957,3.8804-3.772-0.56336-2.84-5.38z"/>
    <path id="quetta" fill="#000" d="m513.82,134.07,6.3913,1.1413,5.4783-0.91305-0.91305-3.8804,4.5652-1.1413,1.8702,3.918-6.892,8.4081-9.8152,0.45653,3.4239-2.9674-4.11-5.03z"/>
    <path id="ahmedabad" fill="#000" d="m542.91,147.55-0.79632,5.6271-2.8747-0.39049,0.30833-3.201-3.1358-0.45235-1.8261,3.4239-5.7065-5.25,6.3913-1.8261,0-3.6522,7.6397,5.7212z"/>
    <path id="delhi" fill="#000" d="m539.49,134.17,4.4555-5.8113,6.1631-0.91305,4.0545,7.9975,4.3097,2.0416-5.5078,2.3856-6.9779-4.117-6.4971-1.5832z"/>
    <path id="bangalore" fill="#000" d="m549.15,161.68-1.5537,9.1305-3.1957,2.5109-5.25-10.728,9.9994-0.9134z"/>
    <path id="bhopal" fill="#000" d="m542.69,152.77,1.0631-7.763,6.872-3.5599,7.7395,8.59-2.2125,1.0366-0.78806,2.0108-8.0135-0.20136-4.6605-0.11309z"/>
    <path id="kolkata" fill="#000" d="m557.1,156.83,8.6826,1.1705-10.338,8.2216-6.3717-1.8136,3.6432-7.3416,4.3839-0.23692z"/>
    <path id="chennai" fill="#000" d="m549.25,165.09,7.3699,2.2722-1.7176,8.9269-5.25,5.25-3.8804-3.4239-1.1413-4.337,3.4239-2.5109,1.1955-6.1773z"/>
    <path id="colombo" fill="#000" d="m550.11,182.91,5.9348,4.5652,4.337-2.5109-4.7935-7.9892z"/>
    <path id="patna" fill="#000" d="m570.2,140.92,11.834,0.0312,4.8376,1.3824,5.011,2.16-5.5658,0.29637-4.4782,8.4457-3.1957-2.9674-0.44912-6.0984-8.5437-0.75355,0.54988-2.4963,0.00004-0.00005z"/>
    <path id="ulan_bator" fill="#000" d="m569.28,92.751,1.3696-2.5109,14.837-3.1957,6.3913,2.2826,4.7935-5.0218,6.6196,0.45652,2.2826,2.7391,10.044,0.45652,1.3696,1.8261,11.641-1.1413,1.3696-1.8261,4.7935,2.7391-1.3696,2.0544,5.9348,0.45652,2.9674,2.5109-5.0218,0.68478-6.8478,3.1957-6.1631,0.22826,1.5978,2.9674-5.0218,2.2826-8.6739,1.1413-1.1413,1.5978-4.5652-0.22827-3.4239-2.2826-12.326-0.22826-5.7065-5.4783-5.9348,0.22826-1.5978-2.0544,1.1413-2.0544z"/>
    <path id="urumqi" fill="#000" d="m555.56,105.4,1.614-3.2281-1.9369-3.0667,6.4562,0-0.32281-5.0036,15.333,0.80703,0.32281,4.5193,7.2632,0.32281,6.2948,5.165,8.0703,0.32281,0,4.9685-15.415,8.4918-21.69-1.02-5.97-12.27z"/>
    <path id="lhasa" fill="#000" d="m561.69,118.79,21.422,0.64749,12.916,5.231,5.6895,9.6162-5.4878,4.0351-4.5193-6.1005-19.853-0.51712-10.007-7.4246-0.161-5.4876,0.0005,0z"/>
    <path id="hohhot" fill="#000" d="m642.72,103.94-7.9089,5.165-18.724,0.48422-16.543,0.13271,0.16124-4.5225,6.2545,1.871,5.3264-0.19226,15.454-4.2294-1.7755-3.8737,7.9089,0.32281,5.3264-3.5509,5.8755-0.3884-3.6151-4.0267-4.7797,0.0243-0.0249-2.744,6.0353-1.6712,2.6781-3.0351,4.484,11.033-6.14,9.21z"/>
    <path id="dali" fill="#000" d="m594.94,144.53,2.0982-5.7129,3.914-2.6133,6.173,4.6212,10.895,5.2564-5.0033,2.0972-2.7439-1.1298-1.9369,1.6141-4.3579,0.32281-3.3895,2.0983-2.0983-0.64563-1.614-2.4211-1.9364-3.4873z"/>
    <path id="xi_an" fill="#000" d="m598.81,125.57,3.7123,8.0703,17.802-5.5451-3.7207-6.5582-17.794,4.033,0.0003,0z"/>
    <path id="shenyang" fill="#000" d="m639.28,107.11,0.92805,2.2597,4.5598-2.7789,4.2776,1.065-2.9458,3.8748,0.96843,1.1298,1.9369-2.0983,4.5194-0.48422,5.165-4.0351-13.477-3.3568-5.9321,4.424z"/>
    <path id="jinan" fill="#000" d="m640.54,110.4-2.3808-2.7439-3.0261,2.419-2.0983,2.7439,0.80703,3.8737,3.2281,4.1965,3.5509,1.6141,0.64562-2.2597,4.1965-2.9053,2.9053-0.16141,0-1.7754-4.5194,0.48421-2.4211,1.2912-4.6808-4.6808,3.793-2.0961z"/>
    <path id="beijing" fill="#000" d="m619.84,110.46,13.841-0.54898-1.614,2.9053,1.2912,4.0351-11.339,1.647-1.6143-7.8122-0.56487-0.22622z"/>
    <path id="nanjing" fill="#000" d="m639.33,123.31-3.0667,5.6492,1.4123,7.3918-5.366-1.0406-0.96814-9.878,5.2448-4.2215,2.7438,2.0987,0,0.0004z"/>
    <path id="shanghai" fill="#000" d="m639.97,124.12,1.9369-2.0983,3.5509,5.3264,1.2912,5.972-8.7159,0.96843-0.64562-5.165z"/>
    <path id="hangzhou" fill="#000" d="m635.78,138.49-2.4673-2.4191,5.07,0.95007-0.18157-1.9204,8.0703-1.1298,0.16141,2.2597-5.165,4.0351-5.4878-1.7755z"/>
    <path id="guangzhou" fill="#000" d="m619.63,150.91-0.16141,3.7123-1.614,1.1298,0.16141,2.0983,2.2597,0.64562,3.0667-1.6141-1.9369-2.5825,0.96843-2.9053,2.5825-0.48422,0.64562-7.4246-11.944,5.165,0.64563,1.9369z"/>
    <path id="shantou" fill="#000" d="m635.13,139.13,5.165,1.7754-3.3895,5.3264-6.6176-4.1965z"/>
    <path id="hong_kong" fill="#000" d="m626.58,143.49,2.9053-0.80703,6.779,4.0351-1.1298,1.4526-4.5194,1.2912-1.7754-1.2912-1.6141,2.0983-1.7754,0z"/>
    <path id="pyongyang" fill="#000" d="m654.5,109.92,4.5194-3.3895,2.4211,0.80702,0.32281-2.0983,2.5825-0.32281,1.2912-1.9369,1.1298,1.6141-2.2597,1.614,0.32281,1.7755-4.6808,2.0983-0.64562,1.9369,1.1298,1.4526-1.7755,0.64563-2.0983-0.32281-1.7754,0.1614z"/>
    <path id="seoul" fill="#000" d="m658.53,114.76,1.4526-0.64563,1.9369,7.1018-4.3579,0.48421z"/>
    <path id="busan" fill="#000" d="m660.63,113.95,3.9949,2.2762-0.52463,5.0201-1.7351-0.0483-1.73-7.25z"/>
    <path id="asahikawa" fill="#000" d="m690.49,80.703,3.0667-2.2597,3.2281,10.653-3.5509,8.2317,5.0036,3.0667,13.558-5.165,1.1298,3.2281-13.074,3.8737-6.1334,3.5509-4.6808-1.7755,0.64562,1.7755-1.7754,0.80702-0.96844-2.2597,1.2912-1.614,2.7439-0.96843,0.80702-4.1965,0.32281-14.365z"/>
    <path id="sapporo" fill="#000" d="m687.26,108.14,2.9053-1.614,1.614,3.3895-0.1614,2.7439-2.0983,3.2281-0.32281,3.0667-3.0667-5.3264z"/>
    <path id="kyoto" fill="#000" d="m685.33,113.95-2.5825,2.5825-2.9053-0.96843-0.48421,3.3895-5.0036,0.16141,0,1.9369,4.8422-0.32281,7.1018-5.0036z"/>
    <path id="tokyo" fill="#000" d="m686.94,116.21,2.0983,3.3895-0.1614,1.2912-1.7755,0.96844-2.4211-1.1298-4.0351,1.1298-1.1298,1.7754-1.614-2.4211,2.7439-0.80703z"/>
    <path id="okinawa" fill="#00F" d="m648.36,143.81-0.1614,3.3895,7.9088-3.0667,6.2948-3.8737,4.3579-4.3579,1.1298-4.4217-1.614-1.7117-17.92,14.04z"/>
    <path id="hiroshima" fill="#000" d="m673.1,125.06,5.6089,0.19327,0.1614-1.2912-1.2912-2.2597-3.5509-0.0648-0.16141-2.1949-3.3895,0,2.6227,5.6173z"/>
    <path id="taipei" fill="#000" d="m644.81,142.84,2.7439,0.96843,0,4.8422-1.9369,1.4526-2.9053-0.96843z"/>
    <path id="yangon" fill="#000" d="m586.71,145.26,6.8093-0.72685,5.7803,7.5058,0,2.5825-5.4878,2.2597-0.96843,1.7755,2.7439,3.8737-0.80703,3.7123,0.64562,2.7439-0.48421,2.9053-2.4211,0.80703-0.48422-11.944-2.4211,3.0667-3.3895-0.80703,0-5.165-3.8737-4.0351,4.35-8.56z"/>
    <path id="hanoi" fill="#000" d="m600.27,155.11-0.16141-3.2281,4.0351-1.9369,5.0036-0.32281,1.4526-1.7755,3.0667,1.9369,0,2.4211-2.2597,4.0351,0.16141,3.0667,3.8737,3.5509-0.32281,2.9053-3.7123,2.2597-0.96843-3.7123-2.5825-5.4878-5.165-0.32281-1.4526,1.2912z"/>
    <path id="saigon" fill="#000" d="m610.43,167.54-5.8106,0-0.96843,4.0351,3.7123,3.8737,1.9369,1.614,0.80703,2.7439,3.2281-4.0351,4.8422-1.4526,0.32281-8.7159-2.0983-2.2597-0.80702,3.0667-3.2281,2.2597z"/>
    <path id="bangkok" fill="#000" d="m593.81,158.66,0.48422-1.614,4.6808-1.4526,2.4211,5.0036,2.0983-1.4526,4.0351,0.64562,3.2281,6.9404-6.6176,0.32281-1.1298,4.0351-4.1965-1.6141-1.614,8.0703,2.7439,4.5194,5.0036,5.0036-4.8422-0.32281-6.6176-6.4562,0.48421-6.1334,3.0667-3.0667,0.48422-2.0983-2.0983-2.7439,1.1298-4.5194z"/>
    <path id="singapore" fill="#000" d="m599.62,187.07,5.4878,0.64563,1.614,1.9369-0.16141,3.3895,1.2912,2.2597-2.0983,1.614-7.1018-5.8106z"/>
    <path id="medan" fill="#000" d="m587.84,187.23,10.491,5.0036,7.2632,5.6492,2.4211,5.3264,4.8422,3.8737-1.4526,5.8106-1.2912,0.80703-6.779-3.8737-15.818-21.305z"/>
    <path id="manila" fill="#000" d="m644.49,156.56,3.5509,1.7755-0.32281,7.7474,8.3931,5.8106-0.32281,4.5194-7.1018,3.2281-9.5229,3.8737-3.5509-0.48422,1.2912-3.3895,6.4562-9.8457-1.614-5.8106z"/>
    <path id="davao" fill="#000" d="m641.1,183.36,1.9369,3.0667,4.0351-1.1298,4.1965-3.2281,0.80702,3.7123,2.9053,0.80703-0.32281-3.0667,3.8737-0.64562-2.0983-6.4562z"/>
    <path id="brunei" fill="#000" d="m639.65,196.6-1.7755,2.2597-0.64562,3.3895-2.9053,1.4526,0,4.5194-3.0667,0.32281-1.6141-2.7439-8.2317,0.64562-2.0984-6.4254-0.80697-4.5544,4.0609,0.0925,12.669-11.787,5.1701,1.0042,2.0441,2.149-5.9871,5.4793,3.1877,4.1965z"/>
    <path id="jakarta" fill="#000" d="m611.98,212.71,16.463,2.2597,3.3895,2.4211-15.334-0.16129-5.972-2.7439,1.4532-1.7756z"/>
    <path id="moresby" fill="#000" d="m670.48,199.82,3.8737,1.7755,1.9369,4.6808,5.972-2.0983,13.074,2.9053,9.5229,6.9404-0.96843,2.4211,7.4246,7.2632-7.9089-1.2912-5.972-5.165-3.0667,2.4211-5.0036,0.48422-3.0667-2.2597-3.5509,0.48421-0.80703-2.4211,1.614-1.7754-10.007-5.972-3.7123-3.5509-1.9369-2.4211z"/>
    <path id="outback" fill="#000" d="m661.44,237.1,3.2281,5.4878,22.274,5.4878-0.48421,19.53-9.0387,10.976-3.8737-5.4878-2.9053-0.80702-3.2281-0.64563-3.7123,0-2.4211,0.64562-2.4211,0.00001-4.0351,0.80702-1.614-1.614-1.9369-2.0983-5.6492-1.1298-13.074,0.96843-3.0667-7.1018-0.32281-2.0983,0.96843-2.0983-2.5825-4.6808,1.4526-3.7123,9.0387-4.6808,7.1018-0.80702,4.5193-7.2632,1.9369,2.2597,3.8737-7.1018,3.0667-1.1298,2.5825,3.2281z"/>
    <path id="perth" fill="#000" d="m632.22,269.87,0.64562,4.6808-2.5825,2.0983,9.0387,2.0983,3.0667-2.5825,9.2001,0.32281,3.0667-2.4211-3.7123-3.5509-5.6492-1.614z"/>
    <path id="darwin" fill="#000" d="m662.08,233.88,3.0667-0.64562,0.64562-7.586,5.165-1.4526,4.0351,3.2281,5.0036-0.48422-3.0667,6.1334,10.976,7.2632-0.96844,7.2632-21.951-5.8106-2.9053-5.165z"/>
    <path id="brisbane" fill="#000" d="m691.14,228.23,1.4526-3.5509,4.3579,8.5545,2.9053,1.4526,1.4526,7.9089,5.4878,3.2281,8.7159,11.621,0.80703,3.2281-13.881-0.16141-6.9404,0.1614-8.0703,0.00001,1.1298-21.306,3.0667-3.3895z"/>
    <path id="melbourne" fill="#000" d="m687.59,268.09,10.814,9.3615,11.298,7.4246-3.7123,6.1334-0.48421,5.6492-3.8737,2.4211-8.3931-12.428-7.1018-2.2597-2.4211-4.5194-5.3264-0.64562z"/>
    <path id="sydney" fill="#000" d="m687.59,261.8,0,5.3264,21.951,16.625,0.32281-4.3579,6.4562-7.7474,0.32281-10.491z"/>
    <path id="wellington" fill="#000" d="m759.9,278.59,3.8737-0.32281,3.2281,4.6808,7.1018,1.1298-0.16141,2.0983-9.5229,7.4246-4.8422,4.8422-2.0983,0.64562-0.96844,1.4526,0.16141,1.2912-4.1965,3.2281-6.1334-1.9369,0.64563-3.3895,9.5229-3.8737,0.48422-2.0983,1.9369-2.4211,2.7439-4.1965,2.4211-0.32282,0-4.3579z"/>
    <path id="hyderbad" fill="#000" transform="matrix(0.50677291,0,0,0.40575998,216.38479,-2.319365)" d="m671.41,379.6,23.349-18.934,5.0791,1.3754-1.951,17.837-1.1149,8.0826-7.2464,6.1316c-2.9685-2.7674-14.856-1.4767-17.824-3.5014l-0.29143-10.991-0.00079,0.0001z"/>
    <path id="antarctica" fill="#000" d="m-424.11,967.66-2.6238,20.353,1568.7,1.1709-0.1352-25.465-61.094,1.9708-46.51-10.642-20.89-14.584,29.561-8.6713-14.19-21.678,27.196-3.5474,6.7006-8.2772-115.49-30.744-68.977,0.39415-44.933,0.39416-23.649-8.2772-16.554,8.6714-15.766-6.3064-23.255,6.7006-87.502,3.5474-12.613,10.248-18.131,1.9708-9.8538,9.4597-9.0655-5.124,5.5181-15.372-51.24-2.3649-14.584-9.4596-22.467,1.9708-11.825,8.2772-31.926,5.9123-5.5181,4.3357-18.919-6.7006-28.379,11.036-59.911-1.5766-63.064,8.2772-46.51-1.1825-31.532,24.043-33.503,4.3357-41.386,12.219,33.897,11.825-130.86,13.795-81.984-12.613-29.561-9.4596,26.408-13.795,28.773,3.1532,39.021-12.219,2.3649-20.102-17.343-18.131,39.809-29.167-80.407,33.503-7.4889,26.014-119.43-2.7591,17.737,15.372-154.9-11.43-53.211,17.343-45.327,4.3357,40.598,12.613-2.7591,10.642-34.685-3.5474,19.313,22.073-75.677-2.7591,0.0328-0.00081z" transform="matrix(0.50677291,0,0,0.40575998,216.38479,-2.319365)"/>
   </g>
   <path id="volgograd" fill="#000" d="m485.99,217.47,11.865,8.0318,24.684,1.9915,3.4089-11.075,8.9755,4.3222,3.8487-9.3628-12.651-19.224-30.338,12.106-9.7938,13.21z"/>
   <path id="yekaterinburg" fill="#000" d="m592.3,151.03,5.8936,8.6489,20.703,26.097,8.2805,6.9271,9.7144,7.4794,13.457-2.8631,16.721,17.675-0.39778-39.81,1.2736-39.723-8.0656-44.675-33.577,12.306-25.542,13.312-0.6935,19.973-7.7673,14.653,0.00028-0.0003z"/>
   <path id="kaifeng" fill="#000" d="m791.06,304.39,7.3253,17.381,7.6595-0.66348,22.174-17.183-6.5059-9.1951-24.242,4.9226-6.4109,4.7372z"/>
   <path id="wuhan" fill="#000" d="m792.74,324.18,5.0957,36.612,19.242-6.6982,8.7988-7.9423-5.554-5.9048-3.619-24.891-8.0817,6.878-15.881,1.9465-0.0004-0.00011z"/>
   <path id="chengdu" fill="#000" d="m761.52,340.34,4.6099,5.9449,6.06,5.5831,20.89,12.032,3.9258-1.4499-5.9484-37.066-27.308,10.497-2.2295,4.4592z"/>
   <path id="lanzhou" fill="#000" d="m757.62,278.19-31.759,20.97,26.263,15.084,37.361-10.953,9.7522-7.451-4.8336-17.556-36.784-0.0941,0.0004,0.0001z"/>
   <path id="changchun" fill="#000" d="m853.68,244.4,50.726-12.624-5.9983,15.169-6.2668-0.55406-0.25451,8.3516-4.83,0.52301-3.1643,7.5857-5.527-0.9389-1.354,6.6001-30.179-12.106,6.8481-12.007z"/>
   <path id="harbin" fill="#000" d="m848.11,208.16,21.155-3.6794,3.3704,19.606,7.9634,1.0286,9.7943,7.7149-34.287,9.7086-4.8103-15.126-3.1854-19.253z"/>
   <path id="fukuoka" fill="#000" d="m885.57,312.76,9.5554-9.395,3.822,11.928-5.8605,9.1736-3.4588,1.6036-3.1819-5.6819-0.87616-7.6286z"/>
   <path id="tehran" fill="#000" d="m538.29,295.37,18.045-0.0154,6.1968-8.0934,10.048,3.1999-14.903,27.891-15.523-10.054-3.8632-12.928z"/>
   <path id="saint_johns" fill="#000" d="m13.061,237.11,8.5206-0.72216,2.3509,12.055,3.0627,2.7494,5.8122,8.5158,13.616-9.3062,12.921-3.2582-9.1996-9.0643-12.321,0.61943,0.32449-13.804-5.977-5.7734-15.903,5.505-3.2078,12.484z"/>
   <path id="charlotte" fill="#000" d="m-68.64,300.14,16.602,5.0901,3.3228-7.1647,18.057,6.8403,9.3168,4.2489-15.686,18.904-32.647-1.5833,1.0354-26.335-0.0004-0.00041z"/>
   <path id="oklahoma_city" fill="#000" d="m-93.563,256.16-41.089,0.2899-3.5828,37.308,15.436,0.83445,0.18887,10.823,27.332,0.30628,3.2219-20.019-1.5068-29.542z"/>
   <path id="seattle" fill="#000" d="m-220.87,229.28-6.5229,2.7746,2.514,11.279-5.2928,15.174,36.884-1.6772-12.094-28.152-15.489,0.6025z"/>
   <path id="salvador" fill="#000" d="m94.901,541.54,34.44-19.788,11.068,18.225,10.551,19.945,3.9815,6.7062-3.6618,5.2772-52.597-11.492-3.7814-18.873z"/>
   <path id="belo_horizonte" fill="#000" d="m101.31,576.93-1.5939-13.826,51.242,10.191-4.6056,25.935-7.5779,17.003-31.254-2.5266-4.3801-25.427-1.8304-11.348z"/>
   <path id="ankara" fill="#000" d="m455.96,277.11,27.243,1.6568-14.363,9.8572-8.69,0.85668-12.674-3.8814-3.5387-5.316,12.023-3.1736,0.0003,0.0003z"/>
   <path id="mexico_city" fill="#000" d="m-135.73,373.7,0.19914,12.975,11.864,8.0774,17.555,6.9116-3.7423-13.481-5.6324-16.002-5.7506-15.761-19.181,11.383,4.6881,5.8969-0.00004,0.0003z"/>
   <path id="puebla" fill="#000" d="m-105.35,372.87-1.0518-17.71-12.155-2.3669,7.5528,24.691,6.2901,24.521,9.4726-1.171,5.4551-5.399,2.4502-5.411-13.276-3.4975-3.0658-8.0825-1.6724-5.5741z"/>
   <path id="belfast" fill="#000" d="m285.56,186.86-10.591,7.9178,14.851,9.1056,6.5688-6.5648-2.7929-7.0807-8.0358-3.3782,0.0004,0.0003z"/>
   <path id="durban" fill="#000" d="m437.96,667.65,7.879,7.7114,15.306-20.19,0.23383-5.7334-24.103,1.373-12.311,0.14904,12.995,16.69z"/>
   <path id="kampala" fill="#000" d="m449.47,529.34,3.4118-15.117,20.737,9.5633,12.913,5.8272,6.3455,19.241-4.9573,10.781-15.586,3.2275-1.9616-12.345-8.258-0.77562-6.4869-5.3571-6.1566-15.045z"/>
   <path id="njimi" fill="#000" d="m378.35,445.51,7.8857,9.584,14.508-4.0522,24.243,2.2919-10.262-22.684,8.2926-46.693-31.831-10.599-14.775,16.06-0.99168,12.381,2.9317,43.711-0.0002-0.0005z"/>
   <path id="lahore" fill="#000" d="m608.3,356.47,12.973-20.175,6.3086,5.8323-3.6219,7.3933,3.685,5.9269,0.96987,8.3407-11.283,3.3856-9.0312-10.704z"/>
   <path id="mumbai" fill="#000" d="m663.3,392.29-5.5742,10.239-21.356,2.8436-0.3262-21.423,34.034,0.16274,1.1432,6.9608-7.9208,1.2163z"/>
   <path id="jaipur" fill="#000" d="m637.77,338.3,12.116,3.1634,12.767,9.1139-17.091,11.664-1.6346,4.8855-18.437-17.152,3.2633-7.6481,5.7182,0.7152,3.2978-4.742z"/>
   <path id="dhaka" fill="#000" d="m701.04,361.43,12.116,1.4912-0.33272,14.131-12.852,3.3342,1.0682-18.956z"/>
   <path id="lucknow" fill="#000" d="m666.25,361.67-4.5913-7.7051,16.069-9.8883,19.731,8.3497-1.0214,6.7353-11.589,8.3001-9.1238,7.865-9.4751-13.657z"/>
   <path id="new_york" fill="#000" d="m-3.4034,259.87-1.2227-8.6038-3.7341-2.1358-6.6663,4.856-10.86,0.55041-8.5733,8.5128,31.293,14.959,7.2466-4.8442-7.4837-13.294z"/>
  </g>
  <path id="surabaya" fill="#000" d="m945,473.79,27.857,0.71429,33.571,0.71428-22.857,6.4286l-38.54-7.85z"/>
 </g>
</svg>